<?xml version="1.0" encoding="utf-8" standalone="no"?>
<!DOCTYPE svg PUBLIC "-//W3C//DTD SVG 1.1//EN"
  "http://www.w3.org/Graphics/SVG/1.1/DTD/svg11.dtd">
<!-- Created with matplotlib (http://matplotlib.org/) -->
<svg height="432pt" version="1.1" viewBox="0 0 1080 432" width="1080pt" xmlns="http://www.w3.org/2000/svg" xmlns:xlink="http://www.w3.org/1999/xlink">
 <defs>
  <style type="text/css">
*{stroke-linecap:butt;stroke-linejoin:round;}
  </style>
 </defs>
 <g id="figure_1">
  <g id="patch_1">
   <path d="M 0 432 
L 1080 432 
L 1080 0 
L 0 0 
z
" style="fill:#ffffff;"/>
  </g>
  <g id="axes_1">
   <g id="patch_2">
    <path clip-path="url(#pbb9472e866)" d="M 100.705022 88.388006 
C 108.718266 88.388006 116.404387 85.20431 122.070606 79.538091 
C 127.736825 73.871872 130.920521 66.185751 130.920521 58.172507 
C 130.920521 50.159263 127.736825 42.473143 122.070606 36.806923 
C 116.404387 31.140704 108.718266 27.957009 100.705022 27.957009 
C 92.691778 27.957009 85.005657 31.140704 79.339438 36.806923 
C 73.673219 42.473143 70.489523 50.159263 70.489523 58.172507 
C 70.489523 66.185751 73.673219 73.871872 79.339438 79.538091 
C 85.005657 85.20431 92.691778 88.388006 100.705022 88.388006 
z
" style="fill:#ffff77;stroke:#000000;stroke-linejoin:miter;stroke-width:0.7;"/>
   </g>
   <g id="patch_3">
    <path clip-path="url(#pbb9472e866)" d="M 201.42335 88.388006 
C 209.436594 88.388006 217.122715 85.20431 222.788934 79.538091 
C 228.455153 73.871872 231.638849 66.185751 231.638849 58.172507 
C 231.638849 50.159263 228.455153 42.473143 222.788934 36.806923 
C 217.122715 31.140704 209.436594 27.957009 201.42335 27.957009 
C 193.410107 27.957009 185.723986 31.140704 180.057767 36.806923 
C 174.391547 42.473143 171.207852 50.159263 171.207852 58.172507 
C 171.207852 66.185751 174.391547 73.871872 180.057767 79.538091 
C 185.723986 85.20431 193.410107 88.388006 201.42335 88.388006 
z
" style="fill:#ffff77;stroke:#000000;stroke-linejoin:miter;stroke-width:0.7;"/>
   </g>
   <g id="patch_4">
    <path clip-path="url(#pbb9472e866)" d="M 302.141679 88.388006 
C 310.154923 88.388006 317.841044 85.20431 323.507263 79.538091 
C 329.173482 73.871872 332.357177 66.185751 332.357177 58.172507 
C 332.357177 50.159263 329.173482 42.473143 323.507263 36.806923 
C 317.841044 31.140704 310.154923 27.957009 302.141679 27.957009 
C 294.128435 27.957009 286.442314 31.140704 280.776095 36.806923 
C 275.109876 42.473143 271.92618 50.159263 271.92618 58.172507 
C 271.92618 66.185751 275.109876 73.871872 280.776095 79.538091 
C 286.442314 85.20431 294.128435 88.388006 302.141679 88.388006 
z
" style="fill:#ffff77;stroke:#000000;stroke-linejoin:miter;stroke-width:0.7;"/>
   </g>
   <g id="patch_5">
    <path clip-path="url(#pbb9472e866)" d="M 402.860007 88.388006 
C 410.873251 88.388006 418.559372 85.20431 424.225591 79.538091 
C 429.89181 73.871872 433.075506 66.185751 433.075506 58.172507 
C 433.075506 50.159263 429.89181 42.473143 424.225591 36.806923 
C 418.559372 31.140704 410.873251 27.957009 402.860007 27.957009 
C 394.846763 27.957009 387.160643 31.140704 381.494423 36.806923 
C 375.828204 42.473143 372.644509 50.159263 372.644509 58.172507 
C 372.644509 66.185751 375.828204 73.871872 381.494423 79.538091 
C 387.160643 85.20431 394.846763 88.388006 402.860007 88.388006 
z
" style="fill:#ffff77;stroke:#000000;stroke-linejoin:miter;stroke-width:0.7;"/>
   </g>
   <g id="patch_6">
    <path clip-path="url(#pbb9472e866)" d="M 503.578336 88.388006 
C 511.59158 88.388006 519.277701 85.20431 524.94392 79.538091 
C 530.610139 73.871872 533.793834 66.185751 533.793834 58.172507 
C 533.793834 50.159263 530.610139 42.473143 524.94392 36.806923 
C 519.277701 31.140704 511.59158 27.957009 503.578336 27.957009 
C 495.565092 27.957009 487.878971 31.140704 482.212752 36.806923 
C 476.546533 42.473143 473.362837 50.159263 473.362837 58.172507 
C 473.362837 66.185751 476.546533 73.871872 482.212752 79.538091 
C 487.878971 85.20431 495.565092 88.388006 503.578336 88.388006 
z
" style="fill:#ffff77;stroke:#000000;stroke-linejoin:miter;stroke-width:0.7;"/>
   </g>
   <g id="patch_7">
    <path clip-path="url(#pbb9472e866)" d="M 604.296664 88.388006 
C 612.309908 88.388006 619.996029 85.20431 625.662248 79.538091 
C 631.328467 73.871872 634.512163 66.185751 634.512163 58.172507 
C 634.512163 50.159263 631.328467 42.473143 625.662248 36.806923 
C 619.996029 31.140704 612.309908 27.957009 604.296664 27.957009 
C 596.28342 27.957009 588.597299 31.140704 582.93108 36.806923 
C 577.264861 42.473143 574.081166 50.159263 574.081166 58.172507 
C 574.081166 66.185751 577.264861 73.871872 582.93108 79.538091 
C 588.597299 85.20431 596.28342 88.388006 604.296664 88.388006 
z
" style="fill:#ffff77;stroke:#000000;stroke-linejoin:miter;stroke-width:0.7;"/>
   </g>
   <g id="patch_8">
    <path clip-path="url(#pbb9472e866)" d="M 705.014993 88.388006 
C 713.028237 88.388006 720.714357 85.20431 726.380577 79.538091 
C 732.046796 73.871872 735.230491 66.185751 735.230491 58.172507 
C 735.230491 50.159263 732.046796 42.473143 726.380577 36.806923 
C 720.714357 31.140704 713.028237 27.957009 705.014993 27.957009 
C 697.001749 27.957009 689.315628 31.140704 683.649409 36.806923 
C 677.98319 42.473143 674.799494 50.159263 674.799494 58.172507 
C 674.799494 66.185751 677.98319 73.871872 683.649409 79.538091 
C 689.315628 85.20431 697.001749 88.388006 705.014993 88.388006 
z
" style="fill:#ffff77;stroke:#000000;stroke-linejoin:miter;stroke-width:0.7;"/>
   </g>
   <g id="patch_9">
    <path clip-path="url(#pbb9472e866)" d="M 805.733321 88.388006 
C 813.746565 88.388006 821.432686 85.20431 827.098905 79.538091 
C 832.765124 73.871872 835.94882 66.185751 835.94882 58.172507 
C 835.94882 50.159263 832.765124 42.473143 827.098905 36.806923 
C 821.432686 31.140704 813.746565 27.957009 805.733321 27.957009 
C 797.720077 27.957009 790.033956 31.140704 784.367737 36.806923 
C 778.701518 42.473143 775.517823 50.159263 775.517823 58.172507 
C 775.517823 66.185751 778.701518 73.871872 784.367737 79.538091 
C 790.033956 85.20431 797.720077 88.388006 805.733321 88.388006 
z
" style="fill:#ffff77;stroke:#000000;stroke-linejoin:miter;stroke-width:0.7;"/>
   </g>
   <g id="patch_10">
    <path clip-path="url(#pbb9472e866)" d="M 906.45165 88.388006 
C 914.464893 88.388006 922.151014 85.20431 927.817233 79.538091 
C 933.483453 73.871872 936.667148 66.185751 936.667148 58.172507 
C 936.667148 50.159263 933.483453 42.473143 927.817233 36.806923 
C 922.151014 31.140704 914.464893 27.957009 906.45165 27.957009 
C 898.438406 27.957009 890.752285 31.140704 885.086066 36.806923 
C 879.419847 42.473143 876.236151 50.159263 876.236151 58.172507 
C 876.236151 66.185751 879.419847 73.871872 885.086066 79.538091 
C 890.752285 85.20431 898.438406 88.388006 906.45165 88.388006 
z
" style="fill:#ffff77;stroke:#000000;stroke-linejoin:miter;stroke-width:0.7;"/>
   </g>
   <g id="patch_11">
    <path clip-path="url(#pbb9472e866)" d="M 1007.169978 88.388006 
C 1015.183222 88.388006 1022.869343 85.20431 1028.535562 79.538091 
C 1034.201781 73.871872 1037.385477 66.185751 1037.385477 58.172507 
C 1037.385477 50.159263 1034.201781 42.473143 1028.535562 36.806923 
C 1022.869343 31.140704 1015.183222 27.957009 1007.169978 27.957009 
C 999.156734 27.957009 991.470613 31.140704 985.804394 36.806923 
C 980.138175 42.473143 976.954479 50.159263 976.954479 58.172507 
C 976.954479 66.185751 980.138175 73.871872 985.804394 79.538091 
C 991.470613 85.20431 999.156734 88.388006 1007.169978 88.388006 
z
" style="fill:#ffff77;stroke:#000000;stroke-linejoin:miter;stroke-width:0.7;"/>
   </g>
   <g id="patch_12">
    <path clip-path="url(#pbb9472e866)" d="M 251.782515 239.465499 
C 259.795759 239.465499 267.481879 236.281803 273.148099 230.615584 
C 278.814318 224.949365 281.998013 217.263244 281.998013 209.25 
C 281.998013 201.236756 278.814318 193.550635 273.148099 187.884416 
C 267.481879 182.218197 259.795759 179.034501 251.782515 179.034501 
C 243.769271 179.034501 236.08315 182.218197 230.416931 187.884416 
C 224.750712 193.550635 221.567016 201.236756 221.567016 209.25 
C 221.567016 217.263244 224.750712 224.949365 230.416931 230.615584 
C 236.08315 236.281803 243.769271 239.465499 251.782515 239.465499 
z
" style="fill:#55cc77;stroke:#000000;stroke-linejoin:miter;stroke-width:0.7;"/>
   </g>
   <g id="patch_13">
    <path clip-path="url(#pbb9472e866)" d="M 352.500843 239.465499 
C 360.514087 239.465499 368.200208 236.281803 373.866427 230.615584 
C 379.532646 224.949365 382.716342 217.263244 382.716342 209.25 
C 382.716342 201.236756 379.532646 193.550635 373.866427 187.884416 
C 368.200208 182.218197 360.514087 179.034501 352.500843 179.034501 
C 344.487599 179.034501 336.801478 182.218197 331.135259 187.884416 
C 325.46904 193.550635 322.285345 201.236756 322.285345 209.25 
C 322.285345 217.263244 325.46904 224.949365 331.135259 230.615584 
C 336.801478 236.281803 344.487599 239.465499 352.500843 239.465499 
z
" style="fill:#55cc77;stroke:#000000;stroke-linejoin:miter;stroke-width:0.7;"/>
   </g>
   <g id="patch_14">
    <path clip-path="url(#pbb9472e866)" d="M 453.219172 239.465499 
C 461.232415 239.465499 468.918536 236.281803 474.584755 230.615584 
C 480.250975 224.949365 483.43467 217.263244 483.43467 209.25 
C 483.43467 201.236756 480.250975 193.550635 474.584755 187.884416 
C 468.918536 182.218197 461.232415 179.034501 453.219172 179.034501 
C 445.205928 179.034501 437.519807 182.218197 431.853588 187.884416 
C 426.187369 193.550635 423.003673 201.236756 423.003673 209.25 
C 423.003673 217.263244 426.187369 224.949365 431.853588 230.615584 
C 437.519807 236.281803 445.205928 239.465499 453.219172 239.465499 
z
" style="fill:#55cc77;stroke:#000000;stroke-linejoin:miter;stroke-width:0.7;"/>
   </g>
   <g id="patch_15">
    <path clip-path="url(#pbb9472e866)" d="M 553.9375 239.465499 
C 561.950744 239.465499 569.636865 236.281803 575.303084 230.615584 
C 580.969303 224.949365 584.152999 217.263244 584.152999 209.25 
C 584.152999 201.236756 580.969303 193.550635 575.303084 187.884416 
C 569.636865 182.218197 561.950744 179.034501 553.9375 179.034501 
C 545.924256 179.034501 538.238135 182.218197 532.571916 187.884416 
C 526.905697 193.550635 523.722001 201.236756 523.722001 209.25 
C 523.722001 217.263244 526.905697 224.949365 532.571916 230.615584 
C 538.238135 236.281803 545.924256 239.465499 553.9375 239.465499 
z
" style="fill:#55cc77;stroke:#000000;stroke-linejoin:miter;stroke-width:0.7;"/>
   </g>
   <g id="patch_16">
    <path clip-path="url(#pbb9472e866)" d="M 654.655828 239.465499 
C 662.669072 239.465499 670.355193 236.281803 676.021412 230.615584 
C 681.687631 224.949365 684.871327 217.263244 684.871327 209.25 
C 684.871327 201.236756 681.687631 193.550635 676.021412 187.884416 
C 670.355193 182.218197 662.669072 179.034501 654.655828 179.034501 
C 646.642585 179.034501 638.956464 182.218197 633.290245 187.884416 
C 627.624025 193.550635 624.44033 201.236756 624.44033 209.25 
C 624.44033 217.263244 627.624025 224.949365 633.290245 230.615584 
C 638.956464 236.281803 646.642585 239.465499 654.655828 239.465499 
z
" style="fill:#55cc77;stroke:#000000;stroke-linejoin:miter;stroke-width:0.7;"/>
   </g>
   <g id="patch_17">
    <path clip-path="url(#pbb9472e866)" d="M 755.374157 239.465499 
C 763.387401 239.465499 771.073522 236.281803 776.739741 230.615584 
C 782.40596 224.949365 785.589655 217.263244 785.589655 209.25 
C 785.589655 201.236756 782.40596 193.550635 776.739741 187.884416 
C 771.073522 182.218197 763.387401 179.034501 755.374157 179.034501 
C 747.360913 179.034501 739.674792 182.218197 734.008573 187.884416 
C 728.342354 193.550635 725.158658 201.236756 725.158658 209.25 
C 725.158658 217.263244 728.342354 224.949365 734.008573 230.615584 
C 739.674792 236.281803 747.360913 239.465499 755.374157 239.465499 
z
" style="fill:#55cc77;stroke:#000000;stroke-linejoin:miter;stroke-width:0.7;"/>
   </g>
   <g id="patch_18">
    <path clip-path="url(#pbb9472e866)" d="M 856.092485 239.465499 
C 864.105729 239.465499 871.79185 236.281803 877.458069 230.615584 
C 883.124288 224.949365 886.307984 217.263244 886.307984 209.25 
C 886.307984 201.236756 883.124288 193.550635 877.458069 187.884416 
C 871.79185 182.218197 864.105729 179.034501 856.092485 179.034501 
C 848.079241 179.034501 840.393121 182.218197 834.726901 187.884416 
C 829.060682 193.550635 825.876987 201.236756 825.876987 209.25 
C 825.876987 217.263244 829.060682 224.949365 834.726901 230.615584 
C 840.393121 236.281803 848.079241 239.465499 856.092485 239.465499 
z
" style="fill:#55cc77;stroke:#000000;stroke-linejoin:miter;stroke-width:0.7;"/>
   </g>
   <g id="patch_19">
    <path clip-path="url(#pbb9472e866)" d="M 352.500843 390.542991 
C 360.514087 390.542991 368.200208 387.359296 373.866427 381.693077 
C 379.532646 376.026857 382.716342 368.340737 382.716342 360.327493 
C 382.716342 352.314249 379.532646 344.628128 373.866427 338.961909 
C 368.200208 333.29569 360.514087 330.111994 352.500843 330.111994 
C 344.487599 330.111994 336.801478 333.29569 331.135259 338.961909 
C 325.46904 344.628128 322.285345 352.314249 322.285345 360.327493 
C 322.285345 368.340737 325.46904 376.026857 331.135259 381.693077 
C 336.801478 387.359296 344.487599 390.542991 352.500843 390.542991 
z
" style="fill:#ff6644;stroke:#000000;stroke-linejoin:miter;stroke-width:0.7;"/>
   </g>
   <g id="patch_20">
    <path clip-path="url(#pbb9472e866)" d="M 453.219172 390.542991 
C 461.232415 390.542991 468.918536 387.359296 474.584755 381.693077 
C 480.250975 376.026857 483.43467 368.340737 483.43467 360.327493 
C 483.43467 352.314249 480.250975 344.628128 474.584755 338.961909 
C 468.918536 333.29569 461.232415 330.111994 453.219172 330.111994 
C 445.205928 330.111994 437.519807 333.29569 431.853588 338.961909 
C 426.187369 344.628128 423.003673 352.314249 423.003673 360.327493 
C 423.003673 368.340737 426.187369 376.026857 431.853588 381.693077 
C 437.519807 387.359296 445.205928 390.542991 453.219172 390.542991 
z
" style="fill:#ff6644;stroke:#000000;stroke-linejoin:miter;stroke-width:0.7;"/>
   </g>
   <g id="patch_21">
    <path clip-path="url(#pbb9472e866)" d="M 553.9375 390.542991 
C 561.950744 390.542991 569.636865 387.359296 575.303084 381.693077 
C 580.969303 376.026857 584.152999 368.340737 584.152999 360.327493 
C 584.152999 352.314249 580.969303 344.628128 575.303084 338.961909 
C 569.636865 333.29569 561.950744 330.111994 553.9375 330.111994 
C 545.924256 330.111994 538.238135 333.29569 532.571916 338.961909 
C 526.905697 344.628128 523.722001 352.314249 523.722001 360.327493 
C 523.722001 368.340737 526.905697 376.026857 532.571916 381.693077 
C 538.238135 387.359296 545.924256 390.542991 553.9375 390.542991 
z
" style="fill:#ff6644;stroke:#000000;stroke-linejoin:miter;stroke-width:0.7;"/>
   </g>
   <g id="patch_22">
    <path clip-path="url(#pbb9472e866)" d="M 654.655828 390.542991 
C 662.669072 390.542991 670.355193 387.359296 676.021412 381.693077 
C 681.687631 376.026857 684.871327 368.340737 684.871327 360.327493 
C 684.871327 352.314249 681.687631 344.628128 676.021412 338.961909 
C 670.355193 333.29569 662.669072 330.111994 654.655828 330.111994 
C 646.642585 330.111994 638.956464 333.29569 633.290245 338.961909 
C 627.624025 344.628128 624.44033 352.314249 624.44033 360.327493 
C 624.44033 368.340737 627.624025 376.026857 633.290245 381.693077 
C 638.956464 387.359296 646.642585 390.542991 654.655828 390.542991 
z
" style="fill:#ff6644;stroke:#000000;stroke-linejoin:miter;stroke-width:0.7;"/>
   </g>
   <g id="patch_23">
    <path clip-path="url(#pbb9472e866)" d="M 755.374157 390.542991 
C 763.387401 390.542991 771.073522 387.359296 776.739741 381.693077 
C 782.40596 376.026857 785.589655 368.340737 785.589655 360.327493 
C 785.589655 352.314249 782.40596 344.628128 776.739741 338.961909 
C 771.073522 333.29569 763.387401 330.111994 755.374157 330.111994 
C 747.360913 330.111994 739.674792 333.29569 734.008573 338.961909 
C 728.342354 344.628128 725.158658 352.314249 725.158658 360.327493 
C 725.158658 368.340737 728.342354 376.026857 734.008573 381.693077 
C 739.674792 387.359296 747.360913 390.542991 755.374157 390.542991 
z
" style="fill:#ff6644;stroke:#000000;stroke-linejoin:miter;stroke-width:0.7;"/>
   </g>
   <g id="line2d_1">
    <path clip-path="url(#pbb9472e866)" d="M 122.070606 79.538091 
L 226.143814 183.611299 
" style="fill:none;stroke:#000000;"/>
   </g>
   <g id="line2d_2">
    <path clip-path="url(#pbb9472e866)" d="M 127.736825 73.871872 
L 320.299153 190.421526 
" style="fill:none;stroke:#000000;"/>
   </g>
   <g id="line2d_3">
    <path clip-path="url(#pbb9472e866)" d="M 129.328673 70.028812 
L 419.046644 195.000159 
" style="fill:none;stroke:#000000;"/>
   </g>
   <g id="line2d_4">
    <path clip-path="url(#pbb9472e866)" d="M 130.920521 66.185751 
L 518.007237 199.271935 
" style="fill:none;stroke:#000000;"/>
   </g>
   <g id="line2d_5">
    <path clip-path="url(#pbb9472e866)" d="M 130.920521 66.185751 
L 618.611531 199.641714 
" style="fill:none;stroke:#000000;"/>
   </g>
   <g id="line2d_6">
    <path clip-path="url(#pbb9472e866)" d="M 130.920521 66.185751 
L 719.265827 199.897507 
" style="fill:none;stroke:#000000;"/>
   </g>
   <g id="line2d_7">
    <path clip-path="url(#pbb9472e866)" d="M 130.920521 66.185751 
L 819.94486 200.083965 
" style="fill:none;stroke:#000000;"/>
   </g>
   <g id="line2d_8">
    <path clip-path="url(#pbb9472e866)" d="M 209.436594 88.388006 
L 241.628811 173.383175 
" style="fill:none;stroke:#000000;"/>
   </g>
   <g id="line2d_9">
    <path clip-path="url(#pbb9472e866)" d="M 222.788934 79.538091 
L 326.862142 183.611299 
" style="fill:none;stroke:#000000;"/>
   </g>
   <g id="line2d_10">
    <path clip-path="url(#pbb9472e866)" d="M 228.455153 73.871872 
L 421.017482 190.421526 
" style="fill:none;stroke:#000000;"/>
   </g>
   <g id="line2d_11">
    <path clip-path="url(#pbb9472e866)" d="M 230.047001 70.028812 
L 519.764972 195.000159 
" style="fill:none;stroke:#000000;"/>
   </g>
   <g id="line2d_12">
    <path clip-path="url(#pbb9472e866)" d="M 231.638849 66.185751 
L 618.725566 199.271935 
" style="fill:none;stroke:#000000;"/>
   </g>
   <g id="line2d_13">
    <path clip-path="url(#pbb9472e866)" d="M 231.638849 66.185751 
L 719.32986 199.641714 
" style="fill:none;stroke:#000000;"/>
   </g>
   <g id="line2d_14">
    <path clip-path="url(#pbb9472e866)" d="M 231.638849 66.185751 
L 819.984155 199.897507 
" style="fill:none;stroke:#000000;"/>
   </g>
   <g id="line2d_15">
    <path clip-path="url(#pbb9472e866)" d="M 294.128435 88.388006 
L 261.936218 173.383175 
" style="fill:none;stroke:#000000;"/>
   </g>
   <g id="line2d_16">
    <path clip-path="url(#pbb9472e866)" d="M 310.154923 88.388006 
L 342.34714 173.383175 
" style="fill:none;stroke:#000000;"/>
   </g>
   <g id="line2d_17">
    <path clip-path="url(#pbb9472e866)" d="M 323.507263 79.538091 
L 427.580471 183.611299 
" style="fill:none;stroke:#000000;"/>
   </g>
   <g id="line2d_18">
    <path clip-path="url(#pbb9472e866)" d="M 329.173482 73.871872 
L 521.73581 190.421526 
" style="fill:none;stroke:#000000;"/>
   </g>
   <g id="line2d_19">
    <path clip-path="url(#pbb9472e866)" d="M 330.76533 70.028812 
L 620.483301 195.000159 
" style="fill:none;stroke:#000000;"/>
   </g>
   <g id="line2d_20">
    <path clip-path="url(#pbb9472e866)" d="M 332.357177 66.185751 
L 719.443894 199.271935 
" style="fill:none;stroke:#000000;"/>
   </g>
   <g id="line2d_21">
    <path clip-path="url(#pbb9472e866)" d="M 332.357177 66.185751 
L 820.048188 199.641714 
" style="fill:none;stroke:#000000;"/>
   </g>
   <g id="line2d_22">
    <path clip-path="url(#pbb9472e866)" d="M 381.494423 79.538091 
L 277.421215 183.611299 
" style="fill:none;stroke:#000000;"/>
   </g>
   <g id="line2d_23">
    <path clip-path="url(#pbb9472e866)" d="M 394.846763 88.388006 
L 362.654546 173.383175 
" style="fill:none;stroke:#000000;"/>
   </g>
   <g id="line2d_24">
    <path clip-path="url(#pbb9472e866)" d="M 410.873251 88.388006 
L 443.065468 173.383175 
" style="fill:none;stroke:#000000;"/>
   </g>
   <g id="line2d_25">
    <path clip-path="url(#pbb9472e866)" d="M 424.225591 79.538091 
L 528.298799 183.611299 
" style="fill:none;stroke:#000000;"/>
   </g>
   <g id="line2d_26">
    <path clip-path="url(#pbb9472e866)" d="M 429.89181 73.871872 
L 622.454139 190.421526 
" style="fill:none;stroke:#000000;"/>
   </g>
   <g id="line2d_27">
    <path clip-path="url(#pbb9472e866)" d="M 431.483658 70.028812 
L 721.201629 195.000159 
" style="fill:none;stroke:#000000;"/>
   </g>
   <g id="line2d_28">
    <path clip-path="url(#pbb9472e866)" d="M 433.075506 66.185751 
L 820.162222 199.271935 
" style="fill:none;stroke:#000000;"/>
   </g>
   <g id="line2d_29">
    <path clip-path="url(#pbb9472e866)" d="M 476.546533 73.871872 
L 283.984205 190.421526 
" style="fill:none;stroke:#000000;"/>
   </g>
   <g id="line2d_30">
    <path clip-path="url(#pbb9472e866)" d="M 482.212752 79.538091 
L 378.139544 183.611299 
" style="fill:none;stroke:#000000;"/>
   </g>
   <g id="line2d_31">
    <path clip-path="url(#pbb9472e866)" d="M 495.565092 88.388006 
L 463.372875 173.383175 
" style="fill:none;stroke:#000000;"/>
   </g>
   <g id="line2d_32">
    <path clip-path="url(#pbb9472e866)" d="M 511.59158 88.388006 
L 543.783797 173.383175 
" style="fill:none;stroke:#000000;"/>
   </g>
   <g id="line2d_33">
    <path clip-path="url(#pbb9472e866)" d="M 524.94392 79.538091 
L 629.017128 183.611299 
" style="fill:none;stroke:#000000;"/>
   </g>
   <g id="line2d_34">
    <path clip-path="url(#pbb9472e866)" d="M 530.610139 73.871872 
L 723.172467 190.421526 
" style="fill:none;stroke:#000000;"/>
   </g>
   <g id="line2d_35">
    <path clip-path="url(#pbb9472e866)" d="M 532.201987 70.028812 
L 821.919958 195.000159 
" style="fill:none;stroke:#000000;"/>
   </g>
   <g id="line2d_36">
    <path clip-path="url(#pbb9472e866)" d="M 575.673013 70.028812 
L 285.955042 195.000159 
" style="fill:none;stroke:#000000;"/>
   </g>
   <g id="line2d_37">
    <path clip-path="url(#pbb9472e866)" d="M 577.264861 73.871872 
L 384.702533 190.421526 
" style="fill:none;stroke:#000000;"/>
   </g>
   <g id="line2d_38">
    <path clip-path="url(#pbb9472e866)" d="M 582.93108 79.538091 
L 478.857872 183.611299 
" style="fill:none;stroke:#000000;"/>
   </g>
   <g id="line2d_39">
    <path clip-path="url(#pbb9472e866)" d="M 596.28342 88.388006 
L 564.091203 173.383175 
" style="fill:none;stroke:#000000;"/>
   </g>
   <g id="line2d_40">
    <path clip-path="url(#pbb9472e866)" d="M 612.309908 88.388006 
L 644.502125 173.383175 
" style="fill:none;stroke:#000000;"/>
   </g>
   <g id="line2d_41">
    <path clip-path="url(#pbb9472e866)" d="M 625.662248 79.538091 
L 729.735456 183.611299 
" style="fill:none;stroke:#000000;"/>
   </g>
   <g id="line2d_42">
    <path clip-path="url(#pbb9472e866)" d="M 631.328467 73.871872 
L 823.890795 190.421526 
" style="fill:none;stroke:#000000;"/>
   </g>
   <g id="line2d_43">
    <path clip-path="url(#pbb9472e866)" d="M 674.799494 66.185751 
L 287.712778 199.271935 
" style="fill:none;stroke:#000000;"/>
   </g>
   <g id="line2d_44">
    <path clip-path="url(#pbb9472e866)" d="M 676.391342 70.028812 
L 386.673371 195.000159 
" style="fill:none;stroke:#000000;"/>
   </g>
   <g id="line2d_45">
    <path clip-path="url(#pbb9472e866)" d="M 677.98319 73.871872 
L 485.420861 190.421526 
" style="fill:none;stroke:#000000;"/>
   </g>
   <g id="line2d_46">
    <path clip-path="url(#pbb9472e866)" d="M 683.649409 79.538091 
L 579.576201 183.611299 
" style="fill:none;stroke:#000000;"/>
   </g>
   <g id="line2d_47">
    <path clip-path="url(#pbb9472e866)" d="M 697.001749 88.388006 
L 664.809532 173.383175 
" style="fill:none;stroke:#000000;"/>
   </g>
   <g id="line2d_48">
    <path clip-path="url(#pbb9472e866)" d="M 713.028237 88.388006 
L 745.220454 173.383175 
" style="fill:none;stroke:#000000;"/>
   </g>
   <g id="line2d_49">
    <path clip-path="url(#pbb9472e866)" d="M 726.380577 79.538091 
L 830.453785 183.611299 
" style="fill:none;stroke:#000000;"/>
   </g>
   <g id="line2d_50">
    <path clip-path="url(#pbb9472e866)" d="M 775.517823 66.185751 
L 287.826812 199.641714 
" style="fill:none;stroke:#000000;"/>
   </g>
   <g id="line2d_51">
    <path clip-path="url(#pbb9472e866)" d="M 775.517823 66.185751 
L 388.431106 199.271935 
" style="fill:none;stroke:#000000;"/>
   </g>
   <g id="line2d_52">
    <path clip-path="url(#pbb9472e866)" d="M 777.10967 70.028812 
L 487.391699 195.000159 
" style="fill:none;stroke:#000000;"/>
   </g>
   <g id="line2d_53">
    <path clip-path="url(#pbb9472e866)" d="M 778.701518 73.871872 
L 586.13919 190.421526 
" style="fill:none;stroke:#000000;"/>
   </g>
   <g id="line2d_54">
    <path clip-path="url(#pbb9472e866)" d="M 784.367737 79.538091 
L 680.294529 183.611299 
" style="fill:none;stroke:#000000;"/>
   </g>
   <g id="line2d_55">
    <path clip-path="url(#pbb9472e866)" d="M 797.720077 88.388006 
L 765.52786 173.383175 
" style="fill:none;stroke:#000000;"/>
   </g>
   <g id="line2d_56">
    <path clip-path="url(#pbb9472e866)" d="M 813.746565 88.388006 
L 845.938782 173.383175 
" style="fill:none;stroke:#000000;"/>
   </g>
   <g id="line2d_57">
    <path clip-path="url(#pbb9472e866)" d="M 876.236151 66.185751 
L 287.890845 199.897507 
" style="fill:none;stroke:#000000;"/>
   </g>
   <g id="line2d_58">
    <path clip-path="url(#pbb9472e866)" d="M 876.236151 66.185751 
L 388.54514 199.641714 
" style="fill:none;stroke:#000000;"/>
   </g>
   <g id="line2d_59">
    <path clip-path="url(#pbb9472e866)" d="M 876.236151 66.185751 
L 489.149434 199.271935 
" style="fill:none;stroke:#000000;"/>
   </g>
   <g id="line2d_60">
    <path clip-path="url(#pbb9472e866)" d="M 877.827999 70.028812 
L 588.110028 195.000159 
" style="fill:none;stroke:#000000;"/>
   </g>
   <g id="line2d_61">
    <path clip-path="url(#pbb9472e866)" d="M 879.419847 73.871872 
L 686.857518 190.421526 
" style="fill:none;stroke:#000000;"/>
   </g>
   <g id="line2d_62">
    <path clip-path="url(#pbb9472e866)" d="M 885.086066 79.538091 
L 781.012858 183.611299 
" style="fill:none;stroke:#000000;"/>
   </g>
   <g id="line2d_63">
    <path clip-path="url(#pbb9472e866)" d="M 898.438406 88.388006 
L 866.246189 173.383175 
" style="fill:none;stroke:#000000;"/>
   </g>
   <g id="line2d_64">
    <path clip-path="url(#pbb9472e866)" d="M 976.954479 66.185751 
L 287.93014 200.083965 
" style="fill:none;stroke:#000000;"/>
   </g>
   <g id="line2d_65">
    <path clip-path="url(#pbb9472e866)" d="M 976.954479 66.185751 
L 388.609173 199.897507 
" style="fill:none;stroke:#000000;"/>
   </g>
   <g id="line2d_66">
    <path clip-path="url(#pbb9472e866)" d="M 976.954479 66.185751 
L 489.263469 199.641714 
" style="fill:none;stroke:#000000;"/>
   </g>
   <g id="line2d_67">
    <path clip-path="url(#pbb9472e866)" d="M 976.954479 66.185751 
L 589.867763 199.271935 
" style="fill:none;stroke:#000000;"/>
   </g>
   <g id="line2d_68">
    <path clip-path="url(#pbb9472e866)" d="M 978.546327 70.028812 
L 688.828356 195.000159 
" style="fill:none;stroke:#000000;"/>
   </g>
   <g id="line2d_69">
    <path clip-path="url(#pbb9472e866)" d="M 980.138175 73.871872 
L 787.575847 190.421526 
" style="fill:none;stroke:#000000;"/>
   </g>
   <g id="line2d_70">
    <path clip-path="url(#pbb9472e866)" d="M 985.804394 79.538091 
L 881.731186 183.611299 
" style="fill:none;stroke:#000000;"/>
   </g>
   <g id="line2d_71">
    <path clip-path="url(#pbb9472e866)" d="M 267.481879 236.281803 
L 333.288194 328.378792 
" style="fill:none;stroke:#000000;"/>
   </g>
   <g id="line2d_72">
    <path clip-path="url(#pbb9472e866)" d="M 275.981208 227.782474 
L 424.174367 338.184719 
" style="fill:none;stroke:#000000;"/>
   </g>
   <g id="line2d_73">
    <path clip-path="url(#pbb9472e866)" d="M 278.814318 224.949365 
L 521.462805 342.002488 
" style="fill:none;stroke:#000000;"/>
   </g>
   <g id="line2d_74">
    <path clip-path="url(#pbb9472e866)" d="M 280.406165 221.106304 
L 620.361831 346.381638 
" style="fill:none;stroke:#000000;"/>
   </g>
   <g id="line2d_75">
    <path clip-path="url(#pbb9472e866)" d="M 281.998013 217.263244 
L 719.378023 350.552629 
" style="fill:none;stroke:#000000;"/>
   </g>
   <g id="line2d_76">
    <path clip-path="url(#pbb9472e866)" d="M 352.500843 239.465499 
L 352.500843 324.068894 
" style="fill:none;stroke:#000000;"/>
   </g>
   <g id="line2d_77">
    <path clip-path="url(#pbb9472e866)" d="M 368.200208 236.281803 
L 434.006522 328.378792 
" style="fill:none;stroke:#000000;"/>
   </g>
   <g id="line2d_78">
    <path clip-path="url(#pbb9472e866)" d="M 376.699537 227.782474 
L 524.892695 338.184719 
" style="fill:none;stroke:#000000;"/>
   </g>
   <g id="line2d_79">
    <path clip-path="url(#pbb9472e866)" d="M 379.532646 224.949365 
L 622.181134 342.002488 
" style="fill:none;stroke:#000000;"/>
   </g>
   <g id="line2d_80">
    <path clip-path="url(#pbb9472e866)" d="M 381.124494 221.106304 
L 721.080159 346.381638 
" style="fill:none;stroke:#000000;"/>
   </g>
   <g id="line2d_81">
    <path clip-path="url(#pbb9472e866)" d="M 437.519807 236.281803 
L 371.713493 328.378792 
" style="fill:none;stroke:#000000;"/>
   </g>
   <g id="line2d_82">
    <path clip-path="url(#pbb9472e866)" d="M 453.219172 239.465499 
L 453.219172 324.068894 
" style="fill:none;stroke:#000000;"/>
   </g>
   <g id="line2d_83">
    <path clip-path="url(#pbb9472e866)" d="M 468.918536 236.281803 
L 534.724851 328.378792 
" style="fill:none;stroke:#000000;"/>
   </g>
   <g id="line2d_84">
    <path clip-path="url(#pbb9472e866)" d="M 477.417865 227.782474 
L 625.611024 338.184719 
" style="fill:none;stroke:#000000;"/>
   </g>
   <g id="line2d_85">
    <path clip-path="url(#pbb9472e866)" d="M 480.250975 224.949365 
L 722.899462 342.002488 
" style="fill:none;stroke:#000000;"/>
   </g>
   <g id="line2d_86">
    <path clip-path="url(#pbb9472e866)" d="M 529.738807 227.782474 
L 381.545648 338.184719 
" style="fill:none;stroke:#000000;"/>
   </g>
   <g id="line2d_87">
    <path clip-path="url(#pbb9472e866)" d="M 538.238135 236.281803 
L 472.431821 328.378792 
" style="fill:none;stroke:#000000;"/>
   </g>
   <g id="line2d_88">
    <path clip-path="url(#pbb9472e866)" d="M 553.9375 239.465499 
L 553.9375 324.068894 
" style="fill:none;stroke:#000000;"/>
   </g>
   <g id="line2d_89">
    <path clip-path="url(#pbb9472e866)" d="M 569.636865 236.281803 
L 635.443179 328.378792 
" style="fill:none;stroke:#000000;"/>
   </g>
   <g id="line2d_90">
    <path clip-path="url(#pbb9472e866)" d="M 578.136193 227.782474 
L 726.329352 338.184719 
" style="fill:none;stroke:#000000;"/>
   </g>
   <g id="line2d_91">
    <path clip-path="url(#pbb9472e866)" d="M 627.624025 224.949365 
L 384.975538 342.002488 
" style="fill:none;stroke:#000000;"/>
   </g>
   <g id="line2d_92">
    <path clip-path="url(#pbb9472e866)" d="M 630.457135 227.782474 
L 482.263976 338.184719 
" style="fill:none;stroke:#000000;"/>
   </g>
   <g id="line2d_93">
    <path clip-path="url(#pbb9472e866)" d="M 638.956464 236.281803 
L 573.150149 328.378792 
" style="fill:none;stroke:#000000;"/>
   </g>
   <g id="line2d_94">
    <path clip-path="url(#pbb9472e866)" d="M 654.655828 239.465499 
L 654.655828 324.068894 
" style="fill:none;stroke:#000000;"/>
   </g>
   <g id="line2d_95">
    <path clip-path="url(#pbb9472e866)" d="M 670.355193 236.281803 
L 736.161507 328.378792 
" style="fill:none;stroke:#000000;"/>
   </g>
   <g id="line2d_96">
    <path clip-path="url(#pbb9472e866)" d="M 726.750506 221.106304 
L 386.794841 346.381638 
" style="fill:none;stroke:#000000;"/>
   </g>
   <g id="line2d_97">
    <path clip-path="url(#pbb9472e866)" d="M 728.342354 224.949365 
L 485.693866 342.002488 
" style="fill:none;stroke:#000000;"/>
   </g>
   <g id="line2d_98">
    <path clip-path="url(#pbb9472e866)" d="M 731.175463 227.782474 
L 582.982305 338.184719 
" style="fill:none;stroke:#000000;"/>
   </g>
   <g id="line2d_99">
    <path clip-path="url(#pbb9472e866)" d="M 739.674792 236.281803 
L 673.868478 328.378792 
" style="fill:none;stroke:#000000;"/>
   </g>
   <g id="line2d_100">
    <path clip-path="url(#pbb9472e866)" d="M 755.374157 239.465499 
L 755.374157 324.068894 
" style="fill:none;stroke:#000000;"/>
   </g>
   <g id="line2d_101">
    <path clip-path="url(#pbb9472e866)" d="M 825.876987 217.263244 
L 388.496977 350.552629 
" style="fill:none;stroke:#000000;"/>
   </g>
   <g id="line2d_102">
    <path clip-path="url(#pbb9472e866)" d="M 827.468835 221.106304 
L 487.513169 346.381638 
" style="fill:none;stroke:#000000;"/>
   </g>
   <g id="line2d_103">
    <path clip-path="url(#pbb9472e866)" d="M 829.060682 224.949365 
L 586.412195 342.002488 
" style="fill:none;stroke:#000000;"/>
   </g>
   <g id="line2d_104">
    <path clip-path="url(#pbb9472e866)" d="M 831.893792 227.782474 
L 683.700633 338.184719 
" style="fill:none;stroke:#000000;"/>
   </g>
   <g id="line2d_105">
    <path clip-path="url(#pbb9472e866)" d="M 840.393121 236.281803 
L 774.586806 328.378792 
" style="fill:none;stroke:#000000;"/>
   </g>
   <g id="patch_24">
    <path clip-path="url(#pbb9472e866)" d="M 229.562308 187.029793 
L 223.864819 184.181049 
L 225.289191 182.756677 
L 225.289191 182.756676 
L 225.289191 182.756676 
L 225.289191 182.756677 
L 226.713564 181.332304 
z
" style="stroke:#000000;stroke-linejoin:miter;"/>
   </g>
   <g id="patch_25">
    <path clip-path="url(#pbb9472e866)" d="M 324.435064 192.924814 
L 318.22214 191.519 
L 319.265177 189.795705 
L 319.265176 189.795704 
L 319.265176 189.795704 
L 319.265177 189.795705 
L 320.308213 188.072409 
z
" style="stroke:#000000;stroke-linejoin:miter;"/>
   </g>
   <g id="patch_26">
    <path clip-path="url(#pbb9472e866)" d="M 423.485746 196.914989 
L 417.139024 196.371078 
L 417.936869 194.521452 
L 417.936868 194.521451 
L 417.936868 194.521451 
L 417.936869 194.521452 
L 418.734715 192.671826 
z
" style="stroke:#000000;stroke-linejoin:miter;"/>
   </g>
   <g id="patch_27">
    <path clip-path="url(#pbb9472e866)" d="M 522.57905 200.843792 
L 516.209345 200.783892 
L 516.864285 198.878971 
L 516.864284 198.878971 
L 516.864284 198.878971 
L 516.864285 198.878971 
L 517.519226 196.97405 
z
" style="stroke:#000000;stroke-linejoin:miter;"/>
   </g>
   <g id="patch_28">
    <path clip-path="url(#pbb9472e866)" d="M 623.274571 200.917748 
L 616.914092 201.265638 
L 617.445773 199.322705 
L 617.445772 199.322705 
L 617.445772 199.322705 
L 617.445773 199.322705 
L 617.977453 197.379772 
z
" style="stroke:#000000;stroke-linejoin:miter;"/>
   </g>
   <g id="patch_29">
    <path clip-path="url(#pbb9472e866)" d="M 723.980093 200.968907 
L 717.640845 201.593935 
L 718.087261 199.629658 
L 718.08726 199.629657 
L 718.08726 199.629657 
L 718.087261 199.629658 
L 718.533678 197.66538 
z
" style="stroke:#000000;stroke-linejoin:miter;"/>
   </g>
   <g id="patch_30">
    <path clip-path="url(#pbb9472e866)" d="M 824.690562 201.006198 
L 818.374172 201.830782 
L 818.758436 199.853407 
L 818.758435 199.853407 
L 818.758435 199.853407 
L 818.758436 199.853407 
L 819.1427 197.876031 
z
" style="stroke:#000000;stroke-linejoin:miter;"/>
   </g>
   <g id="patch_31">
    <path clip-path="url(#pbb9472e866)" d="M 243.341179 177.904237 
L 239.316944 172.966398 
L 241.20072 172.252911 
L 241.200719 172.25291 
L 241.200719 172.25291 
L 241.20072 172.252911 
L 243.084495 171.539425 
z
" style="stroke:#000000;stroke-linejoin:miter;"/>
   </g>
   <g id="patch_32">
    <path clip-path="url(#pbb9472e866)" d="M 330.280637 187.029793 
L 324.583148 184.181049 
L 326.00752 182.756677 
L 326.007519 182.756676 
L 326.007519 182.756676 
L 326.00752 182.756677 
L 327.431892 181.332304 
z
" style="stroke:#000000;stroke-linejoin:miter;"/>
   </g>
   <g id="patch_33">
    <path clip-path="url(#pbb9472e866)" d="M 425.153392 192.924814 
L 418.940469 191.519 
L 419.983505 189.795705 
L 419.983504 189.795704 
L 419.983504 189.795704 
L 419.983505 189.795705 
L 421.026542 188.072409 
z
" style="stroke:#000000;stroke-linejoin:miter;"/>
   </g>
   <g id="patch_34">
    <path clip-path="url(#pbb9472e866)" d="M 524.204075 196.914989 
L 517.857352 196.371078 
L 518.655198 194.521452 
L 518.655197 194.521451 
L 518.655197 194.521451 
L 518.655198 194.521452 
L 519.453043 192.671826 
z
" style="stroke:#000000;stroke-linejoin:miter;"/>
   </g>
   <g id="patch_35">
    <path clip-path="url(#pbb9472e866)" d="M 623.297378 200.843792 
L 616.927673 200.783892 
L 617.582614 198.878971 
L 617.582613 198.878971 
L 617.582613 198.878971 
L 617.582614 198.878971 
L 618.237554 196.97405 
z
" style="stroke:#000000;stroke-linejoin:miter;"/>
   </g>
   <g id="patch_36">
    <path clip-path="url(#pbb9472e866)" d="M 723.9929 200.917748 
L 717.63242 201.265638 
L 718.164101 199.322705 
L 718.1641 199.322705 
L 718.1641 199.322705 
L 718.164101 199.322705 
L 718.695782 197.379772 
z
" style="stroke:#000000;stroke-linejoin:miter;"/>
   </g>
   <g id="patch_37">
    <path clip-path="url(#pbb9472e866)" d="M 824.698421 200.968907 
L 818.359173 201.593935 
L 818.80559 199.629658 
L 818.805589 199.629657 
L 818.805589 199.629657 
L 818.80559 199.629658 
L 819.252006 197.66538 
z
" style="stroke:#000000;stroke-linejoin:miter;"/>
   </g>
   <g id="patch_38">
    <path clip-path="url(#pbb9472e866)" d="M 260.22385 177.904237 
L 260.480534 171.539425 
L 262.36431 172.252911 
L 262.36431 172.25291 
L 262.36431 172.25291 
L 262.36431 172.252911 
L 264.248085 172.966398 
z
" style="stroke:#000000;stroke-linejoin:miter;"/>
   </g>
   <g id="patch_39">
    <path clip-path="url(#pbb9472e866)" d="M 344.059508 177.904237 
L 340.035273 172.966398 
L 341.919048 172.252911 
L 341.919048 172.25291 
L 341.919048 172.25291 
L 341.919048 172.252911 
L 343.802824 171.539425 
z
" style="stroke:#000000;stroke-linejoin:miter;"/>
   </g>
   <g id="patch_40">
    <path clip-path="url(#pbb9472e866)" d="M 430.998965 187.029793 
L 425.301476 184.181049 
L 426.725848 182.756677 
L 426.725848 182.756676 
L 426.725848 182.756676 
L 426.725848 182.756677 
L 428.15022 181.332304 
z
" style="stroke:#000000;stroke-linejoin:miter;"/>
   </g>
   <g id="patch_41">
    <path clip-path="url(#pbb9472e866)" d="M 525.87172 192.924814 
L 519.658797 191.519 
L 520.701834 189.795705 
L 520.701833 189.795704 
L 520.701833 189.795704 
L 520.701834 189.795705 
L 521.74487 188.072409 
z
" style="stroke:#000000;stroke-linejoin:miter;"/>
   </g>
   <g id="patch_42">
    <path clip-path="url(#pbb9472e866)" d="M 624.922403 196.914989 
L 618.575681 196.371078 
L 619.373526 194.521452 
L 619.373525 194.521451 
L 619.373525 194.521451 
L 619.373526 194.521452 
L 620.171372 192.671826 
z
" style="stroke:#000000;stroke-linejoin:miter;"/>
   </g>
   <g id="patch_43">
    <path clip-path="url(#pbb9472e866)" d="M 724.015706 200.843792 
L 717.646002 200.783892 
L 718.300942 198.878971 
L 718.300941 198.878971 
L 718.300941 198.878971 
L 718.300942 198.878971 
L 718.955882 196.97405 
z
" style="stroke:#000000;stroke-linejoin:miter;"/>
   </g>
   <g id="patch_44">
    <path clip-path="url(#pbb9472e866)" d="M 824.711228 200.917748 
L 818.350749 201.265638 
L 818.882429 199.322705 
L 818.882428 199.322705 
L 818.882428 199.322705 
L 818.882429 199.322705 
L 819.41411 197.379772 
z
" style="stroke:#000000;stroke-linejoin:miter;"/>
   </g>
   <g id="patch_45">
    <path clip-path="url(#pbb9472e866)" d="M 274.002721 187.029793 
L 276.851466 181.332304 
L 278.275838 182.756677 
L 278.275839 182.756676 
L 278.275839 182.756676 
L 278.275838 182.756677 
L 279.70021 184.181049 
z
" style="stroke:#000000;stroke-linejoin:miter;"/>
   </g>
   <g id="patch_46">
    <path clip-path="url(#pbb9472e866)" d="M 360.942179 177.904237 
L 361.198863 171.539425 
L 363.082638 172.252911 
L 363.082638 172.25291 
L 363.082638 172.25291 
L 363.082638 172.252911 
L 364.966413 172.966398 
z
" style="stroke:#000000;stroke-linejoin:miter;"/>
   </g>
   <g id="patch_47">
    <path clip-path="url(#pbb9472e866)" d="M 444.777836 177.904237 
L 440.753601 172.966398 
L 442.637377 172.252911 
L 442.637376 172.25291 
L 442.637376 172.25291 
L 442.637377 172.252911 
L 444.521152 171.539425 
z
" style="stroke:#000000;stroke-linejoin:miter;"/>
   </g>
   <g id="patch_48">
    <path clip-path="url(#pbb9472e866)" d="M 531.717293 187.029793 
L 526.019804 184.181049 
L 527.444177 182.756677 
L 527.444176 182.756676 
L 527.444176 182.756676 
L 527.444177 182.756677 
L 528.868549 181.332304 
z
" style="stroke:#000000;stroke-linejoin:miter;"/>
   </g>
   <g id="patch_49">
    <path clip-path="url(#pbb9472e866)" d="M 626.590049 192.924814 
L 620.377126 191.519 
L 621.420162 189.795705 
L 621.420161 189.795704 
L 621.420161 189.795704 
L 621.420162 189.795705 
L 622.463198 188.072409 
z
" style="stroke:#000000;stroke-linejoin:miter;"/>
   </g>
   <g id="patch_50">
    <path clip-path="url(#pbb9472e866)" d="M 725.640732 196.914989 
L 719.294009 196.371078 
L 720.091855 194.521452 
L 720.091854 194.521451 
L 720.091854 194.521451 
L 720.091855 194.521452 
L 720.8897 192.671826 
z
" style="stroke:#000000;stroke-linejoin:miter;"/>
   </g>
   <g id="patch_51">
    <path clip-path="url(#pbb9472e866)" d="M 824.734035 200.843792 
L 818.36433 200.783892 
L 819.019271 198.878971 
L 819.01927 198.878971 
L 819.01927 198.878971 
L 819.019271 198.878971 
L 819.674211 196.97405 
z
" style="stroke:#000000;stroke-linejoin:miter;"/>
   </g>
   <g id="patch_52">
    <path clip-path="url(#pbb9472e866)" d="M 279.848294 192.924814 
L 283.975145 188.072409 
L 285.018181 189.795705 
L 285.018182 189.795704 
L 285.018182 189.795704 
L 285.018181 189.795705 
L 286.061217 191.519 
z
" style="stroke:#000000;stroke-linejoin:miter;"/>
   </g>
   <g id="patch_53">
    <path clip-path="url(#pbb9472e866)" d="M 374.72105 187.029793 
L 377.569794 181.332304 
L 378.994166 182.756677 
L 378.994167 182.756676 
L 378.994167 182.756676 
L 378.994166 182.756677 
L 380.418539 184.181049 
z
" style="stroke:#000000;stroke-linejoin:miter;"/>
   </g>
   <g id="patch_54">
    <path clip-path="url(#pbb9472e866)" d="M 461.660507 177.904237 
L 461.917191 171.539425 
L 463.800966 172.252911 
L 463.800967 172.25291 
L 463.800967 172.25291 
L 463.800966 172.252911 
L 465.684742 172.966398 
z
" style="stroke:#000000;stroke-linejoin:miter;"/>
   </g>
   <g id="patch_55">
    <path clip-path="url(#pbb9472e866)" d="M 545.496165 177.904237 
L 541.47193 172.966398 
L 543.355705 172.252911 
L 543.355705 172.25291 
L 543.355705 172.25291 
L 543.355705 172.252911 
L 545.23948 171.539425 
z
" style="stroke:#000000;stroke-linejoin:miter;"/>
   </g>
   <g id="patch_56">
    <path clip-path="url(#pbb9472e866)" d="M 632.435622 187.029793 
L 626.738133 184.181049 
L 628.162505 182.756677 
L 628.162504 182.756676 
L 628.162504 182.756676 
L 628.162505 182.756677 
L 629.586877 181.332304 
z
" style="stroke:#000000;stroke-linejoin:miter;"/>
   </g>
   <g id="patch_57">
    <path clip-path="url(#pbb9472e866)" d="M 727.308377 192.924814 
L 721.095454 191.519 
L 722.13849 189.795705 
L 722.13849 189.795704 
L 722.13849 189.795704 
L 722.13849 189.795705 
L 723.181527 188.072409 
z
" style="stroke:#000000;stroke-linejoin:miter;"/>
   </g>
   <g id="patch_58">
    <path clip-path="url(#pbb9472e866)" d="M 826.35906 196.914989 
L 820.012338 196.371078 
L 820.810183 194.521452 
L 820.810182 194.521451 
L 820.810182 194.521451 
L 820.810183 194.521452 
L 821.608029 192.671826 
z
" style="stroke:#000000;stroke-linejoin:miter;"/>
   </g>
   <g id="patch_59">
    <path clip-path="url(#pbb9472e866)" d="M 281.51594 196.914989 
L 286.266971 192.671826 
L 287.064817 194.521452 
L 287.064818 194.521451 
L 287.064818 194.521451 
L 287.064817 194.521452 
L 287.862662 196.371078 
z
" style="stroke:#000000;stroke-linejoin:miter;"/>
   </g>
   <g id="patch_60">
    <path clip-path="url(#pbb9472e866)" d="M 380.566623 192.924814 
L 384.693473 188.072409 
L 385.73651 189.795705 
L 385.73651 189.795704 
L 385.73651 189.795704 
L 385.73651 189.795705 
L 386.779546 191.519 
z
" style="stroke:#000000;stroke-linejoin:miter;"/>
   </g>
   <g id="patch_61">
    <path clip-path="url(#pbb9472e866)" d="M 475.439378 187.029793 
L 478.288123 181.332304 
L 479.712495 182.756677 
L 479.712496 182.756676 
L 479.712496 182.756676 
L 479.712495 182.756677 
L 481.136867 184.181049 
z
" style="stroke:#000000;stroke-linejoin:miter;"/>
   </g>
   <g id="patch_62">
    <path clip-path="url(#pbb9472e866)" d="M 562.378835 177.904237 
L 562.63552 171.539425 
L 564.519295 172.252911 
L 564.519295 172.25291 
L 564.519295 172.25291 
L 564.519295 172.252911 
L 566.40307 172.966398 
z
" style="stroke:#000000;stroke-linejoin:miter;"/>
   </g>
   <g id="patch_63">
    <path clip-path="url(#pbb9472e866)" d="M 646.214493 177.904237 
L 642.190258 172.966398 
L 644.074034 172.252911 
L 644.074033 172.25291 
L 644.074033 172.25291 
L 644.074034 172.252911 
L 645.957809 171.539425 
z
" style="stroke:#000000;stroke-linejoin:miter;"/>
   </g>
   <g id="patch_64">
    <path clip-path="url(#pbb9472e866)" d="M 733.15395 187.029793 
L 727.456461 184.181049 
L 728.880834 182.756677 
L 728.880833 182.756676 
L 728.880833 182.756676 
L 728.880834 182.756677 
L 730.305206 181.332304 
z
" style="stroke:#000000;stroke-linejoin:miter;"/>
   </g>
   <g id="patch_65">
    <path clip-path="url(#pbb9472e866)" d="M 828.026706 192.924814 
L 821.813783 191.519 
L 822.856819 189.795705 
L 822.856818 189.795704 
L 822.856818 189.795704 
L 822.856819 189.795705 
L 823.899855 188.072409 
z
" style="stroke:#000000;stroke-linejoin:miter;"/>
   </g>
   <g id="patch_66">
    <path clip-path="url(#pbb9472e866)" d="M 283.140965 200.843792 
L 288.200789 196.97405 
L 288.855729 198.878971 
L 288.85573 198.878971 
L 288.85573 198.878971 
L 288.855729 198.878971 
L 289.51067 200.783892 
z
" style="stroke:#000000;stroke-linejoin:miter;"/>
   </g>
   <g id="patch_67">
    <path clip-path="url(#pbb9472e866)" d="M 382.234268 196.914989 
L 386.9853 192.671826 
L 387.783145 194.521452 
L 387.783146 194.521451 
L 387.783146 194.521451 
L 387.783145 194.521452 
L 388.580991 196.371078 
z
" style="stroke:#000000;stroke-linejoin:miter;"/>
   </g>
   <g id="patch_68">
    <path clip-path="url(#pbb9472e866)" d="M 481.284951 192.924814 
L 485.411802 188.072409 
L 486.454838 189.795705 
L 486.454839 189.795704 
L 486.454839 189.795704 
L 486.454838 189.795705 
L 487.497874 191.519 
z
" style="stroke:#000000;stroke-linejoin:miter;"/>
   </g>
   <g id="patch_69">
    <path clip-path="url(#pbb9472e866)" d="M 576.157707 187.029793 
L 579.006451 181.332304 
L 580.430823 182.756677 
L 580.430824 182.756676 
L 580.430824 182.756676 
L 580.430823 182.756677 
L 581.855196 184.181049 
z
" style="stroke:#000000;stroke-linejoin:miter;"/>
   </g>
   <g id="patch_70">
    <path clip-path="url(#pbb9472e866)" d="M 663.097164 177.904237 
L 663.353848 171.539425 
L 665.237623 172.252911 
L 665.237624 172.25291 
L 665.237624 172.25291 
L 665.237623 172.252911 
L 667.121399 172.966398 
z
" style="stroke:#000000;stroke-linejoin:miter;"/>
   </g>
   <g id="patch_71">
    <path clip-path="url(#pbb9472e866)" d="M 746.932821 177.904237 
L 742.908587 172.966398 
L 744.792362 172.252911 
L 744.792362 172.25291 
L 744.792362 172.25291 
L 744.792362 172.252911 
L 746.676137 171.539425 
z
" style="stroke:#000000;stroke-linejoin:miter;"/>
   </g>
   <g id="patch_72">
    <path clip-path="url(#pbb9472e866)" d="M 833.872279 187.029793 
L 828.17479 184.181049 
L 829.599162 182.756677 
L 829.599161 182.756676 
L 829.599161 182.756676 
L 829.599162 182.756677 
L 831.023534 181.332304 
z
" style="stroke:#000000;stroke-linejoin:miter;"/>
   </g>
   <g id="patch_73">
    <path clip-path="url(#pbb9472e866)" d="M 283.163772 200.917748 
L 288.46089 197.379772 
L 288.992571 199.322705 
L 288.992572 199.322705 
L 288.992572 199.322705 
L 288.992571 199.322705 
L 289.524251 201.265638 
z
" style="stroke:#000000;stroke-linejoin:miter;"/>
   </g>
   <g id="patch_74">
    <path clip-path="url(#pbb9472e866)" d="M 383.859294 200.843792 
L 388.919118 196.97405 
L 389.574058 198.878971 
L 389.574059 198.878971 
L 389.574059 198.878971 
L 389.574058 198.878971 
L 390.228998 200.783892 
z
" style="stroke:#000000;stroke-linejoin:miter;"/>
   </g>
   <g id="patch_75">
    <path clip-path="url(#pbb9472e866)" d="M 482.952597 196.914989 
L 487.703628 192.671826 
L 488.501474 194.521452 
L 488.501475 194.521451 
L 488.501475 194.521451 
L 488.501474 194.521452 
L 489.299319 196.371078 
z
" style="stroke:#000000;stroke-linejoin:miter;"/>
   </g>
   <g id="patch_76">
    <path clip-path="url(#pbb9472e866)" d="M 582.00328 192.924814 
L 586.13013 188.072409 
L 587.173166 189.795705 
L 587.173167 189.795704 
L 587.173167 189.795704 
L 587.173166 189.795705 
L 588.216203 191.519 
z
" style="stroke:#000000;stroke-linejoin:miter;"/>
   </g>
   <g id="patch_77">
    <path clip-path="url(#pbb9472e866)" d="M 676.876035 187.029793 
L 679.72478 181.332304 
L 681.149152 182.756677 
L 681.149152 182.756676 
L 681.149152 182.756676 
L 681.149152 182.756677 
L 682.573524 184.181049 
z
" style="stroke:#000000;stroke-linejoin:miter;"/>
   </g>
   <g id="patch_78">
    <path clip-path="url(#pbb9472e866)" d="M 763.815492 177.904237 
L 764.072176 171.539425 
L 765.955952 172.252911 
L 765.955952 172.25291 
L 765.955952 172.25291 
L 765.955952 172.252911 
L 767.839727 172.966398 
z
" style="stroke:#000000;stroke-linejoin:miter;"/>
   </g>
   <g id="patch_79">
    <path clip-path="url(#pbb9472e866)" d="M 847.65115 177.904237 
L 843.626915 172.966398 
L 845.51069 172.252911 
L 845.51069 172.25291 
L 845.51069 172.25291 
L 845.51069 172.252911 
L 847.394466 171.539425 
z
" style="stroke:#000000;stroke-linejoin:miter;"/>
   </g>
   <g id="patch_80">
    <path clip-path="url(#pbb9472e866)" d="M 283.176579 200.968907 
L 288.622994 197.66538 
L 289.06941 199.629658 
L 289.069411 199.629657 
L 289.069411 199.629657 
L 289.06941 199.629658 
L 289.515827 201.593935 
z
" style="stroke:#000000;stroke-linejoin:miter;"/>
   </g>
   <g id="patch_81">
    <path clip-path="url(#pbb9472e866)" d="M 383.8821 200.917748 
L 389.179218 197.379772 
L 389.710899 199.322705 
L 389.7109 199.322705 
L 389.7109 199.322705 
L 389.710899 199.322705 
L 390.24258 201.265638 
z
" style="stroke:#000000;stroke-linejoin:miter;"/>
   </g>
   <g id="patch_82">
    <path clip-path="url(#pbb9472e866)" d="M 484.577622 200.843792 
L 489.637446 196.97405 
L 490.292386 198.878971 
L 490.292387 198.878971 
L 490.292387 198.878971 
L 490.292386 198.878971 
L 490.947327 200.783892 
z
" style="stroke:#000000;stroke-linejoin:miter;"/>
   </g>
   <g id="patch_83">
    <path clip-path="url(#pbb9472e866)" d="M 583.670925 196.914989 
L 588.421957 192.671826 
L 589.219802 194.521452 
L 589.219803 194.521451 
L 589.219803 194.521451 
L 589.219802 194.521452 
L 590.017648 196.371078 
z
" style="stroke:#000000;stroke-linejoin:miter;"/>
   </g>
   <g id="patch_84">
    <path clip-path="url(#pbb9472e866)" d="M 682.721608 192.924814 
L 686.848458 188.072409 
L 687.891495 189.795705 
L 687.891496 189.795704 
L 687.891496 189.795704 
L 687.891495 189.795705 
L 688.934531 191.519 
z
" style="stroke:#000000;stroke-linejoin:miter;"/>
   </g>
   <g id="patch_85">
    <path clip-path="url(#pbb9472e866)" d="M 777.594363 187.029793 
L 780.443108 181.332304 
L 781.86748 182.756677 
L 781.867481 182.756676 
L 781.867481 182.756676 
L 781.86748 182.756677 
L 783.291852 184.181049 
z
" style="stroke:#000000;stroke-linejoin:miter;"/>
   </g>
   <g id="patch_86">
    <path clip-path="url(#pbb9472e866)" d="M 864.533821 177.904237 
L 864.790505 171.539425 
L 866.67428 172.252911 
L 866.674281 172.25291 
L 866.674281 172.25291 
L 866.67428 172.252911 
L 868.558056 172.966398 
z
" style="stroke:#000000;stroke-linejoin:miter;"/>
   </g>
   <g id="patch_87">
    <path clip-path="url(#pbb9472e866)" d="M 283.184438 201.006198 
L 288.7323 197.876031 
L 289.116564 199.853407 
L 289.116565 199.853407 
L 289.116565 199.853407 
L 289.116564 199.853407 
L 289.500828 201.830782 
z
" style="stroke:#000000;stroke-linejoin:miter;"/>
   </g>
   <g id="patch_88">
    <path clip-path="url(#pbb9472e866)" d="M 383.894907 200.968907 
L 389.341322 197.66538 
L 389.787739 199.629658 
L 389.78774 199.629657 
L 389.78774 199.629657 
L 389.787739 199.629658 
L 390.234155 201.593935 
z
" style="stroke:#000000;stroke-linejoin:miter;"/>
   </g>
   <g id="patch_89">
    <path clip-path="url(#pbb9472e866)" d="M 484.600429 200.917748 
L 489.897547 197.379772 
L 490.429227 199.322705 
L 490.429228 199.322705 
L 490.429228 199.322705 
L 490.429227 199.322705 
L 490.960908 201.265638 
z
" style="stroke:#000000;stroke-linejoin:miter;"/>
   </g>
   <g id="patch_90">
    <path clip-path="url(#pbb9472e866)" d="M 585.29595 200.843792 
L 590.355774 196.97405 
L 591.010715 198.878971 
L 591.010716 198.878971 
L 591.010716 198.878971 
L 591.010715 198.878971 
L 591.665655 200.783892 
z
" style="stroke:#000000;stroke-linejoin:miter;"/>
   </g>
   <g id="patch_91">
    <path clip-path="url(#pbb9472e866)" d="M 684.389254 196.914989 
L 689.140285 192.671826 
L 689.938131 194.521452 
L 689.938132 194.521451 
L 689.938132 194.521451 
L 689.938131 194.521452 
L 690.735976 196.371078 
z
" style="stroke:#000000;stroke-linejoin:miter;"/>
   </g>
   <g id="patch_92">
    <path clip-path="url(#pbb9472e866)" d="M 783.439936 192.924814 
L 787.566787 188.072409 
L 788.609823 189.795705 
L 788.609824 189.795704 
L 788.609824 189.795704 
L 788.609823 189.795705 
L 789.65286 191.519 
z
" style="stroke:#000000;stroke-linejoin:miter;"/>
   </g>
   <g id="patch_93">
    <path clip-path="url(#pbb9472e866)" d="M 878.312692 187.029793 
L 881.161436 181.332304 
L 882.585809 182.756677 
L 882.585809 182.756676 
L 882.585809 182.756676 
L 882.585809 182.756677 
L 884.010181 184.181049 
z
" style="stroke:#000000;stroke-linejoin:miter;"/>
   </g>
   <g id="patch_94">
    <path clip-path="url(#pbb9472e866)" d="M 336.098822 332.312311 
L 330.946571 328.566508 
L 332.585537 327.395413 
L 332.585537 327.395412 
L 332.585537 327.395412 
L 332.585537 327.395413 
L 334.224503 326.224318 
z
" style="stroke:#000000;stroke-linejoin:miter;"/>
   </g>
   <g id="patch_95">
    <path clip-path="url(#pbb9472e866)" d="M 428.051257 341.072959 
L 422.001712 339.078031 
L 423.205145 337.46266 
L 423.205144 337.46266 
L 423.205144 337.46266 
L 423.205145 337.46266 
L 424.408578 335.84729 
z
" style="stroke:#000000;stroke-linejoin:miter;"/>
   </g>
   <g id="patch_96">
    <path clip-path="url(#pbb9472e866)" d="M 525.81712 344.103 
L 519.499015 343.291658 
L 520.374228 341.477361 
L 520.374227 341.47736 
L 520.374227 341.47736 
L 520.374228 341.477361 
L 521.249441 339.663063 
z
" style="stroke:#000000;stroke-linejoin:miter;"/>
   </g>
   <g id="patch_97">
    <path clip-path="url(#pbb9472e866)" d="M 624.898109 348.053279 
L 618.531246 347.853843 
L 619.227763 345.963728 
L 619.227762 345.963728 
L 619.227762 345.963728 
L 619.227763 345.963728 
L 619.924279 344.073612 
z
" style="stroke:#000000;stroke-linejoin:miter;"/>
   </g>
   <g id="patch_98">
    <path clip-path="url(#pbb9472e866)" d="M 724.002532 351.961925 
L 717.63469 352.127184 
L 718.221896 350.200305 
L 718.221896 350.200305 
L 718.221896 350.200305 
L 718.221896 350.200305 
L 718.809103 348.273427 
z
" style="stroke:#000000;stroke-linejoin:miter;"/>
   </g>
   <g id="patch_99">
    <path clip-path="url(#pbb9472e866)" d="M 352.500843 328.903375 
L 350.486477 322.860275 
L 352.500843 322.860275 
L 352.500843 322.860274 
L 352.500843 322.860274 
L 352.500843 322.860275 
L 354.51521 322.860275 
z
" style="stroke:#000000;stroke-linejoin:miter;"/>
   </g>
   <g id="patch_100">
    <path clip-path="url(#pbb9472e866)" d="M 436.81715 332.312311 
L 431.6649 328.566508 
L 433.303866 327.395413 
L 433.303865 327.395412 
L 433.303865 327.395412 
L 433.303866 327.395413 
L 434.942832 326.224318 
z
" style="stroke:#000000;stroke-linejoin:miter;"/>
   </g>
   <g id="patch_101">
    <path clip-path="url(#pbb9472e866)" d="M 528.769585 341.072959 
L 522.720041 339.078031 
L 523.923474 337.46266 
L 523.923473 337.46266 
L 523.923473 337.46266 
L 523.923474 337.46266 
L 525.126907 335.84729 
z
" style="stroke:#000000;stroke-linejoin:miter;"/>
   </g>
   <g id="patch_102">
    <path clip-path="url(#pbb9472e866)" d="M 626.535448 344.103 
L 620.217343 343.291658 
L 621.092556 341.477361 
L 621.092555 341.47736 
L 621.092555 341.47736 
L 621.092556 341.477361 
L 621.967769 339.663063 
z
" style="stroke:#000000;stroke-linejoin:miter;"/>
   </g>
   <g id="patch_103">
    <path clip-path="url(#pbb9472e866)" d="M 725.616438 348.053279 
L 719.249574 347.853843 
L 719.946091 345.963728 
L 719.94609 345.963728 
L 719.94609 345.963728 
L 719.946091 345.963728 
L 720.642608 344.073612 
z
" style="stroke:#000000;stroke-linejoin:miter;"/>
   </g>
   <g id="patch_104">
    <path clip-path="url(#pbb9472e866)" d="M 368.902864 332.312311 
L 370.777183 326.224318 
L 372.416149 327.395413 
L 372.416149 327.395412 
L 372.416149 327.395412 
L 372.416149 327.395413 
L 374.055115 328.566508 
z
" style="stroke:#000000;stroke-linejoin:miter;"/>
   </g>
   <g id="patch_105">
    <path clip-path="url(#pbb9472e866)" d="M 453.219172 328.903375 
L 451.204805 322.860275 
L 453.219172 322.860275 
L 453.219172 322.860274 
L 453.219172 322.860274 
L 453.219172 322.860275 
L 455.233538 322.860275 
z
" style="stroke:#000000;stroke-linejoin:miter;"/>
   </g>
   <g id="patch_106">
    <path clip-path="url(#pbb9472e866)" d="M 537.535479 332.312311 
L 532.383228 328.566508 
L 534.022194 327.395413 
L 534.022194 327.395412 
L 534.022194 327.395412 
L 534.022194 327.395413 
L 535.66116 326.224318 
z
" style="stroke:#000000;stroke-linejoin:miter;"/>
   </g>
   <g id="patch_107">
    <path clip-path="url(#pbb9472e866)" d="M 629.487914 341.072959 
L 623.438369 339.078031 
L 624.641802 337.46266 
L 624.641801 337.46266 
L 624.641801 337.46266 
L 624.641802 337.46266 
L 625.845235 335.84729 
z
" style="stroke:#000000;stroke-linejoin:miter;"/>
   </g>
   <g id="patch_108">
    <path clip-path="url(#pbb9472e866)" d="M 727.253776 344.103 
L 720.935671 343.291658 
L 721.810885 341.477361 
L 721.810884 341.47736 
L 721.810884 341.47736 
L 721.810885 341.477361 
L 722.686098 339.663063 
z
" style="stroke:#000000;stroke-linejoin:miter;"/>
   </g>
   <g id="patch_109">
    <path clip-path="url(#pbb9472e866)" d="M 377.668758 341.072959 
L 381.311437 335.84729 
L 382.51487 337.46266 
L 382.51487 337.46266 
L 382.51487 337.46266 
L 382.51487 337.46266 
L 383.718302 339.078031 
z
" style="stroke:#000000;stroke-linejoin:miter;"/>
   </g>
   <g id="patch_110">
    <path clip-path="url(#pbb9472e866)" d="M 469.621193 332.312311 
L 471.495511 326.224318 
L 473.134477 327.395413 
L 473.134478 327.395412 
L 473.134478 327.395412 
L 473.134477 327.395413 
L 474.773443 328.566508 
z
" style="stroke:#000000;stroke-linejoin:miter;"/>
   </g>
   <g id="patch_111">
    <path clip-path="url(#pbb9472e866)" d="M 553.9375 328.903375 
L 551.923133 322.860275 
L 553.9375 322.860275 
L 553.9375 322.860274 
L 553.9375 322.860274 
L 553.9375 322.860275 
L 555.951867 322.860275 
z
" style="stroke:#000000;stroke-linejoin:miter;"/>
   </g>
   <g id="patch_112">
    <path clip-path="url(#pbb9472e866)" d="M 638.253807 332.312311 
L 633.101557 328.566508 
L 634.740523 327.395413 
L 634.740522 327.395412 
L 634.740522 327.395412 
L 634.740523 327.395413 
L 636.379489 326.224318 
z
" style="stroke:#000000;stroke-linejoin:miter;"/>
   </g>
   <g id="patch_113">
    <path clip-path="url(#pbb9472e866)" d="M 730.206242 341.072959 
L 724.156698 339.078031 
L 725.36013 337.46266 
L 725.36013 337.46266 
L 725.36013 337.46266 
L 725.36013 337.46266 
L 726.563563 335.84729 
z
" style="stroke:#000000;stroke-linejoin:miter;"/>
   </g>
   <g id="patch_114">
    <path clip-path="url(#pbb9472e866)" d="M 380.621224 344.103 
L 385.188902 339.663063 
L 386.064115 341.477361 
L 386.064116 341.47736 
L 386.064116 341.47736 
L 386.064115 341.477361 
L 386.939329 343.291658 
z
" style="stroke:#000000;stroke-linejoin:miter;"/>
   </g>
   <g id="patch_115">
    <path clip-path="url(#pbb9472e866)" d="M 478.387086 341.072959 
L 482.029765 335.84729 
L 483.233198 337.46266 
L 483.233199 337.46266 
L 483.233199 337.46266 
L 483.233198 337.46266 
L 484.436631 339.078031 
z
" style="stroke:#000000;stroke-linejoin:miter;"/>
   </g>
   <g id="patch_116">
    <path clip-path="url(#pbb9472e866)" d="M 570.339521 332.312311 
L 572.21384 326.224318 
L 573.852806 327.395413 
L 573.852806 327.395412 
L 573.852806 327.395412 
L 573.852806 327.395413 
L 575.491772 328.566508 
z
" style="stroke:#000000;stroke-linejoin:miter;"/>
   </g>
   <g id="patch_117">
    <path clip-path="url(#pbb9472e866)" d="M 654.655828 328.903375 
L 652.641462 322.860275 
L 654.655828 322.860275 
L 654.655828 322.860274 
L 654.655828 322.860274 
L 654.655828 322.860275 
L 656.670195 322.860275 
z
" style="stroke:#000000;stroke-linejoin:miter;"/>
   </g>
   <g id="patch_118">
    <path clip-path="url(#pbb9472e866)" d="M 738.972136 332.312311 
L 733.819885 328.566508 
L 735.458851 327.395413 
L 735.458851 327.395412 
L 735.458851 327.395412 
L 735.458851 327.395413 
L 737.097817 326.224318 
z
" style="stroke:#000000;stroke-linejoin:miter;"/>
   </g>
   <g id="patch_119">
    <path clip-path="url(#pbb9472e866)" d="M 382.258562 348.053279 
L 387.232392 344.073612 
L 387.928909 345.963728 
L 387.92891 345.963728 
L 387.92891 345.963728 
L 387.928909 345.963728 
L 388.625426 347.853843 
z
" style="stroke:#000000;stroke-linejoin:miter;"/>
   </g>
   <g id="patch_120">
    <path clip-path="url(#pbb9472e866)" d="M 481.339552 344.103 
L 485.907231 339.663063 
L 486.782444 341.477361 
L 486.782445 341.47736 
L 486.782445 341.47736 
L 486.782444 341.477361 
L 487.657657 343.291658 
z
" style="stroke:#000000;stroke-linejoin:miter;"/>
   </g>
   <g id="patch_121">
    <path clip-path="url(#pbb9472e866)" d="M 579.105415 341.072959 
L 582.748093 335.84729 
L 583.951526 337.46266 
L 583.951527 337.46266 
L 583.951527 337.46266 
L 583.951526 337.46266 
L 585.154959 339.078031 
z
" style="stroke:#000000;stroke-linejoin:miter;"/>
   </g>
   <g id="patch_122">
    <path clip-path="url(#pbb9472e866)" d="M 671.05785 332.312311 
L 672.932168 326.224318 
L 674.571134 327.395413 
L 674.571135 327.395412 
L 674.571135 327.395412 
L 674.571134 327.395413 
L 676.2101 328.566508 
z
" style="stroke:#000000;stroke-linejoin:miter;"/>
   </g>
   <g id="patch_123">
    <path clip-path="url(#pbb9472e866)" d="M 755.374157 328.903375 
L 753.35979 322.860275 
L 755.374157 322.860275 
L 755.374157 322.860274 
L 755.374157 322.860274 
L 755.374157 322.860275 
L 757.388523 322.860275 
z
" style="stroke:#000000;stroke-linejoin:miter;"/>
   </g>
   <g id="patch_124">
    <path clip-path="url(#pbb9472e866)" d="M 383.872468 351.961925 
L 389.065897 348.273427 
L 389.653104 350.200305 
L 389.653104 350.200305 
L 389.653104 350.200305 
L 389.653104 350.200305 
L 390.24031 352.127184 
z
" style="stroke:#000000;stroke-linejoin:miter;"/>
   </g>
   <g id="patch_125">
    <path clip-path="url(#pbb9472e866)" d="M 482.976891 348.053279 
L 487.950721 344.073612 
L 488.647237 345.963728 
L 488.647238 345.963728 
L 488.647238 345.963728 
L 488.647237 345.963728 
L 489.343754 347.853843 
z
" style="stroke:#000000;stroke-linejoin:miter;"/>
   </g>
   <g id="patch_126">
    <path clip-path="url(#pbb9472e866)" d="M 582.05788 344.103 
L 586.625559 339.663063 
L 587.500772 341.477361 
L 587.500773 341.47736 
L 587.500773 341.47736 
L 587.500772 341.477361 
L 588.375985 343.291658 
z
" style="stroke:#000000;stroke-linejoin:miter;"/>
   </g>
   <g id="patch_127">
    <path clip-path="url(#pbb9472e866)" d="M 679.823743 341.072959 
L 683.466422 335.84729 
L 684.669855 337.46266 
L 684.669856 337.46266 
L 684.669856 337.46266 
L 684.669855 337.46266 
L 685.873288 339.078031 
z
" style="stroke:#000000;stroke-linejoin:miter;"/>
   </g>
   <g id="patch_128">
    <path clip-path="url(#pbb9472e866)" d="M 771.776178 332.312311 
L 773.650497 326.224318 
L 775.289463 327.395413 
L 775.289463 327.395412 
L 775.289463 327.395412 
L 775.289463 327.395413 
L 776.928429 328.566508 
z
" style="stroke:#000000;stroke-linejoin:miter;"/>
   </g>
   <g id="text_1">
    <!-- $a_{0}^{(0)}$ -->
    <defs>
     <path d="M 53.71875 31.203125 
L 47.609375 0 
L 38.625 0 
L 40.28125 8.296875 
Q 36.328125 3.421875 31.265625 1 
Q 26.21875 -1.421875 20.015625 -1.421875 
Q 13.03125 -1.421875 8.5625 2.84375 
Q 4.109375 7.125 4.109375 13.8125 
Q 4.109375 23.390625 11.75 28.953125 
Q 19.390625 34.515625 32.8125 34.515625 
L 45.3125 34.515625 
L 45.796875 36.921875 
Q 45.90625 37.3125 45.953125 37.765625 
Q 46 38.234375 46 39.203125 
Q 46 43.5625 42.453125 45.96875 
Q 38.921875 48.390625 32.515625 48.390625 
Q 28.125 48.390625 23.5 47.265625 
Q 18.890625 46.140625 14.015625 43.890625 
L 15.578125 52.203125 
Q 20.65625 54.109375 25.515625 55.046875 
Q 30.375 56 34.90625 56 
Q 44.578125 56 49.625 51.796875 
Q 54.6875 47.609375 54.6875 39.59375 
Q 54.6875 37.984375 54.4375 35.8125 
Q 54.203125 33.640625 53.71875 31.203125 
z
M 44 27.484375 
L 35.015625 27.484375 
Q 23.96875 27.484375 18.671875 24.53125 
Q 13.375 21.578125 13.375 15.375 
Q 13.375 11.078125 16.078125 8.640625 
Q 18.796875 6.203125 23.578125 6.203125 
Q 30.90625 6.203125 36.375 11.453125 
Q 41.84375 16.703125 43.609375 25.484375 
z
" id="DejaVuSans-Oblique-61"/>
     <path d="M 31 75.875 
Q 24.46875 64.65625 21.28125 53.65625 
Q 18.109375 42.671875 18.109375 31.390625 
Q 18.109375 20.125 21.3125 9.0625 
Q 24.515625 -2 31 -13.1875 
L 23.1875 -13.1875 
Q 15.875 -1.703125 12.234375 9.375 
Q 8.59375 20.453125 8.59375 31.390625 
Q 8.59375 42.28125 12.203125 53.3125 
Q 15.828125 64.359375 23.1875 75.875 
z
" id="DejaVuSans-28"/>
     <path d="M 31.78125 66.40625 
Q 24.171875 66.40625 20.328125 58.90625 
Q 16.5 51.421875 16.5 36.375 
Q 16.5 21.390625 20.328125 13.890625 
Q 24.171875 6.390625 31.78125 6.390625 
Q 39.453125 6.390625 43.28125 13.890625 
Q 47.125 21.390625 47.125 36.375 
Q 47.125 51.421875 43.28125 58.90625 
Q 39.453125 66.40625 31.78125 66.40625 
z
M 31.78125 74.21875 
Q 44.046875 74.21875 50.515625 64.515625 
Q 56.984375 54.828125 56.984375 36.375 
Q 56.984375 17.96875 50.515625 8.265625 
Q 44.046875 -1.421875 31.78125 -1.421875 
Q 19.53125 -1.421875 13.0625 8.265625 
Q 6.59375 17.96875 6.59375 36.375 
Q 6.59375 54.828125 13.0625 64.515625 
Q 19.53125 74.21875 31.78125 74.21875 
z
" id="DejaVuSans-30"/>
     <path d="M 8.015625 75.875 
L 15.828125 75.875 
Q 23.140625 64.359375 26.78125 53.3125 
Q 30.421875 42.28125 30.421875 31.390625 
Q 30.421875 20.453125 26.78125 9.375 
Q 23.140625 -1.703125 15.828125 -13.1875 
L 8.015625 -13.1875 
Q 14.5 -2 17.703125 9.0625 
Q 20.90625 20.125 20.90625 31.390625 
Q 20.90625 42.671875 17.703125 53.65625 
Q 14.5 64.65625 8.015625 75.875 
z
" id="DejaVuSans-29"/>
    </defs>
    <g transform="translate(87.265022 63.852507)scale(0.16 -0.16)">
     <use transform="translate(0 0.546875)" xlink:href="#DejaVuSans-Oblique-61"/>
     <use transform="translate(65.929193 46.8875)scale(0.7)" xlink:href="#DejaVuSans-28"/>
     <use transform="translate(93.238763 46.8875)scale(0.7)" xlink:href="#DejaVuSans-30"/>
     <use transform="translate(137.774896 46.8875)scale(0.7)" xlink:href="#DejaVuSans-29"/>
     <use transform="translate(61.279297 -26.796875)scale(0.7)" xlink:href="#DejaVuSans-30"/>
    </g>
   </g>
   <g id="text_2">
    <!-- $a_{1}^{(0)}$ -->
    <defs>
     <path d="M 12.40625 8.296875 
L 28.515625 8.296875 
L 28.515625 63.921875 
L 10.984375 60.40625 
L 10.984375 69.390625 
L 28.421875 72.90625 
L 38.28125 72.90625 
L 38.28125 8.296875 
L 54.390625 8.296875 
L 54.390625 0 
L 12.40625 0 
z
" id="DejaVuSans-31"/>
    </defs>
    <g transform="translate(187.98335 63.852507)scale(0.16 -0.16)">
     <use transform="translate(0 0.465625)" xlink:href="#DejaVuSans-Oblique-61"/>
     <use transform="translate(65.929193 45.8875)scale(0.7)" xlink:href="#DejaVuSans-28"/>
     <use transform="translate(93.238763 45.8875)scale(0.7)" xlink:href="#DejaVuSans-30"/>
     <use transform="translate(137.774896 45.8875)scale(0.7)" xlink:href="#DejaVuSans-29"/>
     <use transform="translate(61.279297 -26.878125)scale(0.7)" xlink:href="#DejaVuSans-31"/>
    </g>
   </g>
   <g id="text_3">
    <!-- $a_{2}^{(0)}$ -->
    <defs>
     <path d="M 19.1875 8.296875 
L 53.609375 8.296875 
L 53.609375 0 
L 7.328125 0 
L 7.328125 8.296875 
Q 12.9375 14.109375 22.625 23.890625 
Q 32.328125 33.6875 34.8125 36.53125 
Q 39.546875 41.84375 41.421875 45.53125 
Q 43.3125 49.21875 43.3125 52.78125 
Q 43.3125 58.59375 39.234375 62.25 
Q 35.15625 65.921875 28.609375 65.921875 
Q 23.96875 65.921875 18.8125 64.3125 
Q 13.671875 62.703125 7.8125 59.421875 
L 7.8125 69.390625 
Q 13.765625 71.78125 18.9375 73 
Q 24.125 74.21875 28.421875 74.21875 
Q 39.75 74.21875 46.484375 68.546875 
Q 53.21875 62.890625 53.21875 53.421875 
Q 53.21875 48.921875 51.53125 44.890625 
Q 49.859375 40.875 45.40625 35.40625 
Q 44.1875 33.984375 37.640625 27.21875 
Q 31.109375 20.453125 19.1875 8.296875 
z
" id="DejaVuSans-32"/>
    </defs>
    <g transform="translate(288.701679 63.932507)scale(0.16 -0.16)">
     <use transform="translate(0 0.546875)" xlink:href="#DejaVuSans-Oblique-61"/>
     <use transform="translate(65.929193 46.8875)scale(0.7)" xlink:href="#DejaVuSans-28"/>
     <use transform="translate(93.238763 46.8875)scale(0.7)" xlink:href="#DejaVuSans-30"/>
     <use transform="translate(137.774896 46.8875)scale(0.7)" xlink:href="#DejaVuSans-29"/>
     <use transform="translate(61.279297 -26.796875)scale(0.7)" xlink:href="#DejaVuSans-32"/>
    </g>
   </g>
   <g id="text_4">
    <!-- $a_{3}^{(0)}$ -->
    <defs>
     <path d="M 40.578125 39.3125 
Q 47.65625 37.796875 51.625 33 
Q 55.609375 28.21875 55.609375 21.1875 
Q 55.609375 10.40625 48.1875 4.484375 
Q 40.765625 -1.421875 27.09375 -1.421875 
Q 22.515625 -1.421875 17.65625 -0.515625 
Q 12.796875 0.390625 7.625 2.203125 
L 7.625 11.71875 
Q 11.71875 9.328125 16.59375 8.109375 
Q 21.484375 6.890625 26.8125 6.890625 
Q 36.078125 6.890625 40.9375 10.546875 
Q 45.796875 14.203125 45.796875 21.1875 
Q 45.796875 27.640625 41.28125 31.265625 
Q 36.765625 34.90625 28.71875 34.90625 
L 20.21875 34.90625 
L 20.21875 43.015625 
L 29.109375 43.015625 
Q 36.375 43.015625 40.234375 45.921875 
Q 44.09375 48.828125 44.09375 54.296875 
Q 44.09375 59.90625 40.109375 62.90625 
Q 36.140625 65.921875 28.71875 65.921875 
Q 24.65625 65.921875 20.015625 65.03125 
Q 15.375 64.15625 9.8125 62.3125 
L 9.8125 71.09375 
Q 15.4375 72.65625 20.34375 73.4375 
Q 25.25 74.21875 29.59375 74.21875 
Q 40.828125 74.21875 47.359375 69.109375 
Q 53.90625 64.015625 53.90625 55.328125 
Q 53.90625 49.265625 50.4375 45.09375 
Q 46.96875 40.921875 40.578125 39.3125 
z
" id="DejaVuSans-33"/>
    </defs>
    <g transform="translate(389.420007 63.852507)scale(0.16 -0.16)">
     <use transform="translate(0 0.546875)" xlink:href="#DejaVuSans-Oblique-61"/>
     <use transform="translate(65.929193 46.8875)scale(0.7)" xlink:href="#DejaVuSans-28"/>
     <use transform="translate(93.238763 46.8875)scale(0.7)" xlink:href="#DejaVuSans-30"/>
     <use transform="translate(137.774896 46.8875)scale(0.7)" xlink:href="#DejaVuSans-29"/>
     <use transform="translate(61.279297 -26.796875)scale(0.7)" xlink:href="#DejaVuSans-33"/>
    </g>
   </g>
   <g id="text_5">
    <!-- $a_{4}^{(0)}$ -->
    <defs>
     <path d="M 37.796875 64.3125 
L 12.890625 25.390625 
L 37.796875 25.390625 
z
M 35.203125 72.90625 
L 47.609375 72.90625 
L 47.609375 25.390625 
L 58.015625 25.390625 
L 58.015625 17.1875 
L 47.609375 17.1875 
L 47.609375 0 
L 37.796875 0 
L 37.796875 17.1875 
L 4.890625 17.1875 
L 4.890625 26.703125 
z
" id="DejaVuSans-34"/>
    </defs>
    <g transform="translate(490.138336 63.852507)scale(0.16 -0.16)">
     <use transform="translate(0 0.465625)" xlink:href="#DejaVuSans-Oblique-61"/>
     <use transform="translate(65.929193 45.8875)scale(0.7)" xlink:href="#DejaVuSans-28"/>
     <use transform="translate(93.238763 45.8875)scale(0.7)" xlink:href="#DejaVuSans-30"/>
     <use transform="translate(137.774896 45.8875)scale(0.7)" xlink:href="#DejaVuSans-29"/>
     <use transform="translate(61.279297 -26.878125)scale(0.7)" xlink:href="#DejaVuSans-34"/>
    </g>
   </g>
   <g id="text_6">
    <!-- $a_{5}^{(0)}$ -->
    <defs>
     <path d="M 10.796875 72.90625 
L 49.515625 72.90625 
L 49.515625 64.59375 
L 19.828125 64.59375 
L 19.828125 46.734375 
Q 21.96875 47.46875 24.109375 47.828125 
Q 26.265625 48.1875 28.421875 48.1875 
Q 40.625 48.1875 47.75 41.5 
Q 54.890625 34.8125 54.890625 23.390625 
Q 54.890625 11.625 47.5625 5.09375 
Q 40.234375 -1.421875 26.90625 -1.421875 
Q 22.3125 -1.421875 17.546875 -0.640625 
Q 12.796875 0.140625 7.71875 1.703125 
L 7.71875 11.625 
Q 12.109375 9.234375 16.796875 8.0625 
Q 21.484375 6.890625 26.703125 6.890625 
Q 35.15625 6.890625 40.078125 11.328125 
Q 45.015625 15.765625 45.015625 23.390625 
Q 45.015625 31 40.078125 35.4375 
Q 35.15625 39.890625 26.703125 39.890625 
Q 22.75 39.890625 18.8125 39.015625 
Q 14.890625 38.140625 10.796875 36.28125 
z
" id="DejaVuSans-35"/>
    </defs>
    <g transform="translate(590.856664 63.772507)scale(0.16 -0.16)">
     <use transform="translate(0 0.465625)" xlink:href="#DejaVuSans-Oblique-61"/>
     <use transform="translate(65.929193 45.8875)scale(0.7)" xlink:href="#DejaVuSans-28"/>
     <use transform="translate(93.238763 45.8875)scale(0.7)" xlink:href="#DejaVuSans-30"/>
     <use transform="translate(137.774896 45.8875)scale(0.7)" xlink:href="#DejaVuSans-29"/>
     <use transform="translate(61.279297 -26.878125)scale(0.7)" xlink:href="#DejaVuSans-35"/>
    </g>
   </g>
   <g id="text_7">
    <!-- $a_{6}^{(0)}$ -->
    <defs>
     <path d="M 33.015625 40.375 
Q 26.375 40.375 22.484375 35.828125 
Q 18.609375 31.296875 18.609375 23.390625 
Q 18.609375 15.53125 22.484375 10.953125 
Q 26.375 6.390625 33.015625 6.390625 
Q 39.65625 6.390625 43.53125 10.953125 
Q 47.40625 15.53125 47.40625 23.390625 
Q 47.40625 31.296875 43.53125 35.828125 
Q 39.65625 40.375 33.015625 40.375 
z
M 52.59375 71.296875 
L 52.59375 62.3125 
Q 48.875 64.0625 45.09375 64.984375 
Q 41.3125 65.921875 37.59375 65.921875 
Q 27.828125 65.921875 22.671875 59.328125 
Q 17.53125 52.734375 16.796875 39.40625 
Q 19.671875 43.65625 24.015625 45.921875 
Q 28.375 48.1875 33.59375 48.1875 
Q 44.578125 48.1875 50.953125 41.515625 
Q 57.328125 34.859375 57.328125 23.390625 
Q 57.328125 12.15625 50.6875 5.359375 
Q 44.046875 -1.421875 33.015625 -1.421875 
Q 20.359375 -1.421875 13.671875 8.265625 
Q 6.984375 17.96875 6.984375 36.375 
Q 6.984375 53.65625 15.1875 63.9375 
Q 23.390625 74.21875 37.203125 74.21875 
Q 40.921875 74.21875 44.703125 73.484375 
Q 48.484375 72.75 52.59375 71.296875 
z
" id="DejaVuSans-36"/>
    </defs>
    <g transform="translate(691.574993 63.852507)scale(0.16 -0.16)">
     <use transform="translate(0 0.546875)" xlink:href="#DejaVuSans-Oblique-61"/>
     <use transform="translate(65.929193 46.8875)scale(0.7)" xlink:href="#DejaVuSans-28"/>
     <use transform="translate(93.238763 46.8875)scale(0.7)" xlink:href="#DejaVuSans-30"/>
     <use transform="translate(137.774896 46.8875)scale(0.7)" xlink:href="#DejaVuSans-29"/>
     <use transform="translate(61.279297 -26.796875)scale(0.7)" xlink:href="#DejaVuSans-36"/>
    </g>
   </g>
   <g id="text_8">
    <!-- $a_{7}^{(0)}$ -->
    <defs>
     <path d="M 8.203125 72.90625 
L 55.078125 72.90625 
L 55.078125 68.703125 
L 28.609375 0 
L 18.3125 0 
L 43.21875 64.59375 
L 8.203125 64.59375 
z
" id="DejaVuSans-37"/>
    </defs>
    <g transform="translate(792.293321 63.852507)scale(0.16 -0.16)">
     <use transform="translate(0 0.465625)" xlink:href="#DejaVuSans-Oblique-61"/>
     <use transform="translate(65.929193 45.8875)scale(0.7)" xlink:href="#DejaVuSans-28"/>
     <use transform="translate(93.238763 45.8875)scale(0.7)" xlink:href="#DejaVuSans-30"/>
     <use transform="translate(137.774896 45.8875)scale(0.7)" xlink:href="#DejaVuSans-29"/>
     <use transform="translate(61.279297 -26.878125)scale(0.7)" xlink:href="#DejaVuSans-37"/>
    </g>
   </g>
   <g id="text_9">
    <!-- $a_{8}^{(0)}$ -->
    <defs>
     <path d="M 31.78125 34.625 
Q 24.75 34.625 20.71875 30.859375 
Q 16.703125 27.09375 16.703125 20.515625 
Q 16.703125 13.921875 20.71875 10.15625 
Q 24.75 6.390625 31.78125 6.390625 
Q 38.8125 6.390625 42.859375 10.171875 
Q 46.921875 13.96875 46.921875 20.515625 
Q 46.921875 27.09375 42.890625 30.859375 
Q 38.875 34.625 31.78125 34.625 
z
M 21.921875 38.8125 
Q 15.578125 40.375 12.03125 44.71875 
Q 8.5 49.078125 8.5 55.328125 
Q 8.5 64.0625 14.71875 69.140625 
Q 20.953125 74.21875 31.78125 74.21875 
Q 42.671875 74.21875 48.875 69.140625 
Q 55.078125 64.0625 55.078125 55.328125 
Q 55.078125 49.078125 51.53125 44.71875 
Q 48 40.375 41.703125 38.8125 
Q 48.828125 37.15625 52.796875 32.3125 
Q 56.78125 27.484375 56.78125 20.515625 
Q 56.78125 9.90625 50.3125 4.234375 
Q 43.84375 -1.421875 31.78125 -1.421875 
Q 19.734375 -1.421875 13.25 4.234375 
Q 6.78125 9.90625 6.78125 20.515625 
Q 6.78125 27.484375 10.78125 32.3125 
Q 14.796875 37.15625 21.921875 38.8125 
z
M 18.3125 54.390625 
Q 18.3125 48.734375 21.84375 45.5625 
Q 25.390625 42.390625 31.78125 42.390625 
Q 38.140625 42.390625 41.71875 45.5625 
Q 45.3125 48.734375 45.3125 54.390625 
Q 45.3125 60.0625 41.71875 63.234375 
Q 38.140625 66.40625 31.78125 66.40625 
Q 25.390625 66.40625 21.84375 63.234375 
Q 18.3125 60.0625 18.3125 54.390625 
z
" id="DejaVuSans-38"/>
    </defs>
    <g transform="translate(893.01165 63.852507)scale(0.16 -0.16)">
     <use transform="translate(0 0.546875)" xlink:href="#DejaVuSans-Oblique-61"/>
     <use transform="translate(65.929193 46.8875)scale(0.7)" xlink:href="#DejaVuSans-28"/>
     <use transform="translate(93.238763 46.8875)scale(0.7)" xlink:href="#DejaVuSans-30"/>
     <use transform="translate(137.774896 46.8875)scale(0.7)" xlink:href="#DejaVuSans-29"/>
     <use transform="translate(61.279297 -26.796875)scale(0.7)" xlink:href="#DejaVuSans-38"/>
    </g>
   </g>
   <g id="text_10">
    <!-- $a_{9}^{(0)}$ -->
    <defs>
     <path d="M 10.984375 1.515625 
L 10.984375 10.5 
Q 14.703125 8.734375 18.5 7.8125 
Q 22.3125 6.890625 25.984375 6.890625 
Q 35.75 6.890625 40.890625 13.453125 
Q 46.046875 20.015625 46.78125 33.40625 
Q 43.953125 29.203125 39.59375 26.953125 
Q 35.25 24.703125 29.984375 24.703125 
Q 19.046875 24.703125 12.671875 31.3125 
Q 6.296875 37.9375 6.296875 49.421875 
Q 6.296875 60.640625 12.9375 67.421875 
Q 19.578125 74.21875 30.609375 74.21875 
Q 43.265625 74.21875 49.921875 64.515625 
Q 56.59375 54.828125 56.59375 36.375 
Q 56.59375 19.140625 48.40625 8.859375 
Q 40.234375 -1.421875 26.421875 -1.421875 
Q 22.703125 -1.421875 18.890625 -0.6875 
Q 15.09375 0.046875 10.984375 1.515625 
z
M 30.609375 32.421875 
Q 37.25 32.421875 41.125 36.953125 
Q 45.015625 41.5 45.015625 49.421875 
Q 45.015625 57.28125 41.125 61.84375 
Q 37.25 66.40625 30.609375 66.40625 
Q 23.96875 66.40625 20.09375 61.84375 
Q 16.21875 57.28125 16.21875 49.421875 
Q 16.21875 41.5 20.09375 36.953125 
Q 23.96875 32.421875 30.609375 32.421875 
z
" id="DejaVuSans-39"/>
    </defs>
    <g transform="translate(993.729978 63.852507)scale(0.16 -0.16)">
     <use transform="translate(0 0.546875)" xlink:href="#DejaVuSans-Oblique-61"/>
     <use transform="translate(65.929193 46.8875)scale(0.7)" xlink:href="#DejaVuSans-28"/>
     <use transform="translate(93.238763 46.8875)scale(0.7)" xlink:href="#DejaVuSans-30"/>
     <use transform="translate(137.774896 46.8875)scale(0.7)" xlink:href="#DejaVuSans-29"/>
     <use transform="translate(61.279297 -26.796875)scale(0.7)" xlink:href="#DejaVuSans-39"/>
    </g>
   </g>
   <g id="text_11">
    <!-- $a_{0}^{(1)}$ -->
    <g transform="translate(238.342515 214.93)scale(0.16 -0.16)">
     <use transform="translate(0 0.546875)" xlink:href="#DejaVuSans-Oblique-61"/>
     <use transform="translate(65.929193 46.8875)scale(0.7)" xlink:href="#DejaVuSans-28"/>
     <use transform="translate(93.238763 46.8875)scale(0.7)" xlink:href="#DejaVuSans-31"/>
     <use transform="translate(137.774896 46.8875)scale(0.7)" xlink:href="#DejaVuSans-29"/>
     <use transform="translate(61.279297 -26.796875)scale(0.7)" xlink:href="#DejaVuSans-30"/>
    </g>
   </g>
   <g id="text_12">
    <!-- $a_{1}^{(1)}$ -->
    <g transform="translate(339.060843 214.93)scale(0.16 -0.16)">
     <use transform="translate(0 0.465625)" xlink:href="#DejaVuSans-Oblique-61"/>
     <use transform="translate(65.929193 45.8875)scale(0.7)" xlink:href="#DejaVuSans-28"/>
     <use transform="translate(93.238763 45.8875)scale(0.7)" xlink:href="#DejaVuSans-31"/>
     <use transform="translate(137.774896 45.8875)scale(0.7)" xlink:href="#DejaVuSans-29"/>
     <use transform="translate(61.279297 -26.878125)scale(0.7)" xlink:href="#DejaVuSans-31"/>
    </g>
   </g>
   <g id="text_13">
    <!-- $a_{2}^{(1)}$ -->
    <g transform="translate(439.779172 215.01)scale(0.16 -0.16)">
     <use transform="translate(0 0.546875)" xlink:href="#DejaVuSans-Oblique-61"/>
     <use transform="translate(65.929193 46.8875)scale(0.7)" xlink:href="#DejaVuSans-28"/>
     <use transform="translate(93.238763 46.8875)scale(0.7)" xlink:href="#DejaVuSans-31"/>
     <use transform="translate(137.774896 46.8875)scale(0.7)" xlink:href="#DejaVuSans-29"/>
     <use transform="translate(61.279297 -26.796875)scale(0.7)" xlink:href="#DejaVuSans-32"/>
    </g>
   </g>
   <g id="text_14">
    <!-- $a_{3}^{(1)}$ -->
    <g transform="translate(540.4975 214.93)scale(0.16 -0.16)">
     <use transform="translate(0 0.546875)" xlink:href="#DejaVuSans-Oblique-61"/>
     <use transform="translate(65.929193 46.8875)scale(0.7)" xlink:href="#DejaVuSans-28"/>
     <use transform="translate(93.238763 46.8875)scale(0.7)" xlink:href="#DejaVuSans-31"/>
     <use transform="translate(137.774896 46.8875)scale(0.7)" xlink:href="#DejaVuSans-29"/>
     <use transform="translate(61.279297 -26.796875)scale(0.7)" xlink:href="#DejaVuSans-33"/>
    </g>
   </g>
   <g id="text_15">
    <!-- $a_{4}^{(1)}$ -->
    <g transform="translate(641.215828 214.93)scale(0.16 -0.16)">
     <use transform="translate(0 0.465625)" xlink:href="#DejaVuSans-Oblique-61"/>
     <use transform="translate(65.929193 45.8875)scale(0.7)" xlink:href="#DejaVuSans-28"/>
     <use transform="translate(93.238763 45.8875)scale(0.7)" xlink:href="#DejaVuSans-31"/>
     <use transform="translate(137.774896 45.8875)scale(0.7)" xlink:href="#DejaVuSans-29"/>
     <use transform="translate(61.279297 -26.878125)scale(0.7)" xlink:href="#DejaVuSans-34"/>
    </g>
   </g>
   <g id="text_16">
    <!-- $a_{5}^{(1)}$ -->
    <g transform="translate(741.934157 214.85)scale(0.16 -0.16)">
     <use transform="translate(0 0.465625)" xlink:href="#DejaVuSans-Oblique-61"/>
     <use transform="translate(65.929193 45.8875)scale(0.7)" xlink:href="#DejaVuSans-28"/>
     <use transform="translate(93.238763 45.8875)scale(0.7)" xlink:href="#DejaVuSans-31"/>
     <use transform="translate(137.774896 45.8875)scale(0.7)" xlink:href="#DejaVuSans-29"/>
     <use transform="translate(61.279297 -26.878125)scale(0.7)" xlink:href="#DejaVuSans-35"/>
    </g>
   </g>
   <g id="text_17">
    <!-- $a_{6}^{(1)}$ -->
    <g transform="translate(842.652485 214.93)scale(0.16 -0.16)">
     <use transform="translate(0 0.546875)" xlink:href="#DejaVuSans-Oblique-61"/>
     <use transform="translate(65.929193 46.8875)scale(0.7)" xlink:href="#DejaVuSans-28"/>
     <use transform="translate(93.238763 46.8875)scale(0.7)" xlink:href="#DejaVuSans-31"/>
     <use transform="translate(137.774896 46.8875)scale(0.7)" xlink:href="#DejaVuSans-29"/>
     <use transform="translate(61.279297 -26.796875)scale(0.7)" xlink:href="#DejaVuSans-36"/>
    </g>
   </g>
   <g id="text_18">
    <!-- $a_{0}^{(2)}$ -->
    <g transform="translate(339.060843 366.007493)scale(0.16 -0.16)">
     <use transform="translate(0 0.546875)" xlink:href="#DejaVuSans-Oblique-61"/>
     <use transform="translate(65.929193 46.8875)scale(0.7)" xlink:href="#DejaVuSans-28"/>
     <use transform="translate(93.238763 46.8875)scale(0.7)" xlink:href="#DejaVuSans-32"/>
     <use transform="translate(137.774896 46.8875)scale(0.7)" xlink:href="#DejaVuSans-29"/>
     <use transform="translate(61.279297 -26.796875)scale(0.7)" xlink:href="#DejaVuSans-30"/>
    </g>
   </g>
   <g id="text_19">
    <!-- $a_{1}^{(2)}$ -->
    <g transform="translate(439.779172 366.007493)scale(0.16 -0.16)">
     <use transform="translate(0 0.465625)" xlink:href="#DejaVuSans-Oblique-61"/>
     <use transform="translate(65.929193 45.8875)scale(0.7)" xlink:href="#DejaVuSans-28"/>
     <use transform="translate(93.238763 45.8875)scale(0.7)" xlink:href="#DejaVuSans-32"/>
     <use transform="translate(137.774896 45.8875)scale(0.7)" xlink:href="#DejaVuSans-29"/>
     <use transform="translate(61.279297 -26.878125)scale(0.7)" xlink:href="#DejaVuSans-31"/>
    </g>
   </g>
   <g id="text_20">
    <!-- $a_{2}^{(2)}$ -->
    <g transform="translate(540.4975 366.087493)scale(0.16 -0.16)">
     <use transform="translate(0 0.546875)" xlink:href="#DejaVuSans-Oblique-61"/>
     <use transform="translate(65.929193 46.8875)scale(0.7)" xlink:href="#DejaVuSans-28"/>
     <use transform="translate(93.238763 46.8875)scale(0.7)" xlink:href="#DejaVuSans-32"/>
     <use transform="translate(137.774896 46.8875)scale(0.7)" xlink:href="#DejaVuSans-29"/>
     <use transform="translate(61.279297 -26.796875)scale(0.7)" xlink:href="#DejaVuSans-32"/>
    </g>
   </g>
   <g id="text_21">
    <!-- $a_{3}^{(2)}$ -->
    <g transform="translate(641.215828 366.007493)scale(0.16 -0.16)">
     <use transform="translate(0 0.546875)" xlink:href="#DejaVuSans-Oblique-61"/>
     <use transform="translate(65.929193 46.8875)scale(0.7)" xlink:href="#DejaVuSans-28"/>
     <use transform="translate(93.238763 46.8875)scale(0.7)" xlink:href="#DejaVuSans-32"/>
     <use transform="translate(137.774896 46.8875)scale(0.7)" xlink:href="#DejaVuSans-29"/>
     <use transform="translate(61.279297 -26.796875)scale(0.7)" xlink:href="#DejaVuSans-33"/>
    </g>
   </g>
   <g id="text_22">
    <!-- $a_{4}^{(2)}$ -->
    <g transform="translate(741.934157 366.007493)scale(0.16 -0.16)">
     <use transform="translate(0 0.465625)" xlink:href="#DejaVuSans-Oblique-61"/>
     <use transform="translate(65.929193 45.8875)scale(0.7)" xlink:href="#DejaVuSans-28"/>
     <use transform="translate(93.238763 45.8875)scale(0.7)" xlink:href="#DejaVuSans-32"/>
     <use transform="translate(137.774896 45.8875)scale(0.7)" xlink:href="#DejaVuSans-29"/>
     <use transform="translate(61.279297 -26.878125)scale(0.7)" xlink:href="#DejaVuSans-34"/>
    </g>
   </g>
  </g>
 </g>
 <defs>
  <clipPath id="pbb9472e866">
   <rect height="389.9" width="1023.525" x="42.175" y="14.3"/>
  </clipPath>
 </defs>
</svg>
