<?xml version="1.0" encoding="utf-8" standalone="no"?>
<!DOCTYPE svg PUBLIC "-//W3C//DTD SVG 1.1//EN"
  "http://www.w3.org/Graphics/SVG/1.1/DTD/svg11.dtd">
<!-- Created with matplotlib (https://matplotlib.org/) -->
<svg height="432pt" version="1.1" viewBox="0 0 1080 432" width="1080pt" xmlns="http://www.w3.org/2000/svg" xmlns:xlink="http://www.w3.org/1999/xlink">
 <defs>
  <style type="text/css">
*{stroke-linecap:butt;stroke-linejoin:round;}
  </style>
 </defs>
 <g id="figure_1">
  <g id="patch_1">
   <path d="M 0 432 
L 1080 432 
L 1080 0 
L 0 0 
z
" style="fill:#ffffff;"/>
  </g>
  <g id="axes_1">
   <g id="patch_2">
    <path clip-path="url(#p1a9e37a91e)" d="M 100.905169 86.224712 
C 108.945814 86.224712 116.658218 83.030129 122.343813 77.344534 
C 128.029408 71.658939 131.223991 63.946535 131.223991 55.90589 
C 131.223991 47.865244 128.029408 40.15284 122.343813 34.467245 
C 116.658218 28.78165 108.945814 25.587067 100.905169 25.587067 
C 92.864523 25.587067 85.152119 28.78165 79.466524 34.467245 
C 73.780929 40.15284 70.586347 47.865244 70.586347 55.90589 
C 70.586347 63.946535 73.780929 71.658939 79.466524 77.344534 
C 85.152119 83.030129 92.864523 86.224712 100.905169 86.224712 
z
" style="fill:#ffff77;stroke:#000000;stroke-linejoin:miter;stroke-width:0.7;"/>
   </g>
   <g id="patch_3">
    <path clip-path="url(#p1a9e37a91e)" d="M 201.967909 86.224712 
C 210.008555 86.224712 217.720959 83.030129 223.406554 77.344534 
C 229.092149 71.658939 232.286731 63.946535 232.286731 55.90589 
C 232.286731 47.865244 229.092149 40.15284 223.406554 34.467245 
C 217.720959 28.78165 210.008555 25.587067 201.967909 25.587067 
C 193.927263 25.587067 186.214859 28.78165 180.529264 34.467245 
C 174.843669 40.15284 171.649087 47.865244 171.649087 55.90589 
C 171.649087 63.946535 174.843669 71.658939 180.529264 77.344534 
C 186.214859 83.030129 193.927263 86.224712 201.967909 86.224712 
z
" style="fill:#ffff77;stroke:#000000;stroke-linejoin:miter;stroke-width:0.7;"/>
   </g>
   <g id="patch_4">
    <path clip-path="url(#p1a9e37a91e)" d="M 303.030649 86.224712 
C 311.071295 86.224712 318.783699 83.030129 324.469294 77.344534 
C 330.154889 71.658939 333.349471 63.946535 333.349471 55.90589 
C 333.349471 47.865244 330.154889 40.15284 324.469294 34.467245 
C 318.783699 28.78165 311.071295 25.587067 303.030649 25.587067 
C 294.990004 25.587067 287.2776 28.78165 281.592005 34.467245 
C 275.90641 40.15284 272.711827 47.865244 272.711827 55.90589 
C 272.711827 63.946535 275.90641 71.658939 281.592005 77.344534 
C 287.2776 83.030129 294.990004 86.224712 303.030649 86.224712 
z
" style="fill:#ffff77;stroke:#000000;stroke-linejoin:miter;stroke-width:0.7;"/>
   </g>
   <g id="patch_5">
    <path clip-path="url(#p1a9e37a91e)" d="M 404.09339 86.224712 
C 412.134035 86.224712 419.846439 83.030129 425.532034 77.344534 
C 431.217629 71.658939 434.412212 63.946535 434.412212 55.90589 
C 434.412212 47.865244 431.217629 40.15284 425.532034 34.467245 
C 419.846439 28.78165 412.134035 25.587067 404.09339 25.587067 
C 396.052744 25.587067 388.34034 28.78165 382.654745 34.467245 
C 376.96915 40.15284 373.774567 47.865244 373.774567 55.90589 
C 373.774567 63.946535 376.96915 71.658939 382.654745 77.344534 
C 388.34034 83.030129 396.052744 86.224712 404.09339 86.224712 
z
" style="fill:#ffff77;stroke:#000000;stroke-linejoin:miter;stroke-width:0.7;"/>
   </g>
   <g id="patch_6">
    <path clip-path="url(#p1a9e37a91e)" d="M 505.15613 86.224712 
C 513.196775 86.224712 520.90918 83.030129 526.594775 77.344534 
C 532.28037 71.658939 535.474952 63.946535 535.474952 55.90589 
C 535.474952 47.865244 532.28037 40.15284 526.594775 34.467245 
C 520.90918 28.78165 513.196775 25.587067 505.15613 25.587067 
C 497.115484 25.587067 489.40308 28.78165 483.717485 34.467245 
C 478.03189 40.15284 474.837308 47.865244 474.837308 55.90589 
C 474.837308 63.946535 478.03189 71.658939 483.717485 77.344534 
C 489.40308 83.030129 497.115484 86.224712 505.15613 86.224712 
z
" style="fill:#ffff77;stroke:#000000;stroke-linejoin:miter;stroke-width:0.7;"/>
   </g>
   <g id="patch_7">
    <path clip-path="url(#p1a9e37a91e)" d="M 606.21887 86.224712 
C 614.259516 86.224712 621.97192 83.030129 627.657515 77.344534 
C 633.34311 71.658939 636.537692 63.946535 636.537692 55.90589 
C 636.537692 47.865244 633.34311 40.15284 627.657515 34.467245 
C 621.97192 28.78165 614.259516 25.587067 606.21887 25.587067 
C 598.178225 25.587067 590.46582 28.78165 584.780225 34.467245 
C 579.09463 40.15284 575.900048 47.865244 575.900048 55.90589 
C 575.900048 63.946535 579.09463 71.658939 584.780225 77.344534 
C 590.46582 83.030129 598.178225 86.224712 606.21887 86.224712 
z
" style="fill:#ffff77;stroke:#000000;stroke-linejoin:miter;stroke-width:0.7;"/>
   </g>
   <g id="patch_8">
    <path clip-path="url(#p1a9e37a91e)" d="M 707.28161 86.224712 
C 715.322256 86.224712 723.03466 83.030129 728.720255 77.344534 
C 734.40585 71.658939 737.600433 63.946535 737.600433 55.90589 
C 737.600433 47.865244 734.40585 40.15284 728.720255 34.467245 
C 723.03466 28.78165 715.322256 25.587067 707.28161 25.587067 
C 699.240965 25.587067 691.528561 28.78165 685.842966 34.467245 
C 680.157371 40.15284 676.962788 47.865244 676.962788 55.90589 
C 676.962788 63.946535 680.157371 71.658939 685.842966 77.344534 
C 691.528561 83.030129 699.240965 86.224712 707.28161 86.224712 
z
" style="fill:#ffff77;stroke:#000000;stroke-linejoin:miter;stroke-width:0.7;"/>
   </g>
   <g id="patch_9">
    <path clip-path="url(#p1a9e37a91e)" d="M 808.344351 86.224712 
C 816.384996 86.224712 824.0974 83.030129 829.782995 77.344534 
C 835.46859 71.658939 838.663173 63.946535 838.663173 55.90589 
C 838.663173 47.865244 835.46859 40.15284 829.782995 34.467245 
C 824.0974 28.78165 816.384996 25.587067 808.344351 25.587067 
C 800.303705 25.587067 792.591301 28.78165 786.905706 34.467245 
C 781.220111 40.15284 778.025529 47.865244 778.025529 55.90589 
C 778.025529 63.946535 781.220111 71.658939 786.905706 77.344534 
C 792.591301 83.030129 800.303705 86.224712 808.344351 86.224712 
z
" style="fill:#ffff77;stroke:#000000;stroke-linejoin:miter;stroke-width:0.7;"/>
   </g>
   <g id="patch_10">
    <path clip-path="url(#p1a9e37a91e)" d="M 909.407091 86.224712 
C 917.447737 86.224712 925.160141 83.030129 930.845736 77.344534 
C 936.531331 71.658939 939.725913 63.946535 939.725913 55.90589 
C 939.725913 47.865244 936.531331 40.15284 930.845736 34.467245 
C 925.160141 28.78165 917.447737 25.587067 909.407091 25.587067 
C 901.366445 25.587067 893.654041 28.78165 887.968446 34.467245 
C 882.282851 40.15284 879.088269 47.865244 879.088269 55.90589 
C 879.088269 63.946535 882.282851 71.658939 887.968446 77.344534 
C 893.654041 83.030129 901.366445 86.224712 909.407091 86.224712 
z
" style="fill:#ffff77;stroke:#000000;stroke-linejoin:miter;stroke-width:0.7;"/>
   </g>
   <g id="patch_11">
    <path clip-path="url(#p1a9e37a91e)" d="M 1010.469831 86.224712 
C 1018.510477 86.224712 1026.222881 83.030129 1031.908476 77.344534 
C 1037.594071 71.658939 1040.788653 63.946535 1040.788653 55.90589 
C 1040.788653 47.865244 1037.594071 40.15284 1031.908476 34.467245 
C 1026.222881 28.78165 1018.510477 25.587067 1010.469831 25.587067 
C 1002.429186 25.587067 994.716782 28.78165 989.031187 34.467245 
C 983.345592 40.15284 980.151009 47.865244 980.151009 55.90589 
C 980.151009 63.946535 983.345592 71.658939 989.031187 77.344534 
C 994.716782 83.030129 1002.429186 86.224712 1010.469831 86.224712 
z
" style="fill:#ffff77;stroke:#000000;stroke-linejoin:miter;stroke-width:0.7;"/>
   </g>
   <g id="patch_12">
    <path clip-path="url(#p1a9e37a91e)" d="M 252.499279 237.818822 
C 260.539925 237.818822 268.252329 234.62424 273.937924 228.938645 
C 279.623519 223.25305 282.818101 215.540646 282.818101 207.5 
C 282.818101 199.459354 279.623519 191.74695 273.937924 186.061355 
C 268.252329 180.37576 260.539925 177.181178 252.499279 177.181178 
C 244.458633 177.181178 236.746229 180.37576 231.060634 186.061355 
C 225.375039 191.74695 222.180457 199.459354 222.180457 207.5 
C 222.180457 215.540646 225.375039 223.25305 231.060634 228.938645 
C 236.746229 234.62424 244.458633 237.818822 252.499279 237.818822 
z
" style="fill:#55cc77;stroke:#000000;stroke-linejoin:miter;stroke-width:0.7;"/>
   </g>
   <g id="patch_13">
    <path clip-path="url(#p1a9e37a91e)" d="M 353.562019 237.818822 
C 361.602665 237.818822 369.315069 234.62424 375.000664 228.938645 
C 380.686259 223.25305 383.880841 215.540646 383.880841 207.5 
C 383.880841 199.459354 380.686259 191.74695 375.000664 186.061355 
C 369.315069 180.37576 361.602665 177.181178 353.562019 177.181178 
C 345.521374 177.181178 337.80897 180.37576 332.123375 186.061355 
C 326.43778 191.74695 323.243197 199.459354 323.243197 207.5 
C 323.243197 215.540646 326.43778 223.25305 332.123375 228.938645 
C 337.80897 234.62424 345.521374 237.818822 353.562019 237.818822 
z
" style="fill:#55cc77;stroke:#000000;stroke-linejoin:miter;stroke-width:0.7;"/>
   </g>
   <g id="patch_14">
    <path clip-path="url(#p1a9e37a91e)" d="M 454.62476 237.818822 
C 462.665405 237.818822 470.377809 234.62424 476.063404 228.938645 
C 481.748999 223.25305 484.943582 215.540646 484.943582 207.5 
C 484.943582 199.459354 481.748999 191.74695 476.063404 186.061355 
C 470.377809 180.37576 462.665405 177.181178 454.62476 177.181178 
C 446.584114 177.181178 438.87171 180.37576 433.186115 186.061355 
C 427.50052 191.74695 424.305938 199.459354 424.305938 207.5 
C 424.305938 215.540646 427.50052 223.25305 433.186115 228.938645 
C 438.87171 234.62424 446.584114 237.818822 454.62476 237.818822 
z
" style="fill:#55cc77;stroke:#000000;stroke-linejoin:miter;stroke-width:0.7;"/>
   </g>
   <g id="patch_15">
    <path clip-path="url(#p1a9e37a91e)" d="M 555.6875 237.818822 
C 563.728146 237.818822 571.44055 234.62424 577.126145 228.938645 
C 582.81174 223.25305 586.006322 215.540646 586.006322 207.5 
C 586.006322 199.459354 582.81174 191.74695 577.126145 186.061355 
C 571.44055 180.37576 563.728146 177.181178 555.6875 177.181178 
C 547.646854 177.181178 539.93445 180.37576 534.248855 186.061355 
C 528.56326 191.74695 525.368678 199.459354 525.368678 207.5 
C 525.368678 215.540646 528.56326 223.25305 534.248855 228.938645 
C 539.93445 234.62424 547.646854 237.818822 555.6875 237.818822 
z
" style="fill:#55cc77;stroke:#000000;stroke-linejoin:miter;stroke-width:0.7;"/>
   </g>
   <g id="patch_16">
    <path clip-path="url(#p1a9e37a91e)" d="M 656.75024 237.818822 
C 664.790886 237.818822 672.50329 234.62424 678.188885 228.938645 
C 683.87448 223.25305 687.069062 215.540646 687.069062 207.5 
C 687.069062 199.459354 683.87448 191.74695 678.188885 186.061355 
C 672.50329 180.37576 664.790886 177.181178 656.75024 177.181178 
C 648.709595 177.181178 640.997191 180.37576 635.311596 186.061355 
C 629.626001 191.74695 626.431418 199.459354 626.431418 207.5 
C 626.431418 215.540646 629.626001 223.25305 635.311596 228.938645 
C 640.997191 234.62424 648.709595 237.818822 656.75024 237.818822 
z
" style="fill:#55cc77;stroke:#000000;stroke-linejoin:miter;stroke-width:0.7;"/>
   </g>
   <g id="patch_17">
    <path clip-path="url(#p1a9e37a91e)" d="M 757.812981 237.818822 
C 765.853626 237.818822 773.56603 234.62424 779.251625 228.938645 
C 784.93722 223.25305 788.131803 215.540646 788.131803 207.5 
C 788.131803 199.459354 784.93722 191.74695 779.251625 186.061355 
C 773.56603 180.37576 765.853626 177.181178 757.812981 177.181178 
C 749.772335 177.181178 742.059931 180.37576 736.374336 186.061355 
C 730.688741 191.74695 727.494159 199.459354 727.494159 207.5 
C 727.494159 215.540646 730.688741 223.25305 736.374336 228.938645 
C 742.059931 234.62424 749.772335 237.818822 757.812981 237.818822 
z
" style="fill:#55cc77;stroke:#000000;stroke-linejoin:miter;stroke-width:0.7;"/>
   </g>
   <g id="patch_18">
    <path clip-path="url(#p1a9e37a91e)" d="M 858.875721 237.818822 
C 866.916367 237.818822 874.628771 234.62424 880.314366 228.938645 
C 885.999961 223.25305 889.194543 215.540646 889.194543 207.5 
C 889.194543 199.459354 885.999961 191.74695 880.314366 186.061355 
C 874.628771 180.37576 866.916367 177.181178 858.875721 177.181178 
C 850.835075 177.181178 843.122671 180.37576 837.437076 186.061355 
C 831.751481 191.74695 828.556899 199.459354 828.556899 207.5 
C 828.556899 215.540646 831.751481 223.25305 837.437076 228.938645 
C 843.122671 234.62424 850.835075 237.818822 858.875721 237.818822 
z
" style="fill:#55cc77;stroke:#000000;stroke-linejoin:miter;stroke-width:0.7;"/>
   </g>
   <g id="patch_19">
    <path clip-path="url(#p1a9e37a91e)" d="M 353.562019 389.412933 
C 361.602665 389.412933 369.315069 386.21835 375.000664 380.532755 
C 380.686259 374.84716 383.880841 367.134756 383.880841 359.09411 
C 383.880841 351.053465 380.686259 343.341061 375.000664 337.655466 
C 369.315069 331.969871 361.602665 328.775288 353.562019 328.775288 
C 345.521374 328.775288 337.80897 331.969871 332.123375 337.655466 
C 326.43778 343.341061 323.243197 351.053465 323.243197 359.09411 
C 323.243197 367.134756 326.43778 374.84716 332.123375 380.532755 
C 337.80897 386.21835 345.521374 389.412933 353.562019 389.412933 
z
" style="fill:#ff6644;stroke:#000000;stroke-linejoin:miter;stroke-width:0.7;"/>
   </g>
   <g id="patch_20">
    <path clip-path="url(#p1a9e37a91e)" d="M 454.62476 389.412933 
C 462.665405 389.412933 470.377809 386.21835 476.063404 380.532755 
C 481.748999 374.84716 484.943582 367.134756 484.943582 359.09411 
C 484.943582 351.053465 481.748999 343.341061 476.063404 337.655466 
C 470.377809 331.969871 462.665405 328.775288 454.62476 328.775288 
C 446.584114 328.775288 438.87171 331.969871 433.186115 337.655466 
C 427.50052 343.341061 424.305938 351.053465 424.305938 359.09411 
C 424.305938 367.134756 427.50052 374.84716 433.186115 380.532755 
C 438.87171 386.21835 446.584114 389.412933 454.62476 389.412933 
z
" style="fill:#ff6644;stroke:#000000;stroke-linejoin:miter;stroke-width:0.7;"/>
   </g>
   <g id="patch_21">
    <path clip-path="url(#p1a9e37a91e)" d="M 555.6875 389.412933 
C 563.728146 389.412933 571.44055 386.21835 577.126145 380.532755 
C 582.81174 374.84716 586.006322 367.134756 586.006322 359.09411 
C 586.006322 351.053465 582.81174 343.341061 577.126145 337.655466 
C 571.44055 331.969871 563.728146 328.775288 555.6875 328.775288 
C 547.646854 328.775288 539.93445 331.969871 534.248855 337.655466 
C 528.56326 343.341061 525.368678 351.053465 525.368678 359.09411 
C 525.368678 367.134756 528.56326 374.84716 534.248855 380.532755 
C 539.93445 386.21835 547.646854 389.412933 555.6875 389.412933 
z
" style="fill:#ff6644;stroke:#000000;stroke-linejoin:miter;stroke-width:0.7;"/>
   </g>
   <g id="patch_22">
    <path clip-path="url(#p1a9e37a91e)" d="M 656.75024 389.412933 
C 664.790886 389.412933 672.50329 386.21835 678.188885 380.532755 
C 683.87448 374.84716 687.069062 367.134756 687.069062 359.09411 
C 687.069062 351.053465 683.87448 343.341061 678.188885 337.655466 
C 672.50329 331.969871 664.790886 328.775288 656.75024 328.775288 
C 648.709595 328.775288 640.997191 331.969871 635.311596 337.655466 
C 629.626001 343.341061 626.431418 351.053465 626.431418 359.09411 
C 626.431418 367.134756 629.626001 374.84716 635.311596 380.532755 
C 640.997191 386.21835 648.709595 389.412933 656.75024 389.412933 
z
" style="fill:#ff6644;stroke:#000000;stroke-linejoin:miter;stroke-width:0.7;"/>
   </g>
   <g id="patch_23">
    <path clip-path="url(#p1a9e37a91e)" d="M 757.812981 389.412933 
C 765.853626 389.412933 773.56603 386.21835 779.251625 380.532755 
C 784.93722 374.84716 788.131803 367.134756 788.131803 359.09411 
C 788.131803 351.053465 784.93722 343.341061 779.251625 337.655466 
C 773.56603 331.969871 765.853626 328.775288 757.812981 328.775288 
C 749.772335 328.775288 742.059931 331.969871 736.374336 337.655466 
C 730.688741 343.341061 727.494159 351.053465 727.494159 359.09411 
C 727.494159 367.134756 730.688741 374.84716 736.374336 380.532755 
C 742.059931 386.21835 749.772335 389.412933 757.812981 389.412933 
z
" style="fill:#ff6644;stroke:#000000;stroke-linejoin:miter;stroke-width:0.7;"/>
   </g>
   <g id="line2d_1">
    <path clip-path="url(#p1a9e37a91e)" d="M 122.343813 77.344534 
L 226.772905 181.773626 
" style="fill:none;stroke:#000000;"/>
   </g>
   <g id="line2d_2">
    <path clip-path="url(#p1a9e37a91e)" d="M 128.029408 71.658939 
L 321.250214 188.607141 
" style="fill:none;stroke:#000000;"/>
   </g>
   <g id="line2d_3">
    <path clip-path="url(#p1a9e37a91e)" d="M 129.6267 67.802737 
L 420.335377 193.201431 
" style="fill:none;stroke:#000000;"/>
   </g>
   <g id="line2d_4">
    <path clip-path="url(#p1a9e37a91e)" d="M 131.223991 63.946535 
L 519.634372 197.487814 
" style="fill:none;stroke:#000000;"/>
   </g>
   <g id="line2d_5">
    <path clip-path="url(#p1a9e37a91e)" d="M 131.223991 63.946535 
L 620.582688 197.858857 
" style="fill:none;stroke:#000000;"/>
   </g>
   <g id="line2d_6">
    <path clip-path="url(#p1a9e37a91e)" d="M 131.223991 63.946535 
L 721.581176 198.115526 
" style="fill:none;stroke:#000000;"/>
   </g>
   <g id="line2d_7">
    <path clip-path="url(#p1a9e37a91e)" d="M 131.223991 63.946535 
L 822.604487 198.302621 
" style="fill:none;stroke:#000000;"/>
   </g>
   <g id="line2d_8">
    <path clip-path="url(#p1a9e37a91e)" d="M 210.008555 86.224712 
L 242.310855 171.510527 
" style="fill:none;stroke:#000000;"/>
   </g>
   <g id="line2d_9">
    <path clip-path="url(#p1a9e37a91e)" d="M 223.406554 77.344534 
L 327.835646 181.773626 
" style="fill:none;stroke:#000000;"/>
   </g>
   <g id="line2d_10">
    <path clip-path="url(#p1a9e37a91e)" d="M 229.092149 71.658939 
L 422.312954 188.607141 
" style="fill:none;stroke:#000000;"/>
   </g>
   <g id="line2d_11">
    <path clip-path="url(#p1a9e37a91e)" d="M 230.68944 67.802737 
L 521.398117 193.201431 
" style="fill:none;stroke:#000000;"/>
   </g>
   <g id="line2d_12">
    <path clip-path="url(#p1a9e37a91e)" d="M 232.286731 63.946535 
L 620.697112 197.487814 
" style="fill:none;stroke:#000000;"/>
   </g>
   <g id="line2d_13">
    <path clip-path="url(#p1a9e37a91e)" d="M 232.286731 63.946535 
L 721.645428 197.858857 
" style="fill:none;stroke:#000000;"/>
   </g>
   <g id="line2d_14">
    <path clip-path="url(#p1a9e37a91e)" d="M 232.286731 63.946535 
L 822.643916 198.115526 
" style="fill:none;stroke:#000000;"/>
   </g>
   <g id="line2d_15">
    <path clip-path="url(#p1a9e37a91e)" d="M 294.990004 86.224712 
L 262.687704 171.510527 
" style="fill:none;stroke:#000000;"/>
   </g>
   <g id="line2d_16">
    <path clip-path="url(#p1a9e37a91e)" d="M 311.071295 86.224712 
L 343.373595 171.510527 
" style="fill:none;stroke:#000000;"/>
   </g>
   <g id="line2d_17">
    <path clip-path="url(#p1a9e37a91e)" d="M 324.469294 77.344534 
L 428.898386 181.773626 
" style="fill:none;stroke:#000000;"/>
   </g>
   <g id="line2d_18">
    <path clip-path="url(#p1a9e37a91e)" d="M 330.154889 71.658939 
L 523.375695 188.607141 
" style="fill:none;stroke:#000000;"/>
   </g>
   <g id="line2d_19">
    <path clip-path="url(#p1a9e37a91e)" d="M 331.75218 67.802737 
L 622.460858 193.201431 
" style="fill:none;stroke:#000000;"/>
   </g>
   <g id="line2d_20">
    <path clip-path="url(#p1a9e37a91e)" d="M 333.349471 63.946535 
L 721.759852 197.487814 
" style="fill:none;stroke:#000000;"/>
   </g>
   <g id="line2d_21">
    <path clip-path="url(#p1a9e37a91e)" d="M 333.349471 63.946535 
L 822.708168 197.858857 
" style="fill:none;stroke:#000000;"/>
   </g>
   <g id="line2d_22">
    <path clip-path="url(#p1a9e37a91e)" d="M 382.654745 77.344534 
L 278.225653 181.773626 
" style="fill:none;stroke:#000000;"/>
   </g>
   <g id="line2d_23">
    <path clip-path="url(#p1a9e37a91e)" d="M 396.052744 86.224712 
L 363.750444 171.510527 
" style="fill:none;stroke:#000000;"/>
   </g>
   <g id="line2d_24">
    <path clip-path="url(#p1a9e37a91e)" d="M 412.134035 86.224712 
L 444.436335 171.510527 
" style="fill:none;stroke:#000000;"/>
   </g>
   <g id="line2d_25">
    <path clip-path="url(#p1a9e37a91e)" d="M 425.532034 77.344534 
L 529.961126 181.773626 
" style="fill:none;stroke:#000000;"/>
   </g>
   <g id="line2d_26">
    <path clip-path="url(#p1a9e37a91e)" d="M 431.217629 71.658939 
L 624.438435 188.607141 
" style="fill:none;stroke:#000000;"/>
   </g>
   <g id="line2d_27">
    <path clip-path="url(#p1a9e37a91e)" d="M 432.81492 67.802737 
L 723.523598 193.201431 
" style="fill:none;stroke:#000000;"/>
   </g>
   <g id="line2d_28">
    <path clip-path="url(#p1a9e37a91e)" d="M 434.412212 63.946535 
L 822.822593 197.487814 
" style="fill:none;stroke:#000000;"/>
   </g>
   <g id="line2d_29">
    <path clip-path="url(#p1a9e37a91e)" d="M 478.03189 71.658939 
L 284.811084 188.607141 
" style="fill:none;stroke:#000000;"/>
   </g>
   <g id="line2d_30">
    <path clip-path="url(#p1a9e37a91e)" d="M 483.717485 77.344534 
L 379.288393 181.773626 
" style="fill:none;stroke:#000000;"/>
   </g>
   <g id="line2d_31">
    <path clip-path="url(#p1a9e37a91e)" d="M 497.115484 86.224712 
L 464.813184 171.510527 
" style="fill:none;stroke:#000000;"/>
   </g>
   <g id="line2d_32">
    <path clip-path="url(#p1a9e37a91e)" d="M 513.196775 86.224712 
L 545.499075 171.510527 
" style="fill:none;stroke:#000000;"/>
   </g>
   <g id="line2d_33">
    <path clip-path="url(#p1a9e37a91e)" d="M 526.594775 77.344534 
L 631.023867 181.773626 
" style="fill:none;stroke:#000000;"/>
   </g>
   <g id="line2d_34">
    <path clip-path="url(#p1a9e37a91e)" d="M 532.28037 71.658939 
L 725.501175 188.607141 
" style="fill:none;stroke:#000000;"/>
   </g>
   <g id="line2d_35">
    <path clip-path="url(#p1a9e37a91e)" d="M 533.877661 67.802737 
L 824.586338 193.201431 
" style="fill:none;stroke:#000000;"/>
   </g>
   <g id="line2d_36">
    <path clip-path="url(#p1a9e37a91e)" d="M 577.497339 67.802737 
L 286.788662 193.201431 
" style="fill:none;stroke:#000000;"/>
   </g>
   <g id="line2d_37">
    <path clip-path="url(#p1a9e37a91e)" d="M 579.09463 71.658939 
L 385.873825 188.607141 
" style="fill:none;stroke:#000000;"/>
   </g>
   <g id="line2d_38">
    <path clip-path="url(#p1a9e37a91e)" d="M 584.780225 77.344534 
L 480.351133 181.773626 
" style="fill:none;stroke:#000000;"/>
   </g>
   <g id="line2d_39">
    <path clip-path="url(#p1a9e37a91e)" d="M 598.178225 86.224712 
L 565.875925 171.510527 
" style="fill:none;stroke:#000000;"/>
   </g>
   <g id="line2d_40">
    <path clip-path="url(#p1a9e37a91e)" d="M 614.259516 86.224712 
L 646.561816 171.510527 
" style="fill:none;stroke:#000000;"/>
   </g>
   <g id="line2d_41">
    <path clip-path="url(#p1a9e37a91e)" d="M 627.657515 77.344534 
L 732.086607 181.773626 
" style="fill:none;stroke:#000000;"/>
   </g>
   <g id="line2d_42">
    <path clip-path="url(#p1a9e37a91e)" d="M 633.34311 71.658939 
L 826.563916 188.607141 
" style="fill:none;stroke:#000000;"/>
   </g>
   <g id="line2d_43">
    <path clip-path="url(#p1a9e37a91e)" d="M 676.962788 63.946535 
L 288.552407 197.487814 
" style="fill:none;stroke:#000000;"/>
   </g>
   <g id="line2d_44">
    <path clip-path="url(#p1a9e37a91e)" d="M 678.56008 67.802737 
L 387.851402 193.201431 
" style="fill:none;stroke:#000000;"/>
   </g>
   <g id="line2d_45">
    <path clip-path="url(#p1a9e37a91e)" d="M 680.157371 71.658939 
L 486.936565 188.607141 
" style="fill:none;stroke:#000000;"/>
   </g>
   <g id="line2d_46">
    <path clip-path="url(#p1a9e37a91e)" d="M 685.842966 77.344534 
L 581.413874 181.773626 
" style="fill:none;stroke:#000000;"/>
   </g>
   <g id="line2d_47">
    <path clip-path="url(#p1a9e37a91e)" d="M 699.240965 86.224712 
L 666.938665 171.510527 
" style="fill:none;stroke:#000000;"/>
   </g>
   <g id="line2d_48">
    <path clip-path="url(#p1a9e37a91e)" d="M 715.322256 86.224712 
L 747.624556 171.510527 
" style="fill:none;stroke:#000000;"/>
   </g>
   <g id="line2d_49">
    <path clip-path="url(#p1a9e37a91e)" d="M 728.720255 77.344534 
L 833.149347 181.773626 
" style="fill:none;stroke:#000000;"/>
   </g>
   <g id="line2d_50">
    <path clip-path="url(#p1a9e37a91e)" d="M 778.025529 63.946535 
L 288.666832 197.858857 
" style="fill:none;stroke:#000000;"/>
   </g>
   <g id="line2d_51">
    <path clip-path="url(#p1a9e37a91e)" d="M 778.025529 63.946535 
L 389.615148 197.487814 
" style="fill:none;stroke:#000000;"/>
   </g>
   <g id="line2d_52">
    <path clip-path="url(#p1a9e37a91e)" d="M 779.62282 67.802737 
L 488.914142 193.201431 
" style="fill:none;stroke:#000000;"/>
   </g>
   <g id="line2d_53">
    <path clip-path="url(#p1a9e37a91e)" d="M 781.220111 71.658939 
L 587.999305 188.607141 
" style="fill:none;stroke:#000000;"/>
   </g>
   <g id="line2d_54">
    <path clip-path="url(#p1a9e37a91e)" d="M 786.905706 77.344534 
L 682.476614 181.773626 
" style="fill:none;stroke:#000000;"/>
   </g>
   <g id="line2d_55">
    <path clip-path="url(#p1a9e37a91e)" d="M 800.303705 86.224712 
L 768.001405 171.510527 
" style="fill:none;stroke:#000000;"/>
   </g>
   <g id="line2d_56">
    <path clip-path="url(#p1a9e37a91e)" d="M 816.384996 86.224712 
L 848.687296 171.510527 
" style="fill:none;stroke:#000000;"/>
   </g>
   <g id="line2d_57">
    <path clip-path="url(#p1a9e37a91e)" d="M 879.088269 63.946535 
L 288.731084 198.115526 
" style="fill:none;stroke:#000000;"/>
   </g>
   <g id="line2d_58">
    <path clip-path="url(#p1a9e37a91e)" d="M 879.088269 63.946535 
L 389.729572 197.858857 
" style="fill:none;stroke:#000000;"/>
   </g>
   <g id="line2d_59">
    <path clip-path="url(#p1a9e37a91e)" d="M 879.088269 63.946535 
L 490.677888 197.487814 
" style="fill:none;stroke:#000000;"/>
   </g>
   <g id="line2d_60">
    <path clip-path="url(#p1a9e37a91e)" d="M 880.68556 67.802737 
L 589.976883 193.201431 
" style="fill:none;stroke:#000000;"/>
   </g>
   <g id="line2d_61">
    <path clip-path="url(#p1a9e37a91e)" d="M 882.282851 71.658939 
L 689.062046 188.607141 
" style="fill:none;stroke:#000000;"/>
   </g>
   <g id="line2d_62">
    <path clip-path="url(#p1a9e37a91e)" d="M 887.968446 77.344534 
L 783.539354 181.773626 
" style="fill:none;stroke:#000000;"/>
   </g>
   <g id="line2d_63">
    <path clip-path="url(#p1a9e37a91e)" d="M 901.366445 86.224712 
L 869.064145 171.510527 
" style="fill:none;stroke:#000000;"/>
   </g>
   <g id="line2d_64">
    <path clip-path="url(#p1a9e37a91e)" d="M 980.151009 63.946535 
L 288.770513 198.302621 
" style="fill:none;stroke:#000000;"/>
   </g>
   <g id="line2d_65">
    <path clip-path="url(#p1a9e37a91e)" d="M 980.151009 63.946535 
L 389.793824 198.115526 
" style="fill:none;stroke:#000000;"/>
   </g>
   <g id="line2d_66">
    <path clip-path="url(#p1a9e37a91e)" d="M 980.151009 63.946535 
L 490.792312 197.858857 
" style="fill:none;stroke:#000000;"/>
   </g>
   <g id="line2d_67">
    <path clip-path="url(#p1a9e37a91e)" d="M 980.151009 63.946535 
L 591.740628 197.487814 
" style="fill:none;stroke:#000000;"/>
   </g>
   <g id="line2d_68">
    <path clip-path="url(#p1a9e37a91e)" d="M 981.7483 67.802737 
L 691.039623 193.201431 
" style="fill:none;stroke:#000000;"/>
   </g>
   <g id="line2d_69">
    <path clip-path="url(#p1a9e37a91e)" d="M 983.345592 71.658939 
L 790.124786 188.607141 
" style="fill:none;stroke:#000000;"/>
   </g>
   <g id="line2d_70">
    <path clip-path="url(#p1a9e37a91e)" d="M 989.031187 77.344534 
L 884.602095 181.773626 
" style="fill:none;stroke:#000000;"/>
   </g>
   <g id="line2d_71">
    <path clip-path="url(#p1a9e37a91e)" d="M 268.252329 234.62424 
L 334.283671 327.036159 
" style="fill:none;stroke:#000000;"/>
   </g>
   <g id="line2d_72">
    <path clip-path="url(#p1a9e37a91e)" d="M 276.780721 226.095847 
L 425.480634 336.875619 
" style="fill:none;stroke:#000000;"/>
   </g>
   <g id="line2d_73">
    <path clip-path="url(#p1a9e37a91e)" d="M 279.623519 223.25305 
L 523.101756 340.706443 
" style="fill:none;stroke:#000000;"/>
   </g>
   <g id="line2d_74">
    <path clip-path="url(#p1a9e37a91e)" d="M 281.22081 219.396848 
L 622.338973 345.100567 
" style="fill:none;stroke:#000000;"/>
   </g>
   <g id="line2d_75">
    <path clip-path="url(#p1a9e37a91e)" d="M 282.818101 215.540646 
L 721.693756 349.285821 
" style="fill:none;stroke:#000000;"/>
   </g>
   <g id="line2d_76">
    <path clip-path="url(#p1a9e37a91e)" d="M 353.562019 237.818822 
L 353.562019 322.711524 
" style="fill:none;stroke:#000000;"/>
   </g>
   <g id="line2d_77">
    <path clip-path="url(#p1a9e37a91e)" d="M 369.315069 234.62424 
L 435.346412 327.036159 
" style="fill:none;stroke:#000000;"/>
   </g>
   <g id="line2d_78">
    <path clip-path="url(#p1a9e37a91e)" d="M 377.843462 226.095847 
L 526.543375 336.875619 
" style="fill:none;stroke:#000000;"/>
   </g>
   <g id="line2d_79">
    <path clip-path="url(#p1a9e37a91e)" d="M 380.686259 223.25305 
L 624.164497 340.706443 
" style="fill:none;stroke:#000000;"/>
   </g>
   <g id="line2d_80">
    <path clip-path="url(#p1a9e37a91e)" d="M 382.28355 219.396848 
L 723.401713 345.100567 
" style="fill:none;stroke:#000000;"/>
   </g>
   <g id="line2d_81">
    <path clip-path="url(#p1a9e37a91e)" d="M 438.87171 234.62424 
L 372.840368 327.036159 
" style="fill:none;stroke:#000000;"/>
   </g>
   <g id="line2d_82">
    <path clip-path="url(#p1a9e37a91e)" d="M 454.62476 237.818822 
L 454.62476 322.711524 
" style="fill:none;stroke:#000000;"/>
   </g>
   <g id="line2d_83">
    <path clip-path="url(#p1a9e37a91e)" d="M 470.377809 234.62424 
L 536.409152 327.036159 
" style="fill:none;stroke:#000000;"/>
   </g>
   <g id="line2d_84">
    <path clip-path="url(#p1a9e37a91e)" d="M 478.906202 226.095847 
L 627.606115 336.875619 
" style="fill:none;stroke:#000000;"/>
   </g>
   <g id="line2d_85">
    <path clip-path="url(#p1a9e37a91e)" d="M 481.748999 223.25305 
L 725.227237 340.706443 
" style="fill:none;stroke:#000000;"/>
   </g>
   <g id="line2d_86">
    <path clip-path="url(#p1a9e37a91e)" d="M 531.406058 226.095847 
L 382.706145 336.875619 
" style="fill:none;stroke:#000000;"/>
   </g>
   <g id="line2d_87">
    <path clip-path="url(#p1a9e37a91e)" d="M 539.93445 234.62424 
L 473.903108 327.036159 
" style="fill:none;stroke:#000000;"/>
   </g>
   <g id="line2d_88">
    <path clip-path="url(#p1a9e37a91e)" d="M 555.6875 237.818822 
L 555.6875 322.711524 
" style="fill:none;stroke:#000000;"/>
   </g>
   <g id="line2d_89">
    <path clip-path="url(#p1a9e37a91e)" d="M 571.44055 234.62424 
L 637.471892 327.036159 
" style="fill:none;stroke:#000000;"/>
   </g>
   <g id="line2d_90">
    <path clip-path="url(#p1a9e37a91e)" d="M 579.968942 226.095847 
L 728.668855 336.875619 
" style="fill:none;stroke:#000000;"/>
   </g>
   <g id="line2d_91">
    <path clip-path="url(#p1a9e37a91e)" d="M 629.626001 223.25305 
L 386.147763 340.706443 
" style="fill:none;stroke:#000000;"/>
   </g>
   <g id="line2d_92">
    <path clip-path="url(#p1a9e37a91e)" d="M 632.468798 226.095847 
L 483.768885 336.875619 
" style="fill:none;stroke:#000000;"/>
   </g>
   <g id="line2d_93">
    <path clip-path="url(#p1a9e37a91e)" d="M 640.997191 234.62424 
L 574.965848 327.036159 
" style="fill:none;stroke:#000000;"/>
   </g>
   <g id="line2d_94">
    <path clip-path="url(#p1a9e37a91e)" d="M 656.75024 237.818822 
L 656.75024 322.711524 
" style="fill:none;stroke:#000000;"/>
   </g>
   <g id="line2d_95">
    <path clip-path="url(#p1a9e37a91e)" d="M 672.50329 234.62424 
L 738.534632 327.036159 
" style="fill:none;stroke:#000000;"/>
   </g>
   <g id="line2d_96">
    <path clip-path="url(#p1a9e37a91e)" d="M 729.09145 219.396848 
L 387.973287 345.100567 
" style="fill:none;stroke:#000000;"/>
   </g>
   <g id="line2d_97">
    <path clip-path="url(#p1a9e37a91e)" d="M 730.688741 223.25305 
L 487.210503 340.706443 
" style="fill:none;stroke:#000000;"/>
   </g>
   <g id="line2d_98">
    <path clip-path="url(#p1a9e37a91e)" d="M 733.531538 226.095847 
L 584.831625 336.875619 
" style="fill:none;stroke:#000000;"/>
   </g>
   <g id="line2d_99">
    <path clip-path="url(#p1a9e37a91e)" d="M 742.059931 234.62424 
L 676.028588 327.036159 
" style="fill:none;stroke:#000000;"/>
   </g>
   <g id="line2d_100">
    <path clip-path="url(#p1a9e37a91e)" d="M 757.812981 237.818822 
L 757.812981 322.711524 
" style="fill:none;stroke:#000000;"/>
   </g>
   <g id="line2d_101">
    <path clip-path="url(#p1a9e37a91e)" d="M 828.556899 215.540646 
L 389.681244 349.285821 
" style="fill:none;stroke:#000000;"/>
   </g>
   <g id="line2d_102">
    <path clip-path="url(#p1a9e37a91e)" d="M 830.15419 219.396848 
L 489.036027 345.100567 
" style="fill:none;stroke:#000000;"/>
   </g>
   <g id="line2d_103">
    <path clip-path="url(#p1a9e37a91e)" d="M 831.751481 223.25305 
L 588.273244 340.706443 
" style="fill:none;stroke:#000000;"/>
   </g>
   <g id="line2d_104">
    <path clip-path="url(#p1a9e37a91e)" d="M 834.594279 226.095847 
L 685.894366 336.875619 
" style="fill:none;stroke:#000000;"/>
   </g>
   <g id="line2d_105">
    <path clip-path="url(#p1a9e37a91e)" d="M 843.122671 234.62424 
L 777.091329 327.036159 
" style="fill:none;stroke:#000000;"/>
   </g>
   <g id="patch_24">
    <path clip-path="url(#p1a9e37a91e)" d="M 230.203089 185.20381 
L 224.486117 182.345324 
L 225.91536 180.916081 
L 225.91536 180.916081 
L 225.91536 180.916081 
L 225.91536 180.916081 
L 227.344603 179.486838 
z
" style="stroke:#000000;stroke-linejoin:miter;"/>
   </g>
   <g id="patch_25">
    <path clip-path="url(#p1a9e37a91e)" d="M 325.400267 191.118989 
L 319.166099 189.708368 
L 320.212702 187.97918 
L 320.212701 187.979179 
L 320.212701 187.979179 
L 320.212702 187.97918 
L 321.259305 186.249991 
z
" style="stroke:#000000;stroke-linejoin:miter;"/>
   </g>
   <g id="patch_26">
    <path clip-path="url(#p1a9e37a91e)" d="M 424.789659 195.122808 
L 418.421234 194.577037 
L 419.221808 192.721087 
L 419.221807 192.721086 
L 419.221807 192.721086 
L 419.221808 192.721087 
L 420.022382 190.865136 
z
" style="stroke:#000000;stroke-linejoin:miter;"/>
   </g>
   <g id="patch_27">
    <path clip-path="url(#p1a9e37a91e)" d="M 524.221818 199.065047 
L 517.830331 199.004942 
L 518.487511 197.093507 
L 518.48751 197.093506 
L 518.48751 197.093506 
L 518.487511 197.093507 
L 519.144691 195.182071 
z
" style="stroke:#000000;stroke-linejoin:miter;"/>
   </g>
   <g id="patch_28">
    <path clip-path="url(#p1a9e37a91e)" d="M 625.261673 199.139255 
L 618.879444 199.488335 
L 619.412943 197.538758 
L 619.412942 197.538758 
L 619.412942 197.538758 
L 619.412943 197.538758 
L 619.946442 195.589182 
z
" style="stroke:#000000;stroke-linejoin:miter;"/>
   </g>
   <g id="patch_29">
    <path clip-path="url(#p1a9e37a91e)" d="M 726.311563 199.190589 
L 719.950637 199.817754 
L 720.39858 197.84676 
L 720.398579 197.84676 
L 720.398579 197.84676 
L 720.39858 197.84676 
L 720.846523 195.875766 
z
" style="stroke:#000000;stroke-linejoin:miter;"/>
   </g>
   <g id="patch_30">
    <path clip-path="url(#p1a9e37a91e)" d="M 827.366417 199.228008 
L 821.028428 200.055412 
L 821.414006 198.071275 
L 821.414005 198.071275 
L 821.414005 198.071275 
L 821.414006 198.071275 
L 821.799583 196.087137 
z
" style="stroke:#000000;stroke-linejoin:miter;"/>
   </g>
   <g id="patch_31">
    <path clip-path="url(#p1a9e37a91e)" d="M 244.029078 176.047049 
L 239.991082 171.092324 
L 241.881299 170.376397 
L 241.881299 170.376397 
L 241.881299 170.376397 
L 241.881299 170.376397 
L 243.771516 169.660471 
z
" style="stroke:#000000;stroke-linejoin:miter;"/>
   </g>
   <g id="patch_32">
    <path clip-path="url(#p1a9e37a91e)" d="M 331.26583 185.20381 
L 325.548858 182.345324 
L 326.978101 180.916081 
L 326.9781 180.916081 
L 326.9781 180.916081 
L 326.978101 180.916081 
L 328.407344 179.486838 
z
" style="stroke:#000000;stroke-linejoin:miter;"/>
   </g>
   <g id="patch_33">
    <path clip-path="url(#p1a9e37a91e)" d="M 426.463008 191.118989 
L 420.228839 189.708368 
L 421.275442 187.97918 
L 421.275441 187.979179 
L 421.275441 187.979179 
L 421.275442 187.97918 
L 422.322045 186.249991 
z
" style="stroke:#000000;stroke-linejoin:miter;"/>
   </g>
   <g id="patch_34">
    <path clip-path="url(#p1a9e37a91e)" d="M 525.8524 195.122808 
L 519.483974 194.577037 
L 520.284548 192.721087 
L 520.284547 192.721086 
L 520.284547 192.721086 
L 520.284548 192.721087 
L 521.085122 190.865136 
z
" style="stroke:#000000;stroke-linejoin:miter;"/>
   </g>
   <g id="patch_35">
    <path clip-path="url(#p1a9e37a91e)" d="M 625.284558 199.065047 
L 618.893072 199.004942 
L 619.550252 197.093507 
L 619.550251 197.093506 
L 619.550251 197.093506 
L 619.550252 197.093507 
L 620.207432 195.182071 
z
" style="stroke:#000000;stroke-linejoin:miter;"/>
   </g>
   <g id="patch_36">
    <path clip-path="url(#p1a9e37a91e)" d="M 726.324413 199.139255 
L 719.942184 199.488335 
L 720.475683 197.538758 
L 720.475682 197.538758 
L 720.475682 197.538758 
L 720.475683 197.538758 
L 721.009182 195.589182 
z
" style="stroke:#000000;stroke-linejoin:miter;"/>
   </g>
   <g id="patch_37">
    <path clip-path="url(#p1a9e37a91e)" d="M 827.374303 199.190589 
L 821.013378 199.817754 
L 821.461321 197.84676 
L 821.46132 197.84676 
L 821.46132 197.84676 
L 821.461321 197.84676 
L 821.909264 195.875766 
z
" style="stroke:#000000;stroke-linejoin:miter;"/>
   </g>
   <g id="patch_38">
    <path clip-path="url(#p1a9e37a91e)" d="M 260.96948 176.047049 
L 261.227042 169.660471 
L 263.117259 170.376397 
L 263.117259 170.376397 
L 263.117259 170.376397 
L 263.117259 170.376397 
L 265.007476 171.092324 
z
" style="stroke:#000000;stroke-linejoin:miter;"/>
   </g>
   <g id="patch_39">
    <path clip-path="url(#p1a9e37a91e)" d="M 345.091818 176.047049 
L 341.053822 171.092324 
L 342.944039 170.376397 
L 342.944039 170.376397 
L 342.944039 170.376397 
L 342.944039 170.376397 
L 344.834256 169.660471 
z
" style="stroke:#000000;stroke-linejoin:miter;"/>
   </g>
   <g id="patch_40">
    <path clip-path="url(#p1a9e37a91e)" d="M 432.32857 185.20381 
L 426.611598 182.345324 
L 428.040841 180.916081 
L 428.04084 180.916081 
L 428.04084 180.916081 
L 428.040841 180.916081 
L 429.470084 179.486838 
z
" style="stroke:#000000;stroke-linejoin:miter;"/>
   </g>
   <g id="patch_41">
    <path clip-path="url(#p1a9e37a91e)" d="M 527.525748 191.118989 
L 521.291579 189.708368 
L 522.338182 187.97918 
L 522.338182 187.979179 
L 522.338182 187.979179 
L 522.338182 187.97918 
L 523.384785 186.249991 
z
" style="stroke:#000000;stroke-linejoin:miter;"/>
   </g>
   <g id="patch_42">
    <path clip-path="url(#p1a9e37a91e)" d="M 626.91514 195.122808 
L 620.546714 194.577037 
L 621.347288 192.721087 
L 621.347287 192.721086 
L 621.347287 192.721086 
L 621.347288 192.721087 
L 622.147862 190.865136 
z
" style="stroke:#000000;stroke-linejoin:miter;"/>
   </g>
   <g id="patch_43">
    <path clip-path="url(#p1a9e37a91e)" d="M 726.347298 199.065047 
L 719.955812 199.004942 
L 720.612992 197.093507 
L 720.612991 197.093506 
L 720.612991 197.093506 
L 720.612992 197.093507 
L 721.270172 195.182071 
z
" style="stroke:#000000;stroke-linejoin:miter;"/>
   </g>
   <g id="patch_44">
    <path clip-path="url(#p1a9e37a91e)" d="M 827.387154 199.139255 
L 821.004924 199.488335 
L 821.538423 197.538758 
L 821.538422 197.538758 
L 821.538422 197.538758 
L 821.538423 197.538758 
L 822.071922 195.589182 
z
" style="stroke:#000000;stroke-linejoin:miter;"/>
   </g>
   <g id="patch_45">
    <path clip-path="url(#p1a9e37a91e)" d="M 274.795469 185.20381 
L 277.653955 179.486838 
L 279.083198 180.916081 
L 279.083199 180.916081 
L 279.083199 180.916081 
L 279.083198 180.916081 
L 280.512441 182.345324 
z
" style="stroke:#000000;stroke-linejoin:miter;"/>
   </g>
   <g id="patch_46">
    <path clip-path="url(#p1a9e37a91e)" d="M 362.03222 176.047049 
L 362.289782 169.660471 
L 364.179999 170.376397 
L 364.18 170.376397 
L 364.18 170.376397 
L 364.179999 170.376397 
L 366.070216 171.092324 
z
" style="stroke:#000000;stroke-linejoin:miter;"/>
   </g>
   <g id="patch_47">
    <path clip-path="url(#p1a9e37a91e)" d="M 446.154559 176.047049 
L 442.116563 171.092324 
L 444.00678 170.376397 
L 444.006779 170.376397 
L 444.006779 170.376397 
L 444.00678 170.376397 
L 445.896997 169.660471 
z
" style="stroke:#000000;stroke-linejoin:miter;"/>
   </g>
   <g id="patch_48">
    <path clip-path="url(#p1a9e37a91e)" d="M 533.39131 185.20381 
L 527.674338 182.345324 
L 529.103581 180.916081 
L 529.103581 180.916081 
L 529.103581 180.916081 
L 529.103581 180.916081 
L 530.532824 179.486838 
z
" style="stroke:#000000;stroke-linejoin:miter;"/>
   </g>
   <g id="patch_49">
    <path clip-path="url(#p1a9e37a91e)" d="M 628.588488 191.118989 
L 622.35432 189.708368 
L 623.400923 187.97918 
L 623.400922 187.979179 
L 623.400922 187.979179 
L 623.400923 187.97918 
L 624.447526 186.249991 
z
" style="stroke:#000000;stroke-linejoin:miter;"/>
   </g>
   <g id="patch_50">
    <path clip-path="url(#p1a9e37a91e)" d="M 727.97788 195.122808 
L 721.609455 194.577037 
L 722.410029 192.721087 
L 722.410028 192.721086 
L 722.410028 192.721086 
L 722.410029 192.721087 
L 723.210603 190.865136 
z
" style="stroke:#000000;stroke-linejoin:miter;"/>
   </g>
   <g id="patch_51">
    <path clip-path="url(#p1a9e37a91e)" d="M 827.410039 199.065047 
L 821.018552 199.004942 
L 821.675732 197.093507 
L 821.675731 197.093506 
L 821.675731 197.093506 
L 821.675732 197.093507 
L 822.332912 195.182071 
z
" style="stroke:#000000;stroke-linejoin:miter;"/>
   </g>
   <g id="patch_52">
    <path clip-path="url(#p1a9e37a91e)" d="M 280.661031 191.118989 
L 284.801994 186.249991 
L 285.848597 187.97918 
L 285.848598 187.979179 
L 285.848598 187.979179 
L 285.848597 187.97918 
L 286.8952 189.708368 
z
" style="stroke:#000000;stroke-linejoin:miter;"/>
   </g>
   <g id="patch_53">
    <path clip-path="url(#p1a9e37a91e)" d="M 375.858209 185.20381 
L 378.716695 179.486838 
L 380.145938 180.916081 
L 380.145939 180.916081 
L 380.145939 180.916081 
L 380.145938 180.916081 
L 381.575181 182.345324 
z
" style="stroke:#000000;stroke-linejoin:miter;"/>
   </g>
   <g id="patch_54">
    <path clip-path="url(#p1a9e37a91e)" d="M 463.094961 176.047049 
L 463.352523 169.660471 
L 465.24274 170.376397 
L 465.24274 170.376397 
L 465.24274 170.376397 
L 465.24274 170.376397 
L 467.132957 171.092324 
z
" style="stroke:#000000;stroke-linejoin:miter;"/>
   </g>
   <g id="patch_55">
    <path clip-path="url(#p1a9e37a91e)" d="M 547.217299 176.047049 
L 543.179303 171.092324 
L 545.06952 170.376397 
L 545.06952 170.376397 
L 545.06952 170.376397 
L 545.06952 170.376397 
L 546.959737 169.660471 
z
" style="stroke:#000000;stroke-linejoin:miter;"/>
   </g>
   <g id="patch_56">
    <path clip-path="url(#p1a9e37a91e)" d="M 634.454051 185.20381 
L 628.737079 182.345324 
L 630.166322 180.916081 
L 630.166321 180.916081 
L 630.166321 180.916081 
L 630.166322 180.916081 
L 631.595565 179.486838 
z
" style="stroke:#000000;stroke-linejoin:miter;"/>
   </g>
   <g id="patch_57">
    <path clip-path="url(#p1a9e37a91e)" d="M 729.651229 191.118989 
L 723.41706 189.708368 
L 724.463663 187.97918 
L 724.463662 187.979179 
L 724.463662 187.979179 
L 724.463663 187.97918 
L 725.510266 186.249991 
z
" style="stroke:#000000;stroke-linejoin:miter;"/>
   </g>
   <g id="patch_58">
    <path clip-path="url(#p1a9e37a91e)" d="M 829.040621 195.122808 
L 822.672195 194.577037 
L 823.472769 192.721087 
L 823.472768 192.721086 
L 823.472768 192.721086 
L 823.472769 192.721087 
L 824.273343 190.865136 
z
" style="stroke:#000000;stroke-linejoin:miter;"/>
   </g>
   <g id="patch_59">
    <path clip-path="url(#p1a9e37a91e)" d="M 282.334379 195.122808 
L 287.101657 190.865136 
L 287.902231 192.721087 
L 287.902232 192.721086 
L 287.902232 192.721086 
L 287.902231 192.721087 
L 288.702805 194.577037 
z
" style="stroke:#000000;stroke-linejoin:miter;"/>
   </g>
   <g id="patch_60">
    <path clip-path="url(#p1a9e37a91e)" d="M 381.723771 191.118989 
L 385.864734 186.249991 
L 386.911337 187.97918 
L 386.911338 187.979179 
L 386.911338 187.979179 
L 386.911337 187.97918 
L 387.95794 189.708368 
z
" style="stroke:#000000;stroke-linejoin:miter;"/>
   </g>
   <g id="patch_61">
    <path clip-path="url(#p1a9e37a91e)" d="M 476.920949 185.20381 
L 479.779435 179.486838 
L 481.208678 180.916081 
L 481.208679 180.916081 
L 481.208679 180.916081 
L 481.208678 180.916081 
L 482.637921 182.345324 
z
" style="stroke:#000000;stroke-linejoin:miter;"/>
   </g>
   <g id="patch_62">
    <path clip-path="url(#p1a9e37a91e)" d="M 564.157701 176.047049 
L 564.415263 169.660471 
L 566.30548 170.376397 
L 566.30548 170.376397 
L 566.30548 170.376397 
L 566.30548 170.376397 
L 568.195697 171.092324 
z
" style="stroke:#000000;stroke-linejoin:miter;"/>
   </g>
   <g id="patch_63">
    <path clip-path="url(#p1a9e37a91e)" d="M 648.280039 176.047049 
L 644.242043 171.092324 
L 646.13226 170.376397 
L 646.13226 170.376397 
L 646.13226 170.376397 
L 646.13226 170.376397 
L 648.022477 169.660471 
z
" style="stroke:#000000;stroke-linejoin:miter;"/>
   </g>
   <g id="patch_64">
    <path clip-path="url(#p1a9e37a91e)" d="M 735.516791 185.20381 
L 729.799819 182.345324 
L 731.229062 180.916081 
L 731.229061 180.916081 
L 731.229061 180.916081 
L 731.229062 180.916081 
L 732.658305 179.486838 
z
" style="stroke:#000000;stroke-linejoin:miter;"/>
   </g>
   <g id="patch_65">
    <path clip-path="url(#p1a9e37a91e)" d="M 830.713969 191.118989 
L 824.4798 189.708368 
L 825.526403 187.97918 
L 825.526402 187.979179 
L 825.526402 187.979179 
L 825.526403 187.97918 
L 826.573006 186.249991 
z
" style="stroke:#000000;stroke-linejoin:miter;"/>
   </g>
   <g id="patch_66">
    <path clip-path="url(#p1a9e37a91e)" d="M 283.964961 199.065047 
L 289.042088 195.182071 
L 289.699268 197.093507 
L 289.699269 197.093506 
L 289.699269 197.093506 
L 289.699268 197.093507 
L 290.356448 199.004942 
z
" style="stroke:#000000;stroke-linejoin:miter;"/>
   </g>
   <g id="patch_67">
    <path clip-path="url(#p1a9e37a91e)" d="M 383.39712 195.122808 
L 388.164397 190.865136 
L 388.964971 192.721087 
L 388.964972 192.721086 
L 388.964972 192.721086 
L 388.964971 192.721087 
L 389.765545 194.577037 
z
" style="stroke:#000000;stroke-linejoin:miter;"/>
   </g>
   <g id="patch_68">
    <path clip-path="url(#p1a9e37a91e)" d="M 482.786512 191.118989 
L 486.927474 186.249991 
L 487.974077 187.97918 
L 487.974078 187.979179 
L 487.974078 187.979179 
L 487.974077 187.97918 
L 489.02068 189.708368 
z
" style="stroke:#000000;stroke-linejoin:miter;"/>
   </g>
   <g id="patch_69">
    <path clip-path="url(#p1a9e37a91e)" d="M 577.98369 185.20381 
L 580.842176 179.486838 
L 582.271419 180.916081 
L 582.271419 180.916081 
L 582.271419 180.916081 
L 582.271419 180.916081 
L 583.700662 182.345324 
z
" style="stroke:#000000;stroke-linejoin:miter;"/>
   </g>
   <g id="patch_70">
    <path clip-path="url(#p1a9e37a91e)" d="M 665.220441 176.047049 
L 665.478003 169.660471 
L 667.36822 170.376397 
L 667.368221 170.376397 
L 667.368221 170.376397 
L 667.36822 170.376397 
L 669.258437 171.092324 
z
" style="stroke:#000000;stroke-linejoin:miter;"/>
   </g>
   <g id="patch_71">
    <path clip-path="url(#p1a9e37a91e)" d="M 749.34278 176.047049 
L 745.304784 171.092324 
L 747.195001 170.376397 
L 747.195 170.376397 
L 747.195 170.376397 
L 747.195001 170.376397 
L 749.085218 169.660471 
z
" style="stroke:#000000;stroke-linejoin:miter;"/>
   </g>
   <g id="patch_72">
    <path clip-path="url(#p1a9e37a91e)" d="M 836.579531 185.20381 
L 830.862559 182.345324 
L 832.291802 180.916081 
L 832.291801 180.916081 
L 832.291801 180.916081 
L 832.291802 180.916081 
L 833.721045 179.486838 
z
" style="stroke:#000000;stroke-linejoin:miter;"/>
   </g>
   <g id="patch_73">
    <path clip-path="url(#p1a9e37a91e)" d="M 283.987846 199.139255 
L 289.303078 195.589182 
L 289.836577 197.538758 
L 289.836578 197.538758 
L 289.836578 197.538758 
L 289.836577 197.538758 
L 290.370076 199.488335 
z
" style="stroke:#000000;stroke-linejoin:miter;"/>
   </g>
   <g id="patch_74">
    <path clip-path="url(#p1a9e37a91e)" d="M 385.027702 199.065047 
L 390.104828 195.182071 
L 390.762008 197.093507 
L 390.762009 197.093506 
L 390.762009 197.093506 
L 390.762008 197.093507 
L 391.419188 199.004942 
z
" style="stroke:#000000;stroke-linejoin:miter;"/>
   </g>
   <g id="patch_75">
    <path clip-path="url(#p1a9e37a91e)" d="M 484.45986 195.122808 
L 489.227138 190.865136 
L 490.027712 192.721087 
L 490.027713 192.721086 
L 490.027713 192.721086 
L 490.027712 192.721087 
L 490.828286 194.577037 
z
" style="stroke:#000000;stroke-linejoin:miter;"/>
   </g>
   <g id="patch_76">
    <path clip-path="url(#p1a9e37a91e)" d="M 583.849252 191.118989 
L 587.990215 186.249991 
L 589.036818 187.97918 
L 589.036818 187.979179 
L 589.036818 187.979179 
L 589.036818 187.97918 
L 590.083421 189.708368 
z
" style="stroke:#000000;stroke-linejoin:miter;"/>
   </g>
   <g id="patch_77">
    <path clip-path="url(#p1a9e37a91e)" d="M 679.04643 185.20381 
L 681.904916 179.486838 
L 683.334159 180.916081 
L 683.33416 180.916081 
L 683.33416 180.916081 
L 683.334159 180.916081 
L 684.763402 182.345324 
z
" style="stroke:#000000;stroke-linejoin:miter;"/>
   </g>
   <g id="patch_78">
    <path clip-path="url(#p1a9e37a91e)" d="M 766.283182 176.047049 
L 766.540744 169.660471 
L 768.430961 170.376397 
L 768.430961 170.376397 
L 768.430961 170.376397 
L 768.430961 170.376397 
L 770.321178 171.092324 
z
" style="stroke:#000000;stroke-linejoin:miter;"/>
   </g>
   <g id="patch_79">
    <path clip-path="url(#p1a9e37a91e)" d="M 850.40552 176.047049 
L 846.367524 171.092324 
L 848.257741 170.376397 
L 848.257741 170.376397 
L 848.257741 170.376397 
L 848.257741 170.376397 
L 850.147958 169.660471 
z
" style="stroke:#000000;stroke-linejoin:miter;"/>
   </g>
   <g id="patch_80">
    <path clip-path="url(#p1a9e37a91e)" d="M 284.000697 199.190589 
L 289.465736 195.875766 
L 289.913679 197.84676 
L 289.91368 197.84676 
L 289.91368 197.84676 
L 289.913679 197.84676 
L 290.361622 199.817754 
z
" style="stroke:#000000;stroke-linejoin:miter;"/>
   </g>
   <g id="patch_81">
    <path clip-path="url(#p1a9e37a91e)" d="M 385.050587 199.139255 
L 390.365818 195.589182 
L 390.899317 197.538758 
L 390.899318 197.538758 
L 390.899318 197.538758 
L 390.899317 197.538758 
L 391.432816 199.488335 
z
" style="stroke:#000000;stroke-linejoin:miter;"/>
   </g>
   <g id="patch_82">
    <path clip-path="url(#p1a9e37a91e)" d="M 486.090442 199.065047 
L 491.167568 195.182071 
L 491.824748 197.093507 
L 491.824749 197.093506 
L 491.824749 197.093506 
L 491.824748 197.093507 
L 492.481928 199.004942 
z
" style="stroke:#000000;stroke-linejoin:miter;"/>
   </g>
   <g id="patch_83">
    <path clip-path="url(#p1a9e37a91e)" d="M 585.5226 195.122808 
L 590.289878 190.865136 
L 591.090452 192.721087 
L 591.090453 192.721086 
L 591.090453 192.721086 
L 591.090452 192.721087 
L 591.891026 194.577037 
z
" style="stroke:#000000;stroke-linejoin:miter;"/>
   </g>
   <g id="patch_84">
    <path clip-path="url(#p1a9e37a91e)" d="M 684.911992 191.118989 
L 689.052955 186.249991 
L 690.099558 187.97918 
L 690.099559 187.979179 
L 690.099559 187.979179 
L 690.099558 187.97918 
L 691.146161 189.708368 
z
" style="stroke:#000000;stroke-linejoin:miter;"/>
   </g>
   <g id="patch_85">
    <path clip-path="url(#p1a9e37a91e)" d="M 780.10917 185.20381 
L 782.967656 179.486838 
L 784.396899 180.916081 
L 784.3969 180.916081 
L 784.3969 180.916081 
L 784.396899 180.916081 
L 785.826142 182.345324 
z
" style="stroke:#000000;stroke-linejoin:miter;"/>
   </g>
   <g id="patch_86">
    <path clip-path="url(#p1a9e37a91e)" d="M 867.345922 176.047049 
L 867.603484 169.660471 
L 869.493701 170.376397 
L 869.493701 170.376397 
L 869.493701 170.376397 
L 869.493701 170.376397 
L 871.383918 171.092324 
z
" style="stroke:#000000;stroke-linejoin:miter;"/>
   </g>
   <g id="patch_87">
    <path clip-path="url(#p1a9e37a91e)" d="M 284.008583 199.228008 
L 289.575417 196.087137 
L 289.960994 198.071275 
L 289.960995 198.071275 
L 289.960995 198.071275 
L 289.960994 198.071275 
L 290.346572 200.055412 
z
" style="stroke:#000000;stroke-linejoin:miter;"/>
   </g>
   <g id="patch_88">
    <path clip-path="url(#p1a9e37a91e)" d="M 385.063437 199.190589 
L 390.528477 195.875766 
L 390.97642 197.84676 
L 390.976421 197.84676 
L 390.976421 197.84676 
L 390.97642 197.84676 
L 391.424363 199.817754 
z
" style="stroke:#000000;stroke-linejoin:miter;"/>
   </g>
   <g id="patch_89">
    <path clip-path="url(#p1a9e37a91e)" d="M 486.113327 199.139255 
L 491.428558 195.589182 
L 491.962057 197.538758 
L 491.962058 197.538758 
L 491.962058 197.538758 
L 491.962057 197.538758 
L 492.495556 199.488335 
z
" style="stroke:#000000;stroke-linejoin:miter;"/>
   </g>
   <g id="patch_90">
    <path clip-path="url(#p1a9e37a91e)" d="M 587.153182 199.065047 
L 592.230309 195.182071 
L 592.887489 197.093507 
L 592.88749 197.093506 
L 592.88749 197.093506 
L 592.887489 197.093507 
L 593.544669 199.004942 
z
" style="stroke:#000000;stroke-linejoin:miter;"/>
   </g>
   <g id="patch_91">
    <path clip-path="url(#p1a9e37a91e)" d="M 686.585341 195.122808 
L 691.352618 190.865136 
L 692.153192 192.721087 
L 692.153193 192.721086 
L 692.153193 192.721086 
L 692.153192 192.721087 
L 692.953766 194.577037 
z
" style="stroke:#000000;stroke-linejoin:miter;"/>
   </g>
   <g id="patch_92">
    <path clip-path="url(#p1a9e37a91e)" d="M 785.974733 191.118989 
L 790.115695 186.249991 
L 791.162298 187.97918 
L 791.162299 187.979179 
L 791.162299 187.979179 
L 791.162298 187.97918 
L 792.208901 189.708368 
z
" style="stroke:#000000;stroke-linejoin:miter;"/>
   </g>
   <g id="patch_93">
    <path clip-path="url(#p1a9e37a91e)" d="M 881.171911 185.20381 
L 884.030397 179.486838 
L 885.45964 180.916081 
L 885.45964 180.916081 
L 885.45964 180.916081 
L 885.45964 180.916081 
L 886.888883 182.345324 
z
" style="stroke:#000000;stroke-linejoin:miter;"/>
   </g>
   <g id="patch_94">
    <path clip-path="url(#p1a9e37a91e)" d="M 337.103911 330.983129 
L 331.934042 327.224517 
L 333.578612 326.049418 
L 333.578612 326.049417 
L 333.578612 326.049417 
L 333.578612 326.049418 
L 335.223183 324.874318 
z
" style="stroke:#000000;stroke-linejoin:miter;"/>
   </g>
   <g id="patch_95">
    <path clip-path="url(#p1a9e37a91e)" d="M 429.370782 339.773735 
L 423.300551 337.771985 
L 424.508099 336.151091 
L 424.508098 336.15109 
L 424.508098 336.15109 
L 424.508099 336.151091 
L 425.715647 334.530196 
z
" style="stroke:#000000;stroke-linejoin:miter;"/>
   </g>
   <g id="patch_96">
    <path clip-path="url(#p1a9e37a91e)" d="M 527.47096 342.814138 
L 521.13125 342.000021 
L 522.009456 340.179519 
L 522.009455 340.179519 
L 522.009455 340.179519 
L 522.009456 340.179519 
L 522.887662 338.359018 
z
" style="stroke:#000000;stroke-linejoin:miter;"/>
   </g>
   <g id="patch_97">
    <path clip-path="url(#p1a9e37a91e)" d="M 626.890763 346.777924 
L 620.502128 346.577807 
L 621.201026 344.681228 
L 621.201025 344.681228 
L 621.201025 344.681228 
L 621.201026 344.681228 
L 621.899925 342.784649 
z
" style="stroke:#000000;stroke-linejoin:miter;"/>
   </g>
   <g id="patch_98">
    <path clip-path="url(#p1a9e37a91e)" d="M 726.334079 350.699936 
L 719.944461 350.86576 
L 720.533676 348.932292 
L 720.533675 348.932292 
L 720.533675 348.932292 
L 720.533676 348.932292 
L 721.122891 346.998825 
z
" style="stroke:#000000;stroke-linejoin:miter;"/>
   </g>
   <g id="patch_99">
    <path clip-path="url(#p1a9e37a91e)" d="M 353.562019 327.562536 
L 351.540765 321.498772 
L 353.562019 321.498772 
L 353.562019 321.498771 
L 353.562019 321.498771 
L 353.562019 321.498772 
L 355.583274 321.498772 
z
" style="stroke:#000000;stroke-linejoin:miter;"/>
   </g>
   <g id="patch_100">
    <path clip-path="url(#p1a9e37a91e)" d="M 438.166651 330.983129 
L 432.996782 327.224517 
L 434.641352 326.049418 
L 434.641352 326.049417 
L 434.641352 326.049417 
L 434.641352 326.049418 
L 436.285923 324.874318 
z
" style="stroke:#000000;stroke-linejoin:miter;"/>
   </g>
   <g id="patch_101">
    <path clip-path="url(#p1a9e37a91e)" d="M 530.433522 339.773735 
L 524.363291 337.771985 
L 525.570839 336.151091 
L 525.570838 336.15109 
L 525.570838 336.15109 
L 525.570839 336.151091 
L 526.778387 334.530196 
z
" style="stroke:#000000;stroke-linejoin:miter;"/>
   </g>
   <g id="patch_102">
    <path clip-path="url(#p1a9e37a91e)" d="M 628.533701 342.814138 
L 622.193991 342.000021 
L 623.072197 340.179519 
L 623.072196 340.179519 
L 623.072196 340.179519 
L 623.072197 340.179519 
L 623.950403 338.359018 
z
" style="stroke:#000000;stroke-linejoin:miter;"/>
   </g>
   <g id="patch_103">
    <path clip-path="url(#p1a9e37a91e)" d="M 727.953503 346.777924 
L 721.564868 346.577807 
L 722.263766 344.681228 
L 722.263766 344.681228 
L 722.263766 344.681228 
L 722.263766 344.681228 
L 722.962665 342.784649 
z
" style="stroke:#000000;stroke-linejoin:miter;"/>
   </g>
   <g id="patch_104">
    <path clip-path="url(#p1a9e37a91e)" d="M 370.020128 330.983129 
L 371.900856 324.874318 
L 373.545427 326.049418 
L 373.545427 326.049417 
L 373.545427 326.049417 
L 373.545427 326.049418 
L 375.189997 327.224517 
z
" style="stroke:#000000;stroke-linejoin:miter;"/>
   </g>
   <g id="patch_105">
    <path clip-path="url(#p1a9e37a91e)" d="M 454.62476 327.562536 
L 452.603505 321.498772 
L 454.62476 321.498772 
L 454.62476 321.498771 
L 454.62476 321.498771 
L 454.62476 321.498772 
L 456.646014 321.498772 
z
" style="stroke:#000000;stroke-linejoin:miter;"/>
   </g>
   <g id="patch_106">
    <path clip-path="url(#p1a9e37a91e)" d="M 539.229391 330.983129 
L 534.059522 327.224517 
L 535.704093 326.049418 
L 535.704092 326.049417 
L 535.704092 326.049417 
L 535.704093 326.049418 
L 537.348663 324.874318 
z
" style="stroke:#000000;stroke-linejoin:miter;"/>
   </g>
   <g id="patch_107">
    <path clip-path="url(#p1a9e37a91e)" d="M 631.496262 339.773735 
L 625.426031 337.771985 
L 626.633579 336.151091 
L 626.633578 336.15109 
L 626.633578 336.15109 
L 626.633579 336.151091 
L 627.841127 334.530196 
z
" style="stroke:#000000;stroke-linejoin:miter;"/>
   </g>
   <g id="patch_108">
    <path clip-path="url(#p1a9e37a91e)" d="M 729.596441 342.814138 
L 723.256731 342.000021 
L 724.134937 340.179519 
L 724.134936 340.179519 
L 724.134936 340.179519 
L 724.134937 340.179519 
L 725.013143 338.359018 
z
" style="stroke:#000000;stroke-linejoin:miter;"/>
   </g>
   <g id="patch_109">
    <path clip-path="url(#p1a9e37a91e)" d="M 378.815997 339.773735 
L 382.471132 334.530196 
L 383.67868 336.151091 
L 383.678681 336.15109 
L 383.678681 336.15109 
L 383.67868 336.151091 
L 384.886229 337.771985 
z
" style="stroke:#000000;stroke-linejoin:miter;"/>
   </g>
   <g id="patch_110">
    <path clip-path="url(#p1a9e37a91e)" d="M 471.082868 330.983129 
L 472.963596 324.874318 
L 474.608167 326.049418 
L 474.608168 326.049417 
L 474.608168 326.049417 
L 474.608167 326.049418 
L 476.252737 327.224517 
z
" style="stroke:#000000;stroke-linejoin:miter;"/>
   </g>
   <g id="patch_111">
    <path clip-path="url(#p1a9e37a91e)" d="M 555.6875 327.562536 
L 553.666245 321.498772 
L 555.6875 321.498772 
L 555.6875 321.498771 
L 555.6875 321.498771 
L 555.6875 321.498772 
L 557.708755 321.498772 
z
" style="stroke:#000000;stroke-linejoin:miter;"/>
   </g>
   <g id="patch_112">
    <path clip-path="url(#p1a9e37a91e)" d="M 640.292132 330.983129 
L 635.122263 327.224517 
L 636.766833 326.049418 
L 636.766832 326.049417 
L 636.766832 326.049417 
L 636.766833 326.049418 
L 638.411404 324.874318 
z
" style="stroke:#000000;stroke-linejoin:miter;"/>
   </g>
   <g id="patch_113">
    <path clip-path="url(#p1a9e37a91e)" d="M 732.559003 339.773735 
L 726.488771 337.771985 
L 727.69632 336.151091 
L 727.696319 336.15109 
L 727.696319 336.15109 
L 727.69632 336.151091 
L 728.903868 334.530196 
z
" style="stroke:#000000;stroke-linejoin:miter;"/>
   </g>
   <g id="patch_114">
    <path clip-path="url(#p1a9e37a91e)" d="M 381.778559 342.814138 
L 386.361857 338.359018 
L 387.240063 340.179519 
L 387.240064 340.179519 
L 387.240064 340.179519 
L 387.240063 340.179519 
L 388.118269 342.000021 
z
" style="stroke:#000000;stroke-linejoin:miter;"/>
   </g>
   <g id="patch_115">
    <path clip-path="url(#p1a9e37a91e)" d="M 479.878738 339.773735 
L 483.533873 334.530196 
L 484.741421 336.151091 
L 484.741422 336.15109 
L 484.741422 336.15109 
L 484.741421 336.151091 
L 485.948969 337.771985 
z
" style="stroke:#000000;stroke-linejoin:miter;"/>
   </g>
   <g id="patch_116">
    <path clip-path="url(#p1a9e37a91e)" d="M 572.145609 330.983129 
L 574.026337 324.874318 
L 575.670907 326.049418 
L 575.670908 326.049417 
L 575.670908 326.049417 
L 575.670907 326.049418 
L 577.315478 327.224517 
z
" style="stroke:#000000;stroke-linejoin:miter;"/>
   </g>
   <g id="patch_117">
    <path clip-path="url(#p1a9e37a91e)" d="M 656.75024 327.562536 
L 654.728986 321.498772 
L 656.75024 321.498772 
L 656.75024 321.498771 
L 656.75024 321.498771 
L 656.75024 321.498772 
L 658.771495 321.498772 
z
" style="stroke:#000000;stroke-linejoin:miter;"/>
   </g>
   <g id="patch_118">
    <path clip-path="url(#p1a9e37a91e)" d="M 741.354872 330.983129 
L 736.185003 327.224517 
L 737.829573 326.049418 
L 737.829573 326.049417 
L 737.829573 326.049417 
L 737.829573 326.049418 
L 739.474144 324.874318 
z
" style="stroke:#000000;stroke-linejoin:miter;"/>
   </g>
   <g id="patch_119">
    <path clip-path="url(#p1a9e37a91e)" d="M 383.421497 346.777924 
L 388.412335 342.784649 
L 389.111234 344.681228 
L 389.111234 344.681228 
L 389.111234 344.681228 
L 389.111234 344.681228 
L 389.810132 346.577807 
z
" style="stroke:#000000;stroke-linejoin:miter;"/>
   </g>
   <g id="patch_120">
    <path clip-path="url(#p1a9e37a91e)" d="M 482.841299 342.814138 
L 487.424597 338.359018 
L 488.302803 340.179519 
L 488.302804 340.179519 
L 488.302804 340.179519 
L 488.302803 340.179519 
L 489.181009 342.000021 
z
" style="stroke:#000000;stroke-linejoin:miter;"/>
   </g>
   <g id="patch_121">
    <path clip-path="url(#p1a9e37a91e)" d="M 580.941478 339.773735 
L 584.596613 334.530196 
L 585.804161 336.151091 
L 585.804162 336.15109 
L 585.804162 336.15109 
L 585.804161 336.151091 
L 587.011709 337.771985 
z
" style="stroke:#000000;stroke-linejoin:miter;"/>
   </g>
   <g id="patch_122">
    <path clip-path="url(#p1a9e37a91e)" d="M 673.208349 330.983129 
L 675.089077 324.874318 
L 676.733648 326.049418 
L 676.733648 326.049417 
L 676.733648 326.049417 
L 676.733648 326.049418 
L 678.378218 327.224517 
z
" style="stroke:#000000;stroke-linejoin:miter;"/>
   </g>
   <g id="patch_123">
    <path clip-path="url(#p1a9e37a91e)" d="M 757.812981 327.562536 
L 755.791726 321.498772 
L 757.812981 321.498772 
L 757.812981 321.498771 
L 757.812981 321.498771 
L 757.812981 321.498772 
L 759.834235 321.498772 
z
" style="stroke:#000000;stroke-linejoin:miter;"/>
   </g>
   <g id="patch_124">
    <path clip-path="url(#p1a9e37a91e)" d="M 385.040921 350.699936 
L 390.252109 346.998825 
L 390.841324 348.932292 
L 390.841325 348.932292 
L 390.841325 348.932292 
L 390.841324 348.932292 
L 391.430539 350.86576 
z
" style="stroke:#000000;stroke-linejoin:miter;"/>
   </g>
   <g id="patch_125">
    <path clip-path="url(#p1a9e37a91e)" d="M 484.484237 346.777924 
L 489.475075 342.784649 
L 490.173974 344.681228 
L 490.173975 344.681228 
L 490.173975 344.681228 
L 490.173974 344.681228 
L 490.872872 346.577807 
z
" style="stroke:#000000;stroke-linejoin:miter;"/>
   </g>
   <g id="patch_126">
    <path clip-path="url(#p1a9e37a91e)" d="M 583.90404 342.814138 
L 588.487338 338.359018 
L 589.365544 340.179519 
L 589.365545 340.179519 
L 589.365545 340.179519 
L 589.365544 340.179519 
L 590.24375 342.000021 
z
" style="stroke:#000000;stroke-linejoin:miter;"/>
   </g>
   <g id="patch_127">
    <path clip-path="url(#p1a9e37a91e)" d="M 682.004218 339.773735 
L 685.659353 334.530196 
L 686.866901 336.151091 
L 686.866902 336.15109 
L 686.866902 336.15109 
L 686.866901 336.151091 
L 688.074449 337.771985 
z
" style="stroke:#000000;stroke-linejoin:miter;"/>
   </g>
   <g id="patch_128">
    <path clip-path="url(#p1a9e37a91e)" d="M 774.271089 330.983129 
L 776.151817 324.874318 
L 777.796388 326.049418 
L 777.796388 326.049417 
L 777.796388 326.049417 
L 777.796388 326.049418 
L 779.440958 327.224517 
z
" style="stroke:#000000;stroke-linejoin:miter;"/>
   </g>
   <g id="text_1">
    <!-- $a_{0}^{(0)}$ -->
    <defs>
     <path d="M 53.71875 31.203125 
L 47.609375 0 
L 38.625 0 
L 40.28125 8.296875 
Q 36.328125 3.421875 31.265625 1 
Q 26.21875 -1.421875 20.015625 -1.421875 
Q 13.03125 -1.421875 8.5625 2.84375 
Q 4.109375 7.125 4.109375 13.8125 
Q 4.109375 23.390625 11.75 28.953125 
Q 19.390625 34.515625 32.8125 34.515625 
L 45.3125 34.515625 
L 45.796875 36.921875 
Q 45.90625 37.3125 45.953125 37.765625 
Q 46 38.234375 46 39.203125 
Q 46 43.5625 42.453125 45.96875 
Q 38.921875 48.390625 32.515625 48.390625 
Q 28.125 48.390625 23.5 47.265625 
Q 18.890625 46.140625 14.015625 43.890625 
L 15.578125 52.203125 
Q 20.65625 54.109375 25.515625 55.046875 
Q 30.375 56 34.90625 56 
Q 44.578125 56 49.625 51.796875 
Q 54.6875 47.609375 54.6875 39.59375 
Q 54.6875 37.984375 54.4375 35.8125 
Q 54.203125 33.640625 53.71875 31.203125 
z
M 44 27.484375 
L 35.015625 27.484375 
Q 23.96875 27.484375 18.671875 24.53125 
Q 13.375 21.578125 13.375 15.375 
Q 13.375 11.078125 16.078125 8.640625 
Q 18.796875 6.203125 23.578125 6.203125 
Q 30.90625 6.203125 36.375 11.453125 
Q 41.84375 16.703125 43.609375 25.484375 
z
" id="DejaVuSans-Oblique-97"/>
     <path d="M 31 75.875 
Q 24.46875 64.65625 21.28125 53.65625 
Q 18.109375 42.671875 18.109375 31.390625 
Q 18.109375 20.125 21.3125 9.0625 
Q 24.515625 -2 31 -13.1875 
L 23.1875 -13.1875 
Q 15.875 -1.703125 12.234375 9.375 
Q 8.59375 20.453125 8.59375 31.390625 
Q 8.59375 42.28125 12.203125 53.3125 
Q 15.828125 64.359375 23.1875 75.875 
z
" id="DejaVuSans-40"/>
     <path d="M 31.78125 66.40625 
Q 24.171875 66.40625 20.328125 58.90625 
Q 16.5 51.421875 16.5 36.375 
Q 16.5 21.390625 20.328125 13.890625 
Q 24.171875 6.390625 31.78125 6.390625 
Q 39.453125 6.390625 43.28125 13.890625 
Q 47.125 21.390625 47.125 36.375 
Q 47.125 51.421875 43.28125 58.90625 
Q 39.453125 66.40625 31.78125 66.40625 
z
M 31.78125 74.21875 
Q 44.046875 74.21875 50.515625 64.515625 
Q 56.984375 54.828125 56.984375 36.375 
Q 56.984375 17.96875 50.515625 8.265625 
Q 44.046875 -1.421875 31.78125 -1.421875 
Q 19.53125 -1.421875 13.0625 8.265625 
Q 6.59375 17.96875 6.59375 36.375 
Q 6.59375 54.828125 13.0625 64.515625 
Q 19.53125 74.21875 31.78125 74.21875 
z
" id="DejaVuSans-48"/>
     <path d="M 8.015625 75.875 
L 15.828125 75.875 
Q 23.140625 64.359375 26.78125 53.3125 
Q 30.421875 42.28125 30.421875 31.390625 
Q 30.421875 20.453125 26.78125 9.375 
Q 23.140625 -1.703125 15.828125 -13.1875 
L 8.015625 -13.1875 
Q 14.5 -2 17.703125 9.0625 
Q 20.90625 20.125 20.90625 31.390625 
Q 20.90625 42.671875 17.703125 53.65625 
Q 14.5 64.65625 8.015625 75.875 
z
" id="DejaVuSans-41"/>
    </defs>
    <g transform="translate(87.465169 61.58589)scale(0.16 -0.16)">
     <use transform="translate(0 0.546875)" xlink:href="#DejaVuSans-Oblique-97"/>
     <use transform="translate(65.929193 46.8875)scale(0.7)" xlink:href="#DejaVuSans-40"/>
     <use transform="translate(93.238763 46.8875)scale(0.7)" xlink:href="#DejaVuSans-48"/>
     <use transform="translate(137.774896 46.8875)scale(0.7)" xlink:href="#DejaVuSans-41"/>
     <use transform="translate(61.279297 -26.796875)scale(0.7)" xlink:href="#DejaVuSans-48"/>
    </g>
   </g>
   <g id="text_2">
    <!-- $a_{1}^{(0)}$ -->
    <defs>
     <path d="M 12.40625 8.296875 
L 28.515625 8.296875 
L 28.515625 63.921875 
L 10.984375 60.40625 
L 10.984375 69.390625 
L 28.421875 72.90625 
L 38.28125 72.90625 
L 38.28125 8.296875 
L 54.390625 8.296875 
L 54.390625 0 
L 12.40625 0 
z
" id="DejaVuSans-49"/>
    </defs>
    <g transform="translate(188.527909 61.58589)scale(0.16 -0.16)">
     <use transform="translate(0 0.465625)" xlink:href="#DejaVuSans-Oblique-97"/>
     <use transform="translate(65.929193 45.8875)scale(0.7)" xlink:href="#DejaVuSans-40"/>
     <use transform="translate(93.238763 45.8875)scale(0.7)" xlink:href="#DejaVuSans-48"/>
     <use transform="translate(137.774896 45.8875)scale(0.7)" xlink:href="#DejaVuSans-41"/>
     <use transform="translate(61.279297 -26.878125)scale(0.7)" xlink:href="#DejaVuSans-49"/>
    </g>
   </g>
   <g id="text_3">
    <!-- $a_{2}^{(0)}$ -->
    <defs>
     <path d="M 19.1875 8.296875 
L 53.609375 8.296875 
L 53.609375 0 
L 7.328125 0 
L 7.328125 8.296875 
Q 12.9375 14.109375 22.625 23.890625 
Q 32.328125 33.6875 34.8125 36.53125 
Q 39.546875 41.84375 41.421875 45.53125 
Q 43.3125 49.21875 43.3125 52.78125 
Q 43.3125 58.59375 39.234375 62.25 
Q 35.15625 65.921875 28.609375 65.921875 
Q 23.96875 65.921875 18.8125 64.3125 
Q 13.671875 62.703125 7.8125 59.421875 
L 7.8125 69.390625 
Q 13.765625 71.78125 18.9375 73 
Q 24.125 74.21875 28.421875 74.21875 
Q 39.75 74.21875 46.484375 68.546875 
Q 53.21875 62.890625 53.21875 53.421875 
Q 53.21875 48.921875 51.53125 44.890625 
Q 49.859375 40.875 45.40625 35.40625 
Q 44.1875 33.984375 37.640625 27.21875 
Q 31.109375 20.453125 19.1875 8.296875 
z
" id="DejaVuSans-50"/>
    </defs>
    <g transform="translate(289.590649 61.66589)scale(0.16 -0.16)">
     <use transform="translate(0 0.546875)" xlink:href="#DejaVuSans-Oblique-97"/>
     <use transform="translate(65.929193 46.8875)scale(0.7)" xlink:href="#DejaVuSans-40"/>
     <use transform="translate(93.238763 46.8875)scale(0.7)" xlink:href="#DejaVuSans-48"/>
     <use transform="translate(137.774896 46.8875)scale(0.7)" xlink:href="#DejaVuSans-41"/>
     <use transform="translate(61.279297 -26.796875)scale(0.7)" xlink:href="#DejaVuSans-50"/>
    </g>
   </g>
   <g id="text_4">
    <!-- $a_{3}^{(0)}$ -->
    <defs>
     <path d="M 40.578125 39.3125 
Q 47.65625 37.796875 51.625 33 
Q 55.609375 28.21875 55.609375 21.1875 
Q 55.609375 10.40625 48.1875 4.484375 
Q 40.765625 -1.421875 27.09375 -1.421875 
Q 22.515625 -1.421875 17.65625 -0.515625 
Q 12.796875 0.390625 7.625 2.203125 
L 7.625 11.71875 
Q 11.71875 9.328125 16.59375 8.109375 
Q 21.484375 6.890625 26.8125 6.890625 
Q 36.078125 6.890625 40.9375 10.546875 
Q 45.796875 14.203125 45.796875 21.1875 
Q 45.796875 27.640625 41.28125 31.265625 
Q 36.765625 34.90625 28.71875 34.90625 
L 20.21875 34.90625 
L 20.21875 43.015625 
L 29.109375 43.015625 
Q 36.375 43.015625 40.234375 45.921875 
Q 44.09375 48.828125 44.09375 54.296875 
Q 44.09375 59.90625 40.109375 62.90625 
Q 36.140625 65.921875 28.71875 65.921875 
Q 24.65625 65.921875 20.015625 65.03125 
Q 15.375 64.15625 9.8125 62.3125 
L 9.8125 71.09375 
Q 15.4375 72.65625 20.34375 73.4375 
Q 25.25 74.21875 29.59375 74.21875 
Q 40.828125 74.21875 47.359375 69.109375 
Q 53.90625 64.015625 53.90625 55.328125 
Q 53.90625 49.265625 50.4375 45.09375 
Q 46.96875 40.921875 40.578125 39.3125 
z
" id="DejaVuSans-51"/>
    </defs>
    <g transform="translate(390.65339 61.58589)scale(0.16 -0.16)">
     <use transform="translate(0 0.546875)" xlink:href="#DejaVuSans-Oblique-97"/>
     <use transform="translate(65.929193 46.8875)scale(0.7)" xlink:href="#DejaVuSans-40"/>
     <use transform="translate(93.238763 46.8875)scale(0.7)" xlink:href="#DejaVuSans-48"/>
     <use transform="translate(137.774896 46.8875)scale(0.7)" xlink:href="#DejaVuSans-41"/>
     <use transform="translate(61.279297 -26.796875)scale(0.7)" xlink:href="#DejaVuSans-51"/>
    </g>
   </g>
   <g id="text_5">
    <!-- $a_{4}^{(0)}$ -->
    <defs>
     <path d="M 37.796875 64.3125 
L 12.890625 25.390625 
L 37.796875 25.390625 
z
M 35.203125 72.90625 
L 47.609375 72.90625 
L 47.609375 25.390625 
L 58.015625 25.390625 
L 58.015625 17.1875 
L 47.609375 17.1875 
L 47.609375 0 
L 37.796875 0 
L 37.796875 17.1875 
L 4.890625 17.1875 
L 4.890625 26.703125 
z
" id="DejaVuSans-52"/>
    </defs>
    <g transform="translate(491.71613 61.58589)scale(0.16 -0.16)">
     <use transform="translate(0 0.465625)" xlink:href="#DejaVuSans-Oblique-97"/>
     <use transform="translate(65.929193 45.8875)scale(0.7)" xlink:href="#DejaVuSans-40"/>
     <use transform="translate(93.238763 45.8875)scale(0.7)" xlink:href="#DejaVuSans-48"/>
     <use transform="translate(137.774896 45.8875)scale(0.7)" xlink:href="#DejaVuSans-41"/>
     <use transform="translate(61.279297 -26.878125)scale(0.7)" xlink:href="#DejaVuSans-52"/>
    </g>
   </g>
   <g id="text_6">
    <!-- $a_{5}^{(0)}$ -->
    <defs>
     <path d="M 10.796875 72.90625 
L 49.515625 72.90625 
L 49.515625 64.59375 
L 19.828125 64.59375 
L 19.828125 46.734375 
Q 21.96875 47.46875 24.109375 47.828125 
Q 26.265625 48.1875 28.421875 48.1875 
Q 40.625 48.1875 47.75 41.5 
Q 54.890625 34.8125 54.890625 23.390625 
Q 54.890625 11.625 47.5625 5.09375 
Q 40.234375 -1.421875 26.90625 -1.421875 
Q 22.3125 -1.421875 17.546875 -0.640625 
Q 12.796875 0.140625 7.71875 1.703125 
L 7.71875 11.625 
Q 12.109375 9.234375 16.796875 8.0625 
Q 21.484375 6.890625 26.703125 6.890625 
Q 35.15625 6.890625 40.078125 11.328125 
Q 45.015625 15.765625 45.015625 23.390625 
Q 45.015625 31 40.078125 35.4375 
Q 35.15625 39.890625 26.703125 39.890625 
Q 22.75 39.890625 18.8125 39.015625 
Q 14.890625 38.140625 10.796875 36.28125 
z
" id="DejaVuSans-53"/>
    </defs>
    <g transform="translate(592.77887 61.50589)scale(0.16 -0.16)">
     <use transform="translate(0 0.465625)" xlink:href="#DejaVuSans-Oblique-97"/>
     <use transform="translate(65.929193 45.8875)scale(0.7)" xlink:href="#DejaVuSans-40"/>
     <use transform="translate(93.238763 45.8875)scale(0.7)" xlink:href="#DejaVuSans-48"/>
     <use transform="translate(137.774896 45.8875)scale(0.7)" xlink:href="#DejaVuSans-41"/>
     <use transform="translate(61.279297 -26.878125)scale(0.7)" xlink:href="#DejaVuSans-53"/>
    </g>
   </g>
   <g id="text_7">
    <!-- $a_{6}^{(0)}$ -->
    <defs>
     <path d="M 33.015625 40.375 
Q 26.375 40.375 22.484375 35.828125 
Q 18.609375 31.296875 18.609375 23.390625 
Q 18.609375 15.53125 22.484375 10.953125 
Q 26.375 6.390625 33.015625 6.390625 
Q 39.65625 6.390625 43.53125 10.953125 
Q 47.40625 15.53125 47.40625 23.390625 
Q 47.40625 31.296875 43.53125 35.828125 
Q 39.65625 40.375 33.015625 40.375 
z
M 52.59375 71.296875 
L 52.59375 62.3125 
Q 48.875 64.0625 45.09375 64.984375 
Q 41.3125 65.921875 37.59375 65.921875 
Q 27.828125 65.921875 22.671875 59.328125 
Q 17.53125 52.734375 16.796875 39.40625 
Q 19.671875 43.65625 24.015625 45.921875 
Q 28.375 48.1875 33.59375 48.1875 
Q 44.578125 48.1875 50.953125 41.515625 
Q 57.328125 34.859375 57.328125 23.390625 
Q 57.328125 12.15625 50.6875 5.359375 
Q 44.046875 -1.421875 33.015625 -1.421875 
Q 20.359375 -1.421875 13.671875 8.265625 
Q 6.984375 17.96875 6.984375 36.375 
Q 6.984375 53.65625 15.1875 63.9375 
Q 23.390625 74.21875 37.203125 74.21875 
Q 40.921875 74.21875 44.703125 73.484375 
Q 48.484375 72.75 52.59375 71.296875 
z
" id="DejaVuSans-54"/>
    </defs>
    <g transform="translate(693.84161 61.58589)scale(0.16 -0.16)">
     <use transform="translate(0 0.546875)" xlink:href="#DejaVuSans-Oblique-97"/>
     <use transform="translate(65.929193 46.8875)scale(0.7)" xlink:href="#DejaVuSans-40"/>
     <use transform="translate(93.238763 46.8875)scale(0.7)" xlink:href="#DejaVuSans-48"/>
     <use transform="translate(137.774896 46.8875)scale(0.7)" xlink:href="#DejaVuSans-41"/>
     <use transform="translate(61.279297 -26.796875)scale(0.7)" xlink:href="#DejaVuSans-54"/>
    </g>
   </g>
   <g id="text_8">
    <!-- $a_{7}^{(0)}$ -->
    <defs>
     <path d="M 8.203125 72.90625 
L 55.078125 72.90625 
L 55.078125 68.703125 
L 28.609375 0 
L 18.3125 0 
L 43.21875 64.59375 
L 8.203125 64.59375 
z
" id="DejaVuSans-55"/>
    </defs>
    <g transform="translate(794.904351 61.58589)scale(0.16 -0.16)">
     <use transform="translate(0 0.465625)" xlink:href="#DejaVuSans-Oblique-97"/>
     <use transform="translate(65.929193 45.8875)scale(0.7)" xlink:href="#DejaVuSans-40"/>
     <use transform="translate(93.238763 45.8875)scale(0.7)" xlink:href="#DejaVuSans-48"/>
     <use transform="translate(137.774896 45.8875)scale(0.7)" xlink:href="#DejaVuSans-41"/>
     <use transform="translate(61.279297 -26.878125)scale(0.7)" xlink:href="#DejaVuSans-55"/>
    </g>
   </g>
   <g id="text_9">
    <!-- $a_{8}^{(0)}$ -->
    <defs>
     <path d="M 31.78125 34.625 
Q 24.75 34.625 20.71875 30.859375 
Q 16.703125 27.09375 16.703125 20.515625 
Q 16.703125 13.921875 20.71875 10.15625 
Q 24.75 6.390625 31.78125 6.390625 
Q 38.8125 6.390625 42.859375 10.171875 
Q 46.921875 13.96875 46.921875 20.515625 
Q 46.921875 27.09375 42.890625 30.859375 
Q 38.875 34.625 31.78125 34.625 
z
M 21.921875 38.8125 
Q 15.578125 40.375 12.03125 44.71875 
Q 8.5 49.078125 8.5 55.328125 
Q 8.5 64.0625 14.71875 69.140625 
Q 20.953125 74.21875 31.78125 74.21875 
Q 42.671875 74.21875 48.875 69.140625 
Q 55.078125 64.0625 55.078125 55.328125 
Q 55.078125 49.078125 51.53125 44.71875 
Q 48 40.375 41.703125 38.8125 
Q 48.828125 37.15625 52.796875 32.3125 
Q 56.78125 27.484375 56.78125 20.515625 
Q 56.78125 9.90625 50.3125 4.234375 
Q 43.84375 -1.421875 31.78125 -1.421875 
Q 19.734375 -1.421875 13.25 4.234375 
Q 6.78125 9.90625 6.78125 20.515625 
Q 6.78125 27.484375 10.78125 32.3125 
Q 14.796875 37.15625 21.921875 38.8125 
z
M 18.3125 54.390625 
Q 18.3125 48.734375 21.84375 45.5625 
Q 25.390625 42.390625 31.78125 42.390625 
Q 38.140625 42.390625 41.71875 45.5625 
Q 45.3125 48.734375 45.3125 54.390625 
Q 45.3125 60.0625 41.71875 63.234375 
Q 38.140625 66.40625 31.78125 66.40625 
Q 25.390625 66.40625 21.84375 63.234375 
Q 18.3125 60.0625 18.3125 54.390625 
z
" id="DejaVuSans-56"/>
    </defs>
    <g transform="translate(895.967091 61.58589)scale(0.16 -0.16)">
     <use transform="translate(0 0.546875)" xlink:href="#DejaVuSans-Oblique-97"/>
     <use transform="translate(65.929193 46.8875)scale(0.7)" xlink:href="#DejaVuSans-40"/>
     <use transform="translate(93.238763 46.8875)scale(0.7)" xlink:href="#DejaVuSans-48"/>
     <use transform="translate(137.774896 46.8875)scale(0.7)" xlink:href="#DejaVuSans-41"/>
     <use transform="translate(61.279297 -26.796875)scale(0.7)" xlink:href="#DejaVuSans-56"/>
    </g>
   </g>
   <g id="text_10">
    <!-- $a_{9}^{(0)}$ -->
    <defs>
     <path d="M 10.984375 1.515625 
L 10.984375 10.5 
Q 14.703125 8.734375 18.5 7.8125 
Q 22.3125 6.890625 25.984375 6.890625 
Q 35.75 6.890625 40.890625 13.453125 
Q 46.046875 20.015625 46.78125 33.40625 
Q 43.953125 29.203125 39.59375 26.953125 
Q 35.25 24.703125 29.984375 24.703125 
Q 19.046875 24.703125 12.671875 31.3125 
Q 6.296875 37.9375 6.296875 49.421875 
Q 6.296875 60.640625 12.9375 67.421875 
Q 19.578125 74.21875 30.609375 74.21875 
Q 43.265625 74.21875 49.921875 64.515625 
Q 56.59375 54.828125 56.59375 36.375 
Q 56.59375 19.140625 48.40625 8.859375 
Q 40.234375 -1.421875 26.421875 -1.421875 
Q 22.703125 -1.421875 18.890625 -0.6875 
Q 15.09375 0.046875 10.984375 1.515625 
z
M 30.609375 32.421875 
Q 37.25 32.421875 41.125 36.953125 
Q 45.015625 41.5 45.015625 49.421875 
Q 45.015625 57.28125 41.125 61.84375 
Q 37.25 66.40625 30.609375 66.40625 
Q 23.96875 66.40625 20.09375 61.84375 
Q 16.21875 57.28125 16.21875 49.421875 
Q 16.21875 41.5 20.09375 36.953125 
Q 23.96875 32.421875 30.609375 32.421875 
z
" id="DejaVuSans-57"/>
    </defs>
    <g transform="translate(997.029831 61.58589)scale(0.16 -0.16)">
     <use transform="translate(0 0.546875)" xlink:href="#DejaVuSans-Oblique-97"/>
     <use transform="translate(65.929193 46.8875)scale(0.7)" xlink:href="#DejaVuSans-40"/>
     <use transform="translate(93.238763 46.8875)scale(0.7)" xlink:href="#DejaVuSans-48"/>
     <use transform="translate(137.774896 46.8875)scale(0.7)" xlink:href="#DejaVuSans-41"/>
     <use transform="translate(61.279297 -26.796875)scale(0.7)" xlink:href="#DejaVuSans-57"/>
    </g>
   </g>
   <g id="text_11">
    <!-- $a_{0}^{(1)}$ -->
    <g transform="translate(239.059279 213.18)scale(0.16 -0.16)">
     <use transform="translate(0 0.546875)" xlink:href="#DejaVuSans-Oblique-97"/>
     <use transform="translate(65.929193 46.8875)scale(0.7)" xlink:href="#DejaVuSans-40"/>
     <use transform="translate(93.238763 46.8875)scale(0.7)" xlink:href="#DejaVuSans-49"/>
     <use transform="translate(137.774896 46.8875)scale(0.7)" xlink:href="#DejaVuSans-41"/>
     <use transform="translate(61.279297 -26.796875)scale(0.7)" xlink:href="#DejaVuSans-48"/>
    </g>
   </g>
   <g id="text_12">
    <!-- $a_{1}^{(1)}$ -->
    <g transform="translate(340.122019 213.18)scale(0.16 -0.16)">
     <use transform="translate(0 0.465625)" xlink:href="#DejaVuSans-Oblique-97"/>
     <use transform="translate(65.929193 45.8875)scale(0.7)" xlink:href="#DejaVuSans-40"/>
     <use transform="translate(93.238763 45.8875)scale(0.7)" xlink:href="#DejaVuSans-49"/>
     <use transform="translate(137.774896 45.8875)scale(0.7)" xlink:href="#DejaVuSans-41"/>
     <use transform="translate(61.279297 -26.878125)scale(0.7)" xlink:href="#DejaVuSans-49"/>
    </g>
   </g>
   <g id="text_13">
    <!-- $a_{2}^{(1)}$ -->
    <g transform="translate(441.18476 213.26)scale(0.16 -0.16)">
     <use transform="translate(0 0.546875)" xlink:href="#DejaVuSans-Oblique-97"/>
     <use transform="translate(65.929193 46.8875)scale(0.7)" xlink:href="#DejaVuSans-40"/>
     <use transform="translate(93.238763 46.8875)scale(0.7)" xlink:href="#DejaVuSans-49"/>
     <use transform="translate(137.774896 46.8875)scale(0.7)" xlink:href="#DejaVuSans-41"/>
     <use transform="translate(61.279297 -26.796875)scale(0.7)" xlink:href="#DejaVuSans-50"/>
    </g>
   </g>
   <g id="text_14">
    <!-- $a_{3}^{(1)}$ -->
    <g transform="translate(542.2475 213.18)scale(0.16 -0.16)">
     <use transform="translate(0 0.546875)" xlink:href="#DejaVuSans-Oblique-97"/>
     <use transform="translate(65.929193 46.8875)scale(0.7)" xlink:href="#DejaVuSans-40"/>
     <use transform="translate(93.238763 46.8875)scale(0.7)" xlink:href="#DejaVuSans-49"/>
     <use transform="translate(137.774896 46.8875)scale(0.7)" xlink:href="#DejaVuSans-41"/>
     <use transform="translate(61.279297 -26.796875)scale(0.7)" xlink:href="#DejaVuSans-51"/>
    </g>
   </g>
   <g id="text_15">
    <!-- $a_{4}^{(1)}$ -->
    <g transform="translate(643.31024 213.18)scale(0.16 -0.16)">
     <use transform="translate(0 0.465625)" xlink:href="#DejaVuSans-Oblique-97"/>
     <use transform="translate(65.929193 45.8875)scale(0.7)" xlink:href="#DejaVuSans-40"/>
     <use transform="translate(93.238763 45.8875)scale(0.7)" xlink:href="#DejaVuSans-49"/>
     <use transform="translate(137.774896 45.8875)scale(0.7)" xlink:href="#DejaVuSans-41"/>
     <use transform="translate(61.279297 -26.878125)scale(0.7)" xlink:href="#DejaVuSans-52"/>
    </g>
   </g>
   <g id="text_16">
    <!-- $a_{5}^{(1)}$ -->
    <g transform="translate(744.372981 213.1)scale(0.16 -0.16)">
     <use transform="translate(0 0.465625)" xlink:href="#DejaVuSans-Oblique-97"/>
     <use transform="translate(65.929193 45.8875)scale(0.7)" xlink:href="#DejaVuSans-40"/>
     <use transform="translate(93.238763 45.8875)scale(0.7)" xlink:href="#DejaVuSans-49"/>
     <use transform="translate(137.774896 45.8875)scale(0.7)" xlink:href="#DejaVuSans-41"/>
     <use transform="translate(61.279297 -26.878125)scale(0.7)" xlink:href="#DejaVuSans-53"/>
    </g>
   </g>
   <g id="text_17">
    <!-- $a_{6}^{(1)}$ -->
    <g transform="translate(845.435721 213.18)scale(0.16 -0.16)">
     <use transform="translate(0 0.546875)" xlink:href="#DejaVuSans-Oblique-97"/>
     <use transform="translate(65.929193 46.8875)scale(0.7)" xlink:href="#DejaVuSans-40"/>
     <use transform="translate(93.238763 46.8875)scale(0.7)" xlink:href="#DejaVuSans-49"/>
     <use transform="translate(137.774896 46.8875)scale(0.7)" xlink:href="#DejaVuSans-41"/>
     <use transform="translate(61.279297 -26.796875)scale(0.7)" xlink:href="#DejaVuSans-54"/>
    </g>
   </g>
   <g id="text_18">
    <!-- $a_{0}^{(2)}$ -->
    <g transform="translate(340.122019 364.77411)scale(0.16 -0.16)">
     <use transform="translate(0 0.546875)" xlink:href="#DejaVuSans-Oblique-97"/>
     <use transform="translate(65.929193 46.8875)scale(0.7)" xlink:href="#DejaVuSans-40"/>
     <use transform="translate(93.238763 46.8875)scale(0.7)" xlink:href="#DejaVuSans-50"/>
     <use transform="translate(137.774896 46.8875)scale(0.7)" xlink:href="#DejaVuSans-41"/>
     <use transform="translate(61.279297 -26.796875)scale(0.7)" xlink:href="#DejaVuSans-48"/>
    </g>
   </g>
   <g id="text_19">
    <!-- $a_{1}^{(2)}$ -->
    <g transform="translate(441.18476 364.77411)scale(0.16 -0.16)">
     <use transform="translate(0 0.465625)" xlink:href="#DejaVuSans-Oblique-97"/>
     <use transform="translate(65.929193 45.8875)scale(0.7)" xlink:href="#DejaVuSans-40"/>
     <use transform="translate(93.238763 45.8875)scale(0.7)" xlink:href="#DejaVuSans-50"/>
     <use transform="translate(137.774896 45.8875)scale(0.7)" xlink:href="#DejaVuSans-41"/>
     <use transform="translate(61.279297 -26.878125)scale(0.7)" xlink:href="#DejaVuSans-49"/>
    </g>
   </g>
   <g id="text_20">
    <!-- $a_{2}^{(2)}$ -->
    <g transform="translate(542.2475 364.85411)scale(0.16 -0.16)">
     <use transform="translate(0 0.546875)" xlink:href="#DejaVuSans-Oblique-97"/>
     <use transform="translate(65.929193 46.8875)scale(0.7)" xlink:href="#DejaVuSans-40"/>
     <use transform="translate(93.238763 46.8875)scale(0.7)" xlink:href="#DejaVuSans-50"/>
     <use transform="translate(137.774896 46.8875)scale(0.7)" xlink:href="#DejaVuSans-41"/>
     <use transform="translate(61.279297 -26.796875)scale(0.7)" xlink:href="#DejaVuSans-50"/>
    </g>
   </g>
   <g id="text_21">
    <!-- $a_{3}^{(2)}$ -->
    <g transform="translate(643.31024 364.77411)scale(0.16 -0.16)">
     <use transform="translate(0 0.546875)" xlink:href="#DejaVuSans-Oblique-97"/>
     <use transform="translate(65.929193 46.8875)scale(0.7)" xlink:href="#DejaVuSans-40"/>
     <use transform="translate(93.238763 46.8875)scale(0.7)" xlink:href="#DejaVuSans-50"/>
     <use transform="translate(137.774896 46.8875)scale(0.7)" xlink:href="#DejaVuSans-41"/>
     <use transform="translate(61.279297 -26.796875)scale(0.7)" xlink:href="#DejaVuSans-51"/>
    </g>
   </g>
   <g id="text_22">
    <!-- $a_{4}^{(2)}$ -->
    <g transform="translate(744.372981 364.77411)scale(0.16 -0.16)">
     <use transform="translate(0 0.465625)" xlink:href="#DejaVuSans-Oblique-97"/>
     <use transform="translate(65.929193 45.8875)scale(0.7)" xlink:href="#DejaVuSans-40"/>
     <use transform="translate(93.238763 45.8875)scale(0.7)" xlink:href="#DejaVuSans-50"/>
     <use transform="translate(137.774896 45.8875)scale(0.7)" xlink:href="#DejaVuSans-41"/>
     <use transform="translate(61.279297 -26.878125)scale(0.7)" xlink:href="#DejaVuSans-52"/>
    </g>
   </g>
  </g>
 </g>
 <defs>
  <clipPath id="p1a9e37a91e">
   <rect height="393.4" width="1027.025" x="42.175" y="10.8"/>
  </clipPath>
 </defs>
</svg>
